M48
; DRILL file {KiCad (5.1.6)-1} date 07/31/20 11:52:54
; FORMAT={-:-/ absolute / metric / decimal}
; #@! TF.CreationDate,2020-07-31T11:52:54+07:00
; #@! TF.GenerationSoftware,Kicad,Pcbnew,(5.1.6)-1
; #@! TF.FileFunction,Plated,1,2,PTH
FMAT,2
METRIC
T1C0.400
T2C0.450
T3C1.000
T4C1.100
%
G90
G05
T1
X79.845Y-121.323
X79.896Y-124.181
X80.55Y-119.065
X81.08Y-121.61
X81.11Y-125.34
X81.39Y-123.69
X82.001Y-101.288
X82.085Y-100.231
X82.8Y-121.315
X83.4Y-124.91
X83.44Y-114.35
X83.703Y-101.305
X83.721Y-100.282
X83.95Y-112.43
X84.138Y-122.652
X85.12Y-120.21
X85.336Y-100.452
X85.603Y-101.338
X85.93Y-124.94
X86.04Y-122.73
X86.131Y-114.59
X86.337Y-118.511
X86.495Y-102.296
X86.538Y-109.855
X86.835Y-100.35
X87.0Y-112.77
X87.04Y-108.59
X87.419Y-101.636
X87.635Y-102.941
X87.645Y-111.237
X87.729Y-118.72
X87.851Y-114.714
X87.855Y-123.985
X88.13Y-104.295
X89.052Y-104.889
X89.134Y-102.984
X89.56Y-112.41
X89.847Y-104.031
X90.487Y-109.423
X90.49Y-124.75
X91.002Y-99.572
X91.211Y-104.61
X91.939Y-100.509
X92.05Y-110.045
X93.1Y-112.29
X93.13Y-120.61
X93.33Y-100.401
X93.408Y-108.839
X93.612Y-102.154
X93.777Y-107.607
X94.34Y-112.41
X94.37Y-110.61
X95.237Y-108.674
X96.15Y-106.19
X96.6Y-103.07
X96.64Y-104.83
X96.89Y-120.25
X100.01Y-103.14
X100.14Y-106.9
X100.14Y-108.21
X100.21Y-109.75
X100.21Y-111.27
X100.21Y-120.73
X101.61Y-115.56
X102.01Y-108.19
X102.01Y-109.76
X102.03Y-106.86
X102.03Y-111.25
X103.289Y-111.277
X103.37Y-109.825
X103.49Y-117.744
X103.619Y-124.219
X103.75Y-108.17
X103.76Y-106.84
X105.07Y-117.63
X106.2Y-103.05
X107.46Y-115.93
X108.07Y-103.11
X109.2Y-115.86
X109.49Y-108.9
X109.64Y-111.01
X111.087Y-113.36
X111.92Y-103.21
X112.33Y-105.82
X112.662Y-114.376
X112.7Y-113.246
X112.751Y-112.128
X112.751Y-115.341
X113.436Y-111.481
X114.16Y-117.399
X114.275Y-115.519
X114.376Y-111.455
X114.95Y-108.62
X115.418Y-107.721
X115.545Y-115.57
X115.82Y-123.66
X115.9Y-108.63
X116.17Y-120.27
X116.751Y-115.545
X116.82Y-101.96
X118.021Y-115.557
X118.44Y-100.3
X118.45Y-101.89
X118.59Y-118.51
X118.6Y-106.09
X118.66Y-122.53
X118.681Y-111.722
X119.101Y-97.206
X119.532Y-115.57
X119.67Y-106.02
X120.193Y-101.74
X120.332Y-114.49
X120.371Y-113.386
X120.421Y-102.933
X120.434Y-112.344
X120.69Y-124.86
X120.8Y-106.0
X121.069Y-104.572
X121.183Y-100.609
X121.221Y-97.104
X121.45Y-113.957
X121.54Y-119.39
X121.907Y-101.994
X121.93Y-106.01
X121.945Y-103.556
X122.02Y-122.17
X122.187Y-108.75
X122.314Y-109.715
X123.0Y-114.2
X123.1Y-106.04
X123.266Y-102.629
X123.393Y-100.825
X123.546Y-108.763
X123.55Y-124.99
X123.558Y-109.766
X123.939Y-97.193
X124.028Y-104.026
X124.24Y-106.04
X124.866Y-108.775
X124.892Y-109.779
X125.019Y-101.003
X125.28Y-106.04
X125.514Y-102.997
X125.63Y-118.34
X125.88Y-120.42
X126.098Y-108.763
X126.162Y-109.779
X126.34Y-106.06
X126.34Y-115.48
X126.45Y-124.95
X126.479Y-100.647
X126.835Y-97.295
X127.114Y-103.645
X127.292Y-108.788
X127.305Y-109.791
X127.46Y-106.04
X128.17Y-114.08
X128.257Y-109.741
X128.283Y-116.561
X128.295Y-102.527
X128.473Y-108.801
X129.807Y-97.142
X129.89Y-106.45
X129.92Y-107.33
X129.99Y-117.72
X130.1Y-125.04
X130.26Y-121.94
X130.76Y-106.46
X130.785Y-115.138
X130.79Y-107.33
X131.655Y-108.375
X132.105Y-97.358
X132.626Y-112.357
X132.651Y-109.461
X133.05Y-115.84
X133.08Y-105.68
X133.464Y-110.172
X133.776Y-119.509
X133.89Y-103.888
X134.16Y-105.728
X134.42Y-124.82
X134.43Y-101.828
X134.48Y-110.185
X134.79Y-119.7
X134.935Y-97.64
X135.08Y-99.588
X135.27Y-105.738
X135.598Y-110.16
X135.78Y-115.97
X135.8Y-122.73
X135.83Y-113.998
X136.01Y-103.958
X136.42Y-105.748
X136.59Y-108.688
X136.627Y-109.779
X136.92Y-101.918
X137.37Y-97.708
X137.54Y-99.748
X137.62Y-105.738
X137.72Y-108.708
X137.94Y-103.978
X138.55Y-124.64
X138.68Y-105.728
X138.69Y-118.57
X138.82Y-116.15
X138.836Y-109.677
X138.84Y-108.708
X138.88Y-101.778
X139.04Y-121.74
X139.7Y-105.738
X139.789Y-110.287
X139.92Y-103.938
X139.94Y-100.368
X140.081Y-113.157
X140.75Y-105.708
X140.919Y-110.249
X141.24Y-101.848
X141.64Y-98.438
X141.75Y-105.688
X141.78Y-103.938
X141.897Y-117.424
X141.973Y-110.261
X142.03Y-124.82
X142.227Y-113.716
X142.86Y-105.688
X142.95Y-102.298
X143.027Y-109.715
X143.09Y-108.658
X143.2Y-99.358
X143.53Y-120.37
X143.55Y-103.888
X143.62Y-97.928
X143.67Y-100.728
X144.051Y-105.702
X144.14Y-116.28
X144.145Y-112.852
X144.247Y-108.658
X144.76Y-118.66
X145.232Y-105.715
X145.24Y-121.91
X145.351Y-108.598
X145.529Y-109.626
X145.65Y-97.45
X146.12Y-124.77
X146.21Y-98.728
X146.43Y-120.5
X146.606Y-109.794
X146.627Y-101.633
X146.627Y-102.984
X146.627Y-104.351
X146.639Y-111.163
X146.642Y-105.702
X146.675Y-112.601
X146.79Y-116.28
X147.5Y-100.886
X147.871Y-113.304
X148.17Y-97.63
X148.38Y-115.54
X148.867Y-100.871
X149.38Y-113.289
X149.64Y-99.018
X149.69Y-116.46
X149.78Y-119.1
X149.78Y-124.55
X149.87Y-122.35
X150.175Y-100.886
X150.35Y-97.44
X150.787Y-113.276
X151.26Y-100.886
X152.07Y-113.289
X152.316Y-100.886
T3
X93.21Y-98.19
X95.75Y-98.19
X98.29Y-98.19
X100.83Y-98.19
X103.37Y-98.19
X105.91Y-98.19
X108.45Y-98.19
X110.99Y-98.19
X113.53Y-98.19
X116.07Y-98.19
X81.99Y-98.18
X84.53Y-98.18
X87.07Y-98.18
X89.61Y-98.18
X95.75Y-123.0
X98.29Y-123.0
X100.83Y-123.0
T4
X106.52Y-119.54
X106.52Y-124.04
X113.02Y-119.54
X113.02Y-124.04
T2
G00X81.58Y-103.92
M15
G01X82.38Y-103.92
M16
G05
G00X82.38Y-111.07
M15
G01X81.58Y-111.07
M16
G05
T0
M30
