%TF.GenerationSoftware,KiCad,Pcbnew,(5.1.6)-1*%
%TF.CreationDate,2020-07-31T11:50:38+07:00*%
%TF.ProjectId,stm32_nrf24,73746d33-325f-46e7-9266-32342e6b6963,rev?*%
%TF.SameCoordinates,Original*%
%TF.FileFunction,Copper,L2,Bot*%
%TF.FilePolarity,Positive*%
%FSLAX46Y46*%
G04 Gerber Fmt 4.6, Leading zero omitted, Abs format (unit mm)*
G04 Created by KiCad (PCBNEW (5.1.6)-1) date 2020-07-31 11:50:38*
%MOMM*%
%LPD*%
G01*
G04 APERTURE LIST*
%TA.AperFunction,ComponentPad*%
%ADD10O,1.700000X1.700000*%
%TD*%
%TA.AperFunction,ComponentPad*%
%ADD11R,1.700000X1.700000*%
%TD*%
%TA.AperFunction,ComponentPad*%
%ADD12C,2.000000*%
%TD*%
%TA.AperFunction,SMDPad,CuDef*%
%ADD13R,5.080000X1.500000*%
%TD*%
%TA.AperFunction,ComponentPad*%
%ADD14O,1.900000X1.050000*%
%TD*%
%TA.AperFunction,ViaPad*%
%ADD15C,0.800000*%
%TD*%
%TA.AperFunction,Conductor*%
%ADD16C,0.250000*%
%TD*%
%TA.AperFunction,Conductor*%
%ADD17C,1.000000*%
%TD*%
%TA.AperFunction,Conductor*%
%ADD18C,0.152400*%
%TD*%
%TA.AperFunction,Conductor*%
%ADD19C,0.500000*%
%TD*%
%TA.AperFunction,Conductor*%
%ADD20C,1.100000*%
%TD*%
%TA.AperFunction,Conductor*%
%ADD21C,0.254000*%
%TD*%
G04 APERTURE END LIST*
D10*
%TO.P,J5,4*%
%TO.N,GND*%
X89610000Y-98180000D03*
%TO.P,J5,3*%
%TO.N,SWDIO*%
X87070000Y-98180000D03*
%TO.P,J5,2*%
%TO.N,SWCLK*%
X84530000Y-98180000D03*
D11*
%TO.P,J5,1*%
%TO.N,+3V3*%
X81990000Y-98180000D03*
%TD*%
D10*
%TO.P,J4,10*%
%TO.N,P10*%
X116070000Y-98190000D03*
%TO.P,J4,9*%
%TO.N,P9*%
X113530000Y-98190000D03*
%TO.P,J4,8*%
%TO.N,P8*%
X110990000Y-98190000D03*
%TO.P,J4,7*%
%TO.N,P7*%
X108450000Y-98190000D03*
%TO.P,J4,6*%
%TO.N,P6*%
X105910000Y-98190000D03*
%TO.P,J4,5*%
%TO.N,P5*%
X103370000Y-98190000D03*
%TO.P,J4,4*%
%TO.N,P4*%
X100830000Y-98190000D03*
%TO.P,J4,3*%
%TO.N,P3*%
X98290000Y-98190000D03*
%TO.P,J4,2*%
%TO.N,P2*%
X95750000Y-98190000D03*
D11*
%TO.P,J4,1*%
%TO.N,P1*%
X93210000Y-98190000D03*
%TD*%
D12*
%TO.P,SW1,1*%
%TO.N,GND*%
X106520000Y-124040000D03*
%TO.P,SW1,2*%
%TO.N,NRST*%
X106520000Y-119540000D03*
%TO.P,SW1,1*%
%TO.N,GND*%
X113020000Y-124040000D03*
%TO.P,SW1,2*%
%TO.N,NRST*%
X113020000Y-119540000D03*
%TD*%
D13*
%TO.P,J3,2*%
%TO.N,GND*%
X150357840Y-102960860D03*
X150357840Y-111460860D03*
%TD*%
D10*
%TO.P,J2,3*%
%TO.N,+3V3*%
X100830000Y-123000000D03*
%TO.P,J2,2*%
%TO.N,BOOT0*%
X98290000Y-123000000D03*
D11*
%TO.P,J2,1*%
%TO.N,GND*%
X95750000Y-123000000D03*
%TD*%
D14*
%TO.P,J1,6*%
%TO.N,Net-(J1-Pad6)*%
X81980000Y-111070000D03*
X81980000Y-103920000D03*
%TD*%
D15*
%TO.N,GND*%
X119532400Y-115570000D03*
X118021100Y-115557300D03*
X116751100Y-115544600D03*
X115544600Y-115570000D03*
X114274600Y-115519200D03*
X112750600Y-115341400D03*
X112699800Y-113245900D03*
X112750600Y-112128300D03*
X113436400Y-111480600D03*
X114376200Y-111455200D03*
X118681500Y-111721900D03*
X120434100Y-112344200D03*
X120370600Y-113385600D03*
X121450100Y-113957100D03*
X120332500Y-114490500D03*
X111086900Y-113360200D03*
X101610000Y-115560000D03*
X114160300Y-117398800D03*
X112661700Y-114376200D03*
X93130000Y-120610000D03*
X138840000Y-108708260D03*
X137720000Y-108708260D03*
X134480300Y-110185200D03*
X145351500Y-108597700D03*
X129920000Y-107330000D03*
X130760000Y-106460000D03*
X115417600Y-107721400D03*
X115900000Y-108630000D03*
X83440000Y-114350000D03*
X87040000Y-108590000D03*
X126340000Y-106060000D03*
X118450000Y-101890000D03*
X116820000Y-101960000D03*
X114950000Y-108620000D03*
X130790000Y-107330000D03*
X129890000Y-106450000D03*
X96890000Y-120250000D03*
X96600000Y-103070000D03*
X108070000Y-103110000D03*
X103489760Y-117744240D03*
X94370000Y-110610000D03*
X133080000Y-105680000D03*
X134160000Y-105728260D03*
X135270000Y-105738260D03*
X136420000Y-105748260D03*
X137620000Y-105738260D03*
X138680000Y-105728260D03*
X139700000Y-105738260D03*
X140750000Y-105708260D03*
X141750000Y-105688260D03*
X142860000Y-105688260D03*
X144051020Y-105702100D03*
X145232120Y-105714800D03*
X146641820Y-105702100D03*
X146626580Y-104350820D03*
X134934960Y-97640140D03*
X146626580Y-102984300D03*
X146626580Y-101633020D03*
X147500340Y-100886260D03*
X148866860Y-100871020D03*
X150174960Y-100886260D03*
X151259540Y-100886260D03*
X152316180Y-100886260D03*
X145529300Y-109626400D03*
X146606260Y-109794040D03*
X146639280Y-111163100D03*
X146674840Y-112600740D03*
X147871180Y-113304320D03*
X148380000Y-115540000D03*
X149379940Y-113289080D03*
X150787100Y-113276380D03*
X152069800Y-113289080D03*
X133776440Y-119508980D03*
X136590000Y-108688260D03*
X139788900Y-110286800D03*
X140919200Y-110248700D03*
X141973300Y-110261400D03*
X143090000Y-108658260D03*
X144246600Y-108658260D03*
X143550000Y-103888260D03*
X141780000Y-103938260D03*
X139920000Y-103938260D03*
X137940000Y-103978260D03*
X136010000Y-103958260D03*
X133890000Y-103888260D03*
X134430000Y-101828260D03*
X136920000Y-101918260D03*
X138880000Y-101778260D03*
X141240000Y-101848260D03*
X142950000Y-102298260D03*
X143670000Y-100728260D03*
X143200000Y-99358260D03*
X139940000Y-100368260D03*
X137540000Y-99748260D03*
X135080000Y-99588260D03*
X133464300Y-110172500D03*
X132651500Y-109461300D03*
X135830000Y-113998260D03*
X136626600Y-109778800D03*
X135597900Y-110159800D03*
X138836400Y-109677200D03*
X133050000Y-115840000D03*
X135780000Y-115970000D03*
X138820000Y-116150000D03*
X143027400Y-109715300D03*
X144140000Y-116280000D03*
X146790000Y-116280000D03*
X149690000Y-116460000D03*
X149780000Y-119100000D03*
X149870000Y-122350000D03*
X149780000Y-124550000D03*
X146120000Y-124770000D03*
X142030000Y-124820000D03*
X138550000Y-124640000D03*
X134420000Y-124820000D03*
X130100000Y-125040000D03*
X126450000Y-124950000D03*
X123550000Y-124990000D03*
X120690000Y-124860000D03*
X118660000Y-122530000D03*
X127292100Y-108788200D03*
X125880000Y-120420000D03*
X143530000Y-120370000D03*
X130260000Y-121940000D03*
X139040000Y-121740000D03*
X123000000Y-114200000D03*
X128170000Y-114080000D03*
X124866400Y-108775500D03*
X126098300Y-108762800D03*
X123545600Y-108762800D03*
X144760000Y-118660000D03*
X146430000Y-120500000D03*
X145240000Y-121910000D03*
X135800000Y-122730000D03*
X138690000Y-118570000D03*
X137370000Y-97708260D03*
X146210000Y-98728260D03*
X149640000Y-99018260D03*
X145650000Y-97450000D03*
X143620000Y-97928260D03*
X122186700Y-108750100D03*
X141640000Y-98438260D03*
X148170000Y-97630000D03*
X150350000Y-97440000D03*
X120800000Y-106000000D03*
X127460000Y-106040000D03*
X125280000Y-106040000D03*
X123100000Y-106040000D03*
X118600000Y-106090000D03*
X121930000Y-106010000D03*
X124240000Y-106040000D03*
X119670000Y-106020000D03*
X118440000Y-100300000D03*
X81080000Y-121610000D03*
X93099990Y-112290010D03*
X87645240Y-111236760D03*
X87000000Y-112770000D03*
X89560000Y-112410000D03*
X83950000Y-112430000D03*
X85119999Y-120210001D03*
X84137500Y-122652500D03*
X81390000Y-123690000D03*
X87854990Y-123985010D03*
X90490000Y-124750000D03*
X83400000Y-124910000D03*
X81110000Y-125340000D03*
X85930000Y-124940000D03*
X86040000Y-122730000D03*
X100210000Y-120730000D03*
X112330000Y-105820000D03*
X128473200Y-108800900D03*
X134790000Y-119700000D03*
X129990000Y-117720000D03*
X125630000Y-118340000D03*
X121540000Y-119390000D03*
X118590000Y-118510000D03*
X115820000Y-123660000D03*
X122020000Y-122170000D03*
X126340000Y-115480000D03*
X116170000Y-120270000D03*
X100140000Y-106900000D03*
X102030000Y-106860000D03*
X103760000Y-106840000D03*
X103750000Y-108170000D03*
X102010000Y-108190000D03*
X100140000Y-108210000D03*
X100210000Y-109750000D03*
X102010000Y-109760000D03*
X103289100Y-111277400D03*
X102030000Y-111250000D03*
X100210000Y-111270000D03*
X131655000Y-108375000D03*
X91939090Y-100509090D03*
X93611700Y-102153720D03*
X93329760Y-100401120D03*
X86834980Y-100350320D03*
X85336380Y-100451920D03*
X83720940Y-100281740D03*
X82085180Y-100230940D03*
X82001360Y-101287580D03*
X83703160Y-101305360D03*
X85603080Y-101338380D03*
X87419180Y-101635560D03*
X87635080Y-102941120D03*
X86494620Y-102295960D03*
X88130380Y-104294940D03*
X89847420Y-104030780D03*
X89133680Y-102984300D03*
X91001830Y-99571830D03*
X86337140Y-118511320D03*
X87729060Y-118719600D03*
X86131400Y-114589560D03*
X87850980Y-114714020D03*
X103370380Y-109824520D03*
X140081000Y-113157000D03*
X144145000Y-112852200D03*
X142227300Y-113715800D03*
X141897100Y-117424200D03*
X132626100Y-112356900D03*
X130784600Y-115138200D03*
X128282700Y-116560600D03*
X123266200Y-102628700D03*
X125514100Y-102997000D03*
X124028200Y-104025700D03*
X121945400Y-103555800D03*
X125018800Y-101003100D03*
X128295400Y-102527100D03*
X121183400Y-100609400D03*
X120421400Y-102933500D03*
X120192800Y-101739700D03*
X123393200Y-100825300D03*
X123939300Y-97193100D03*
X126834900Y-97294700D03*
X129806700Y-97142300D03*
X132105400Y-97358200D03*
X121221500Y-97104200D03*
X119100600Y-97205800D03*
X80550000Y-119065000D03*
X79844900Y-121323100D03*
X82799700Y-121314700D03*
X79895700Y-124180600D03*
X103619300Y-124218700D03*
X95237300Y-108673900D03*
X93408500Y-108839000D03*
X92049600Y-110045500D03*
X90487500Y-109423200D03*
X93776800Y-107607100D03*
X91211400Y-104609900D03*
X89052400Y-104889300D03*
X126479300Y-100647500D03*
X127114300Y-103644700D03*
X121069100Y-104571800D03*
X121907300Y-101993700D03*
X122313700Y-109715300D03*
X123558300Y-109766100D03*
X124891800Y-109778800D03*
X126161800Y-109778800D03*
X127304800Y-109791500D03*
X128257300Y-109740700D03*
%TO.N,NRST*%
X109200000Y-115860000D03*
%TO.N,+3V3*%
X94340000Y-112410000D03*
X111920000Y-103210000D03*
X107460000Y-115930000D03*
X96640000Y-104830000D03*
X106200000Y-103050000D03*
X105070000Y-117630000D03*
X86537800Y-109855000D03*
%TO.N,SCK*%
X109640000Y-111010000D03*
X109490000Y-108900000D03*
%TO.N,SWCLK*%
X96150000Y-106190000D03*
%TO.N,SWDIO*%
X100010000Y-103140000D03*
%TD*%
D16*
%TO.N,GND*%
X108910000Y-102270000D02*
X116780000Y-102270000D01*
X108070000Y-103110000D02*
X108910000Y-102270000D01*
X96925001Y-121824999D02*
X95750000Y-123000000D01*
X101824637Y-121824999D02*
X96925001Y-121824999D01*
X103270000Y-120379636D02*
X101824637Y-121824999D01*
X103270000Y-117650000D02*
X103270000Y-120379636D01*
X105520001Y-125039999D02*
X106520000Y-124040000D01*
X96689999Y-125039999D02*
X105520001Y-125039999D01*
X95750000Y-124100000D02*
X96689999Y-125039999D01*
X95750000Y-123000000D02*
X95750000Y-124100000D01*
D17*
X128050000Y-114200000D02*
X128170000Y-114080000D01*
X123000000Y-114200000D02*
X128050000Y-114200000D01*
X83440000Y-119250000D02*
X81080000Y-121610000D01*
X83440000Y-114350000D02*
X83440000Y-119250000D01*
D18*
X93490000Y-120250000D02*
X93130000Y-120610000D01*
X96890000Y-120250000D02*
X93490000Y-120250000D01*
X82479999Y-120210001D02*
X81080000Y-121610000D01*
X92730001Y-120210001D02*
X85119999Y-120210001D01*
X93130000Y-120610000D02*
X92730001Y-120210001D01*
D17*
X93099990Y-120579990D02*
X93130000Y-120610000D01*
X93099990Y-112290010D02*
X93099990Y-120579990D01*
D19*
X101610000Y-115560000D02*
X102980000Y-115560000D01*
X103270000Y-115850000D02*
X103270000Y-117650000D01*
X102980000Y-115560000D02*
X103270000Y-115850000D01*
D18*
X85119999Y-120210001D02*
X82479999Y-120210001D01*
D17*
X93229991Y-101799991D02*
X91939090Y-100509090D01*
X107969991Y-103009991D02*
X108070000Y-103009991D01*
X97870009Y-101799991D02*
X106759991Y-101799991D01*
X106759991Y-101799991D02*
X107969991Y-103009991D01*
X96600000Y-102029982D02*
X96370009Y-101799991D01*
X96600000Y-103070000D02*
X96600000Y-102029982D01*
X97870009Y-101799991D02*
X96370009Y-101799991D01*
X96370009Y-101799991D02*
X93229991Y-101799991D01*
X91939090Y-100509090D02*
X91001830Y-99571830D01*
X91001830Y-99571830D02*
X89610000Y-98180000D01*
D16*
X146937040Y-111460860D02*
X146639280Y-111163100D01*
X150357840Y-111460860D02*
X146937040Y-111460860D01*
X150357840Y-112847120D02*
X150787100Y-113276380D01*
X150357840Y-111460860D02*
X150357840Y-112847120D01*
X150357840Y-101069140D02*
X150174960Y-100886260D01*
X150357840Y-102960860D02*
X150357840Y-101069140D01*
X146650020Y-102960860D02*
X146626580Y-102984300D01*
X150357840Y-102960860D02*
X146650020Y-102960860D01*
D20*
%TO.N,+3V3*%
X107410001Y-104260001D02*
X106200000Y-103050000D01*
X110869999Y-104260001D02*
X107410001Y-104260001D01*
X111920000Y-103210000D02*
X110869999Y-104260001D01*
X96450000Y-110360000D02*
X94350000Y-112460000D01*
D17*
X102032081Y-123000000D02*
X100830000Y-123000000D01*
X104670001Y-120362080D02*
X103526040Y-121506040D01*
X104670001Y-118029999D02*
X104670001Y-120362080D01*
X105070000Y-117630000D02*
X104670001Y-118029999D01*
X103526040Y-121506040D02*
X103454591Y-121577491D01*
X106200000Y-103050000D02*
X104319991Y-104930009D01*
X97250001Y-104940019D02*
X97239991Y-104930009D01*
X97250001Y-109559999D02*
X97250001Y-104940019D01*
X96450000Y-110360000D02*
X97250001Y-109559999D01*
X104319991Y-104930009D02*
X97239991Y-104930009D01*
X97239991Y-104930009D02*
X96640000Y-104930009D01*
X80329990Y-99840010D02*
X81990000Y-98180000D01*
X80329990Y-107419990D02*
X80329990Y-99840010D01*
X86537800Y-109855000D02*
X82765000Y-109855000D01*
X82765000Y-109855000D02*
X82371750Y-109461750D01*
X82754990Y-109844990D02*
X82371750Y-109461750D01*
X82371750Y-109461750D02*
X80329990Y-107419990D01*
X103454591Y-121577491D02*
X102032081Y-123000000D01*
D16*
%TO.N,SCK*%
X109640000Y-109050000D02*
X109490000Y-108900000D01*
X109640000Y-111010000D02*
X109640000Y-109050000D01*
%TO.N,SWCLK*%
X96150000Y-106190000D02*
X94443590Y-106190000D01*
X94443590Y-106190000D02*
X87608591Y-99355001D01*
X86505999Y-99355001D02*
X85330998Y-98180000D01*
X85330998Y-98180000D02*
X84530000Y-98180000D01*
X87608591Y-99355001D02*
X86505999Y-99355001D01*
%TO.N,SWDIO*%
X92994999Y-104104999D02*
X87070000Y-98180000D01*
X99045001Y-104104999D02*
X92994999Y-104104999D01*
X100010000Y-103140000D02*
X99045001Y-104104999D01*
%TD*%
D21*
%TO.N,GND*%
G36*
X152684601Y-96702512D02*
G01*
X152684601Y-101473000D01*
X147332700Y-101473000D01*
X147307924Y-101475440D01*
X147284099Y-101482667D01*
X147262143Y-101494403D01*
X147242897Y-101510197D01*
X147227103Y-101529443D01*
X147215367Y-101551399D01*
X147208140Y-101575224D01*
X147205701Y-101600358D01*
X147218401Y-106108858D01*
X147220911Y-106133627D01*
X147228205Y-106157431D01*
X147240003Y-106179355D01*
X147255851Y-106198555D01*
X147275140Y-106214295D01*
X147297130Y-106225969D01*
X147320974Y-106233129D01*
X147345400Y-106235500D01*
X147762436Y-106235500D01*
X147728432Y-108343700D01*
X147320000Y-108343700D01*
X147295224Y-108346140D01*
X147271399Y-108353367D01*
X147249443Y-108365103D01*
X147230197Y-108380897D01*
X147214403Y-108400143D01*
X147202667Y-108422099D01*
X147195440Y-108445924D01*
X147193001Y-108470324D01*
X147180301Y-112762924D01*
X147182668Y-112787708D01*
X147189824Y-112811553D01*
X147201495Y-112833545D01*
X147217232Y-112852836D01*
X147236430Y-112868687D01*
X147258352Y-112880488D01*
X147282155Y-112887786D01*
X147307023Y-112890300D01*
X152684600Y-112902041D01*
X152684600Y-126048513D01*
X151772330Y-126048012D01*
X151772205Y-126048000D01*
X151749918Y-126048000D01*
X151728043Y-126047988D01*
X151727920Y-126048000D01*
X79202000Y-126048000D01*
X79202000Y-122877685D01*
X89019603Y-122877685D01*
X89019647Y-122893426D01*
X89023687Y-122917992D01*
X89032442Y-122941299D01*
X89045575Y-122962449D01*
X89062583Y-122980631D01*
X89082810Y-122995145D01*
X89105481Y-123005434D01*
X89129724Y-123011103D01*
X91740844Y-123356543D01*
X91758467Y-123357636D01*
X91783224Y-123355007D01*
X91806993Y-123347599D01*
X91828859Y-123335696D01*
X91847984Y-123319756D01*
X91863631Y-123300391D01*
X91875199Y-123278346D01*
X91882245Y-123254467D01*
X91884496Y-123229673D01*
X91881790Y-122874226D01*
X97013000Y-122874226D01*
X97013000Y-123125774D01*
X97062074Y-123372487D01*
X97158337Y-123604886D01*
X97298089Y-123814040D01*
X97475960Y-123991911D01*
X97685114Y-124131663D01*
X97917513Y-124227926D01*
X98164226Y-124277000D01*
X98415774Y-124277000D01*
X98662487Y-124227926D01*
X98894886Y-124131663D01*
X99104040Y-123991911D01*
X99281911Y-123814040D01*
X99421663Y-123604886D01*
X99517926Y-123372487D01*
X99560000Y-123160966D01*
X99602074Y-123372487D01*
X99698337Y-123604886D01*
X99838089Y-123814040D01*
X100015960Y-123991911D01*
X100225114Y-124131663D01*
X100457513Y-124227926D01*
X100704226Y-124277000D01*
X100955774Y-124277000D01*
X101202487Y-124227926D01*
X101434886Y-124131663D01*
X101644040Y-123991911D01*
X101708951Y-123927000D01*
X101986554Y-123927000D01*
X102032081Y-123931484D01*
X102077608Y-123927000D01*
X102077619Y-123927000D01*
X102213805Y-123913587D01*
X102388545Y-123860580D01*
X102444640Y-123830597D01*
X102549586Y-123774502D01*
X102655368Y-123687688D01*
X102690740Y-123658659D01*
X102719769Y-123623287D01*
X104142278Y-122200780D01*
X104142287Y-122200769D01*
X104178356Y-122164699D01*
X105293293Y-121049764D01*
X105328660Y-121020739D01*
X105357685Y-120985372D01*
X105357688Y-120985369D01*
X105444502Y-120879586D01*
X105530580Y-120718545D01*
X105530581Y-120718544D01*
X105565465Y-120603549D01*
X105610340Y-120648424D01*
X105844062Y-120804591D01*
X106103759Y-120912162D01*
X106379453Y-120967000D01*
X106660547Y-120967000D01*
X106936241Y-120912162D01*
X107195938Y-120804591D01*
X107429660Y-120648424D01*
X107628424Y-120449660D01*
X107784591Y-120215938D01*
X107892162Y-119956241D01*
X107947000Y-119680547D01*
X107947000Y-119399453D01*
X111593000Y-119399453D01*
X111593000Y-119680547D01*
X111647838Y-119956241D01*
X111755409Y-120215938D01*
X111911576Y-120449660D01*
X112110340Y-120648424D01*
X112344062Y-120804591D01*
X112603759Y-120912162D01*
X112879453Y-120967000D01*
X113160547Y-120967000D01*
X113436241Y-120912162D01*
X113695938Y-120804591D01*
X113929660Y-120648424D01*
X114128424Y-120449660D01*
X114284591Y-120215938D01*
X114392162Y-119956241D01*
X114447000Y-119680547D01*
X114447000Y-119399453D01*
X114392162Y-119123759D01*
X114284591Y-118864062D01*
X114128424Y-118630340D01*
X113929660Y-118431576D01*
X113695938Y-118275409D01*
X113436241Y-118167838D01*
X113160547Y-118113000D01*
X112879453Y-118113000D01*
X112603759Y-118167838D01*
X112344062Y-118275409D01*
X112110340Y-118431576D01*
X111911576Y-118630340D01*
X111755409Y-118864062D01*
X111647838Y-119123759D01*
X111593000Y-119399453D01*
X107947000Y-119399453D01*
X107892162Y-119123759D01*
X107784591Y-118864062D01*
X107628424Y-118630340D01*
X107429660Y-118431576D01*
X107195938Y-118275409D01*
X106936241Y-118167838D01*
X106660547Y-118113000D01*
X106379453Y-118113000D01*
X106103759Y-118167838D01*
X105844062Y-118275409D01*
X105610340Y-118431576D01*
X105597001Y-118444915D01*
X105597001Y-118413974D01*
X105757688Y-118253287D01*
X105844501Y-118147505D01*
X105930580Y-117986464D01*
X105983586Y-117811724D01*
X106001484Y-117630001D01*
X105983586Y-117448277D01*
X105930580Y-117273537D01*
X105844501Y-117112495D01*
X105728659Y-116971341D01*
X105587505Y-116855499D01*
X105426463Y-116769420D01*
X105251723Y-116716414D01*
X105069999Y-116698516D01*
X104888276Y-116716414D01*
X104713536Y-116769420D01*
X104552495Y-116855499D01*
X104446713Y-116942312D01*
X104046714Y-117342311D01*
X104011342Y-117371340D01*
X103982314Y-117406711D01*
X103982313Y-117406712D01*
X103895500Y-117512494D01*
X103876229Y-117548548D01*
X103809421Y-117673536D01*
X103756414Y-117848276D01*
X103743001Y-117984462D01*
X103743001Y-117984472D01*
X103738517Y-118029999D01*
X103743001Y-118075527D01*
X103743002Y-119978103D01*
X102902749Y-120818356D01*
X102902743Y-120818361D01*
X102873733Y-120847372D01*
X102838353Y-120882752D01*
X102838349Y-120882757D01*
X102831304Y-120889803D01*
X102831303Y-120889803D01*
X101678529Y-122042578D01*
X101644040Y-122008089D01*
X101434886Y-121868337D01*
X101202487Y-121772074D01*
X100955774Y-121723000D01*
X100704226Y-121723000D01*
X100457513Y-121772074D01*
X100225114Y-121868337D01*
X100015960Y-122008089D01*
X99838089Y-122185960D01*
X99698337Y-122395114D01*
X99602074Y-122627513D01*
X99560000Y-122839034D01*
X99517926Y-122627513D01*
X99421663Y-122395114D01*
X99281911Y-122185960D01*
X99104040Y-122008089D01*
X98894886Y-121868337D01*
X98662487Y-121772074D01*
X98415774Y-121723000D01*
X98164226Y-121723000D01*
X97917513Y-121772074D01*
X97685114Y-121868337D01*
X97475960Y-122008089D01*
X97298089Y-122185960D01*
X97158337Y-122395114D01*
X97062074Y-122627513D01*
X97013000Y-122874226D01*
X91881790Y-122874226D01*
X91861636Y-120227393D01*
X91858845Y-120201863D01*
X91851289Y-120178141D01*
X91839251Y-120156349D01*
X91823192Y-120137324D01*
X91803730Y-120121798D01*
X91781614Y-120110366D01*
X91757692Y-120103470D01*
X91732884Y-120101372D01*
X89345284Y-120134392D01*
X89319490Y-120137404D01*
X89273770Y-120147564D01*
X89259748Y-120151537D01*
X89237135Y-120161953D01*
X89216989Y-120176581D01*
X89200084Y-120194857D01*
X89187069Y-120216081D01*
X89178445Y-120239436D01*
X89174543Y-120264025D01*
X89019603Y-122877685D01*
X79202000Y-122877685D01*
X79202000Y-116012065D01*
X95473017Y-116012065D01*
X95533017Y-119702065D01*
X95537510Y-119733544D01*
X95546408Y-119756796D01*
X95559671Y-119777866D01*
X95576789Y-119795943D01*
X95597106Y-119810333D01*
X95619839Y-119820483D01*
X95649839Y-119830483D01*
X95665224Y-119834560D01*
X95690000Y-119837000D01*
X102380000Y-119837000D01*
X102406107Y-119834288D01*
X102429853Y-119826806D01*
X102451683Y-119814836D01*
X102470758Y-119798837D01*
X102486345Y-119779424D01*
X102497846Y-119757343D01*
X102504818Y-119733443D01*
X102506993Y-119708642D01*
X102466993Y-115968642D01*
X102464560Y-115945224D01*
X102457333Y-115921399D01*
X102445597Y-115899443D01*
X102429803Y-115880197D01*
X102410557Y-115864403D01*
X102388601Y-115852667D01*
X102375023Y-115848548D01*
X106633000Y-115848548D01*
X106633000Y-116011452D01*
X106664782Y-116171227D01*
X106727123Y-116321731D01*
X106817628Y-116457181D01*
X106932819Y-116572372D01*
X107068269Y-116662877D01*
X107218773Y-116725218D01*
X107378548Y-116757000D01*
X107541452Y-116757000D01*
X107701227Y-116725218D01*
X107851731Y-116662877D01*
X107987181Y-116572372D01*
X108102372Y-116457181D01*
X108192877Y-116321731D01*
X108255218Y-116171227D01*
X108287000Y-116011452D01*
X108287000Y-115848548D01*
X108273076Y-115778548D01*
X108373000Y-115778548D01*
X108373000Y-115941452D01*
X108404782Y-116101227D01*
X108467123Y-116251731D01*
X108557628Y-116387181D01*
X108672819Y-116502372D01*
X108808269Y-116592877D01*
X108958773Y-116655218D01*
X109118548Y-116687000D01*
X109281452Y-116687000D01*
X109441227Y-116655218D01*
X109591731Y-116592877D01*
X109727181Y-116502372D01*
X109842372Y-116387181D01*
X109932877Y-116251731D01*
X109995218Y-116101227D01*
X110027000Y-115941452D01*
X110027000Y-115778548D01*
X109995218Y-115618773D01*
X109932877Y-115468269D01*
X109842372Y-115332819D01*
X109727181Y-115217628D01*
X109591731Y-115127123D01*
X109441227Y-115064782D01*
X109281452Y-115033000D01*
X109118548Y-115033000D01*
X108958773Y-115064782D01*
X108808269Y-115127123D01*
X108672819Y-115217628D01*
X108557628Y-115332819D01*
X108467123Y-115468269D01*
X108404782Y-115618773D01*
X108373000Y-115778548D01*
X108273076Y-115778548D01*
X108255218Y-115688773D01*
X108192877Y-115538269D01*
X108102372Y-115402819D01*
X107987181Y-115287628D01*
X107851731Y-115197123D01*
X107701227Y-115134782D01*
X107541452Y-115103000D01*
X107378548Y-115103000D01*
X107218773Y-115134782D01*
X107068269Y-115197123D01*
X106932819Y-115287628D01*
X106817628Y-115402819D01*
X106727123Y-115538269D01*
X106664782Y-115688773D01*
X106633000Y-115848548D01*
X102375023Y-115848548D01*
X102364776Y-115845440D01*
X102340000Y-115843000D01*
X100937086Y-115843000D01*
X102031805Y-114697755D01*
X102041465Y-114686379D01*
X102054417Y-114665117D01*
X102062971Y-114641736D01*
X102066799Y-114617136D01*
X102196799Y-112307136D01*
X102196603Y-112289972D01*
X102192214Y-112265466D01*
X102183129Y-112242286D01*
X102169696Y-112221325D01*
X102152431Y-112203387D01*
X102131999Y-112189162D01*
X102109184Y-112179196D01*
X102084864Y-112173873D01*
X102059972Y-112173397D01*
X101049972Y-112253397D01*
X101014223Y-112261537D01*
X100991991Y-112272744D01*
X100972374Y-112288073D01*
X100956123Y-112306934D01*
X100943865Y-112328604D01*
X100936069Y-112352248D01*
X100933036Y-112376959D01*
X100894505Y-113985644D01*
X100076824Y-114603447D01*
X97268663Y-114633007D01*
X97238599Y-114636943D01*
X97215195Y-114645434D01*
X97193897Y-114658327D01*
X95523897Y-115908327D01*
X95508749Y-115921669D01*
X95493270Y-115941169D01*
X95481893Y-115963313D01*
X95475054Y-115987252D01*
X95473017Y-116012065D01*
X79202000Y-116012065D01*
X79202000Y-99840010D01*
X79398506Y-99840010D01*
X79402991Y-99885547D01*
X79402990Y-107374463D01*
X79398506Y-107419990D01*
X79402990Y-107465517D01*
X79402990Y-107465527D01*
X79416403Y-107601713D01*
X79469410Y-107776453D01*
X79555489Y-107937495D01*
X79642302Y-108043277D01*
X79671331Y-108078649D01*
X79706703Y-108107678D01*
X81717024Y-110118000D01*
X81508235Y-110118000D01*
X81368375Y-110131775D01*
X81188923Y-110186211D01*
X81023538Y-110274611D01*
X80878577Y-110393577D01*
X80759611Y-110538538D01*
X80671211Y-110703923D01*
X80616775Y-110883375D01*
X80598394Y-111070000D01*
X80616775Y-111256625D01*
X80671211Y-111436077D01*
X80759611Y-111601462D01*
X80878577Y-111746423D01*
X81023538Y-111865389D01*
X81188923Y-111953789D01*
X81368375Y-112008225D01*
X81508235Y-112022000D01*
X82451765Y-112022000D01*
X82591625Y-112008225D01*
X82771077Y-111953789D01*
X82936462Y-111865389D01*
X83081423Y-111746423D01*
X83200389Y-111601462D01*
X83288789Y-111436077D01*
X83343225Y-111256625D01*
X83361606Y-111070000D01*
X83343225Y-110883375D01*
X83312473Y-110782000D01*
X86583338Y-110782000D01*
X86719524Y-110768587D01*
X86894264Y-110715580D01*
X87055305Y-110629501D01*
X87196459Y-110513659D01*
X87312301Y-110372505D01*
X87398380Y-110211464D01*
X87451387Y-110036724D01*
X87469285Y-109855000D01*
X87451387Y-109673276D01*
X87398380Y-109498536D01*
X87312301Y-109337495D01*
X87196459Y-109196341D01*
X87055305Y-109080499D01*
X86894264Y-108994420D01*
X86719524Y-108941413D01*
X86583338Y-108928000D01*
X83148975Y-108928000D01*
X83059443Y-108838468D01*
X83059438Y-108838462D01*
X81256990Y-107036015D01*
X81256990Y-104824437D01*
X81368375Y-104858225D01*
X81508235Y-104872000D01*
X82451765Y-104872000D01*
X82591625Y-104858225D01*
X82771077Y-104803789D01*
X82936462Y-104715389D01*
X83081423Y-104596423D01*
X83200389Y-104451462D01*
X83288789Y-104286077D01*
X83343225Y-104106625D01*
X83361606Y-103920000D01*
X83343225Y-103733375D01*
X83288789Y-103553923D01*
X83200389Y-103388538D01*
X83081423Y-103243577D01*
X82936462Y-103124611D01*
X82771077Y-103036211D01*
X82591625Y-102981775D01*
X82451765Y-102968000D01*
X81508235Y-102968000D01*
X81368375Y-102981775D01*
X81256990Y-103015563D01*
X81256990Y-100223985D01*
X82021910Y-99459066D01*
X82840000Y-99459066D01*
X82923707Y-99450822D01*
X83004196Y-99426405D01*
X83078376Y-99386755D01*
X83143395Y-99333395D01*
X83196755Y-99268376D01*
X83236405Y-99194196D01*
X83260822Y-99113707D01*
X83269066Y-99030000D01*
X83269066Y-98386544D01*
X83302074Y-98552487D01*
X83398337Y-98784886D01*
X83538089Y-98994040D01*
X83715960Y-99171911D01*
X83925114Y-99311663D01*
X84157513Y-99407926D01*
X84404226Y-99457000D01*
X84655774Y-99457000D01*
X84902487Y-99407926D01*
X85134886Y-99311663D01*
X85344040Y-99171911D01*
X85443152Y-99072799D01*
X86096506Y-99726154D01*
X86113788Y-99747212D01*
X86134844Y-99764492D01*
X86197840Y-99816192D01*
X86242401Y-99840010D01*
X86293736Y-99867449D01*
X86397788Y-99899013D01*
X86478890Y-99907001D01*
X86478900Y-99907001D01*
X86505998Y-99909670D01*
X86533096Y-99907001D01*
X87379947Y-99907001D01*
X94034098Y-106561154D01*
X94051379Y-106582211D01*
X94072435Y-106599491D01*
X94135431Y-106651191D01*
X94186688Y-106678588D01*
X94231327Y-106702448D01*
X94335379Y-106734012D01*
X94416481Y-106742000D01*
X94416491Y-106742000D01*
X94443589Y-106744669D01*
X94470687Y-106742000D01*
X95532447Y-106742000D01*
X95622819Y-106832372D01*
X95758269Y-106922877D01*
X95908773Y-106985218D01*
X96068548Y-107017000D01*
X96231452Y-107017000D01*
X96323002Y-106998789D01*
X96323001Y-109176023D01*
X96013540Y-109485485D01*
X95904581Y-109543725D01*
X95793092Y-109635221D01*
X93625221Y-111803093D01*
X93533725Y-111914582D01*
X93443003Y-112084310D01*
X93387137Y-112268475D01*
X93368273Y-112460000D01*
X93387137Y-112651525D01*
X93443003Y-112835690D01*
X93533725Y-113005418D01*
X93655815Y-113154185D01*
X93804582Y-113276275D01*
X93974310Y-113366997D01*
X94158475Y-113422863D01*
X94350000Y-113441727D01*
X94541525Y-113422863D01*
X94725690Y-113366997D01*
X94895418Y-113276275D01*
X95006907Y-113184779D01*
X96126886Y-112064800D01*
X113182400Y-112064800D01*
X113182400Y-115087400D01*
X113184696Y-115111442D01*
X113191783Y-115135308D01*
X113203389Y-115157334D01*
X113219070Y-115176672D01*
X113238221Y-115192579D01*
X113260109Y-115204444D01*
X113283890Y-115211812D01*
X113308651Y-115214398D01*
X119772951Y-115252498D01*
X119799011Y-115249952D01*
X119822804Y-115242623D01*
X119844710Y-115230793D01*
X119863887Y-115214916D01*
X119879598Y-115195604D01*
X119891240Y-115173597D01*
X119898365Y-115149742D01*
X119900699Y-115124955D01*
X119887999Y-112165855D01*
X119886149Y-112144797D01*
X119879530Y-112120797D01*
X119868356Y-112098549D01*
X119853056Y-112078909D01*
X119834218Y-112062631D01*
X119812567Y-112050340D01*
X119788934Y-112042510D01*
X119764228Y-112039441D01*
X118381283Y-112004281D01*
X118287509Y-110621110D01*
X118279793Y-110585318D01*
X118268848Y-110562956D01*
X118253751Y-110543160D01*
X118235081Y-110526689D01*
X118213558Y-110514177D01*
X118190006Y-110506104D01*
X118165333Y-110502781D01*
X116505867Y-110443514D01*
X116471633Y-109393661D01*
X116469833Y-109376106D01*
X116463197Y-109352110D01*
X116452006Y-109329871D01*
X116436692Y-109310241D01*
X116417842Y-109293977D01*
X116396182Y-109281703D01*
X116372544Y-109273890D01*
X116347835Y-109270839D01*
X115319135Y-109245439D01*
X115291224Y-109247840D01*
X115267399Y-109255067D01*
X115245443Y-109266803D01*
X115226197Y-109282597D01*
X115210403Y-109301843D01*
X115198667Y-109323799D01*
X115191440Y-109347624D01*
X115189000Y-109372400D01*
X115189000Y-109448600D01*
X115189051Y-109452193D01*
X115223455Y-110667800D01*
X114960400Y-110667800D01*
X114940672Y-110669342D01*
X114916576Y-110675601D01*
X114894163Y-110686441D01*
X114874296Y-110701445D01*
X114857738Y-110720037D01*
X114845125Y-110741502D01*
X114836942Y-110765015D01*
X114833504Y-110789673D01*
X114787589Y-111926064D01*
X113308392Y-111937804D01*
X113284624Y-111940240D01*
X113260799Y-111947467D01*
X113238843Y-111959203D01*
X113219597Y-111974997D01*
X113203803Y-111994243D01*
X113192067Y-112016199D01*
X113184840Y-112040024D01*
X113182400Y-112064800D01*
X96126886Y-112064800D01*
X97174779Y-111016908D01*
X97266275Y-110905419D01*
X97324515Y-110796460D01*
X97873294Y-110247682D01*
X97908660Y-110218658D01*
X97937685Y-110183291D01*
X97937689Y-110183287D01*
X98024502Y-110077505D01*
X98077018Y-109979255D01*
X98110581Y-109916463D01*
X98163588Y-109741723D01*
X98177001Y-109605537D01*
X98177001Y-109605527D01*
X98181485Y-109560000D01*
X98177001Y-109514473D01*
X98177001Y-108818548D01*
X108663000Y-108818548D01*
X108663000Y-108981452D01*
X108694782Y-109141227D01*
X108757123Y-109291731D01*
X108847628Y-109427181D01*
X108962819Y-109542372D01*
X109088001Y-109626016D01*
X109088000Y-110392447D01*
X108997628Y-110482819D01*
X108907123Y-110618269D01*
X108844782Y-110768773D01*
X108813000Y-110928548D01*
X108813000Y-111091452D01*
X108844782Y-111251227D01*
X108907123Y-111401731D01*
X108997628Y-111537181D01*
X109112819Y-111652372D01*
X109248269Y-111742877D01*
X109398773Y-111805218D01*
X109558548Y-111837000D01*
X109721452Y-111837000D01*
X109881227Y-111805218D01*
X110031731Y-111742877D01*
X110167181Y-111652372D01*
X110282372Y-111537181D01*
X110372877Y-111401731D01*
X110435218Y-111251227D01*
X110467000Y-111091452D01*
X110467000Y-110928548D01*
X110435218Y-110768773D01*
X110372877Y-110618269D01*
X110282372Y-110482819D01*
X110192000Y-110392447D01*
X110192000Y-109337942D01*
X110222877Y-109291731D01*
X110285218Y-109141227D01*
X110317000Y-108981452D01*
X110317000Y-108818548D01*
X110285218Y-108658773D01*
X110222877Y-108508269D01*
X110132372Y-108372819D01*
X110017181Y-108257628D01*
X109881731Y-108167123D01*
X109731227Y-108104782D01*
X109571452Y-108073000D01*
X109408548Y-108073000D01*
X109248773Y-108104782D01*
X109098269Y-108167123D01*
X108962819Y-108257628D01*
X108847628Y-108372819D01*
X108757123Y-108508269D01*
X108694782Y-108658773D01*
X108663000Y-108818548D01*
X98177001Y-108818548D01*
X98177001Y-105857009D01*
X104274464Y-105857009D01*
X104319991Y-105861493D01*
X104365518Y-105857009D01*
X104365529Y-105857009D01*
X104501715Y-105843596D01*
X104676455Y-105790589D01*
X104837496Y-105704510D01*
X104978650Y-105588668D01*
X105007679Y-105553296D01*
X106164645Y-104396331D01*
X106685221Y-104916908D01*
X106715815Y-104954187D01*
X106864583Y-105076277D01*
X107034310Y-105166998D01*
X107126393Y-105194931D01*
X107218475Y-105222864D01*
X107410001Y-105241728D01*
X107457994Y-105237001D01*
X110822006Y-105237001D01*
X110869999Y-105241728D01*
X111061524Y-105222864D01*
X111065259Y-105221731D01*
X111245690Y-105166998D01*
X111415417Y-105076277D01*
X111564185Y-104954187D01*
X111594783Y-104916903D01*
X112644779Y-103866907D01*
X112736275Y-103755419D01*
X112826997Y-103585690D01*
X112882863Y-103401526D01*
X112901727Y-103210000D01*
X112882863Y-103018475D01*
X112826997Y-102834310D01*
X112736275Y-102664582D01*
X112614186Y-102515814D01*
X112465418Y-102393725D01*
X112295690Y-102303003D01*
X112111525Y-102247137D01*
X111920000Y-102228273D01*
X111728474Y-102247137D01*
X111544310Y-102303003D01*
X111374581Y-102393725D01*
X111263093Y-102485221D01*
X110465313Y-103283001D01*
X107814688Y-103283001D01*
X106856907Y-102325221D01*
X106745418Y-102233725D01*
X106575690Y-102143003D01*
X106391525Y-102087137D01*
X106200000Y-102068273D01*
X106008475Y-102087137D01*
X105824310Y-102143003D01*
X105654582Y-102233725D01*
X105505815Y-102355815D01*
X105383725Y-102504582D01*
X105325487Y-102613537D01*
X103936016Y-104003009D01*
X99927636Y-104003009D01*
X99963645Y-103967000D01*
X100091452Y-103967000D01*
X100251227Y-103935218D01*
X100401731Y-103872877D01*
X100537181Y-103782372D01*
X100652372Y-103667181D01*
X100742877Y-103531731D01*
X100805218Y-103381227D01*
X100837000Y-103221452D01*
X100837000Y-103058548D01*
X100805218Y-102898773D01*
X100742877Y-102748269D01*
X100652372Y-102612819D01*
X100537181Y-102497628D01*
X100401731Y-102407123D01*
X100251227Y-102344782D01*
X100091452Y-102313000D01*
X99928548Y-102313000D01*
X99768773Y-102344782D01*
X99618269Y-102407123D01*
X99482819Y-102497628D01*
X99367628Y-102612819D01*
X99277123Y-102748269D01*
X99214782Y-102898773D01*
X99183000Y-103058548D01*
X99183000Y-103186355D01*
X98816357Y-103552999D01*
X93223644Y-103552999D01*
X88276019Y-98605375D01*
X88297926Y-98552487D01*
X88347000Y-98305774D01*
X88347000Y-98054226D01*
X88297926Y-97807513D01*
X88201663Y-97575114D01*
X88061911Y-97365960D01*
X88035951Y-97340000D01*
X91930934Y-97340000D01*
X91930934Y-99040000D01*
X91939178Y-99123707D01*
X91963595Y-99204196D01*
X92003245Y-99278376D01*
X92056605Y-99343395D01*
X92121624Y-99396755D01*
X92195804Y-99436405D01*
X92276293Y-99460822D01*
X92360000Y-99469066D01*
X94060000Y-99469066D01*
X94143707Y-99460822D01*
X94224196Y-99436405D01*
X94298376Y-99396755D01*
X94363395Y-99343395D01*
X94416755Y-99278376D01*
X94456405Y-99204196D01*
X94480822Y-99123707D01*
X94489066Y-99040000D01*
X94489066Y-98396544D01*
X94522074Y-98562487D01*
X94618337Y-98794886D01*
X94758089Y-99004040D01*
X94935960Y-99181911D01*
X95145114Y-99321663D01*
X95377513Y-99417926D01*
X95624226Y-99467000D01*
X95875774Y-99467000D01*
X96122487Y-99417926D01*
X96354886Y-99321663D01*
X96564040Y-99181911D01*
X96741911Y-99004040D01*
X96881663Y-98794886D01*
X96977926Y-98562487D01*
X97020000Y-98350966D01*
X97062074Y-98562487D01*
X97158337Y-98794886D01*
X97298089Y-99004040D01*
X97475960Y-99181911D01*
X97685114Y-99321663D01*
X97917513Y-99417926D01*
X98164226Y-99467000D01*
X98415774Y-99467000D01*
X98662487Y-99417926D01*
X98894886Y-99321663D01*
X99104040Y-99181911D01*
X99281911Y-99004040D01*
X99421663Y-98794886D01*
X99517926Y-98562487D01*
X99560000Y-98350966D01*
X99602074Y-98562487D01*
X99698337Y-98794886D01*
X99838089Y-99004040D01*
X100015960Y-99181911D01*
X100225114Y-99321663D01*
X100457513Y-99417926D01*
X100704226Y-99467000D01*
X100955774Y-99467000D01*
X101202487Y-99417926D01*
X101434886Y-99321663D01*
X101644040Y-99181911D01*
X101821911Y-99004040D01*
X101961663Y-98794886D01*
X102057926Y-98562487D01*
X102100000Y-98350966D01*
X102142074Y-98562487D01*
X102238337Y-98794886D01*
X102378089Y-99004040D01*
X102555960Y-99181911D01*
X102765114Y-99321663D01*
X102997513Y-99417926D01*
X103244226Y-99467000D01*
X103495774Y-99467000D01*
X103742487Y-99417926D01*
X103974886Y-99321663D01*
X104184040Y-99181911D01*
X104361911Y-99004040D01*
X104501663Y-98794886D01*
X104597926Y-98562487D01*
X104640000Y-98350966D01*
X104682074Y-98562487D01*
X104778337Y-98794886D01*
X104918089Y-99004040D01*
X105095960Y-99181911D01*
X105305114Y-99321663D01*
X105537513Y-99417926D01*
X105784226Y-99467000D01*
X106035774Y-99467000D01*
X106282487Y-99417926D01*
X106514886Y-99321663D01*
X106724040Y-99181911D01*
X106901911Y-99004040D01*
X107041663Y-98794886D01*
X107137926Y-98562487D01*
X107180000Y-98350966D01*
X107222074Y-98562487D01*
X107318337Y-98794886D01*
X107458089Y-99004040D01*
X107635960Y-99181911D01*
X107845114Y-99321663D01*
X108077513Y-99417926D01*
X108324226Y-99467000D01*
X108575774Y-99467000D01*
X108822487Y-99417926D01*
X109054886Y-99321663D01*
X109264040Y-99181911D01*
X109441911Y-99004040D01*
X109581663Y-98794886D01*
X109677926Y-98562487D01*
X109720000Y-98350966D01*
X109762074Y-98562487D01*
X109858337Y-98794886D01*
X109998089Y-99004040D01*
X110175960Y-99181911D01*
X110385114Y-99321663D01*
X110617513Y-99417926D01*
X110864226Y-99467000D01*
X111115774Y-99467000D01*
X111362487Y-99417926D01*
X111594886Y-99321663D01*
X111804040Y-99181911D01*
X111981911Y-99004040D01*
X112121663Y-98794886D01*
X112217926Y-98562487D01*
X112260000Y-98350966D01*
X112302074Y-98562487D01*
X112398337Y-98794886D01*
X112538089Y-99004040D01*
X112715960Y-99181911D01*
X112925114Y-99321663D01*
X113157513Y-99417926D01*
X113404226Y-99467000D01*
X113655774Y-99467000D01*
X113902487Y-99417926D01*
X114134886Y-99321663D01*
X114344040Y-99181911D01*
X114521911Y-99004040D01*
X114661663Y-98794886D01*
X114757926Y-98562487D01*
X114800000Y-98350966D01*
X114842074Y-98562487D01*
X114938337Y-98794886D01*
X115078089Y-99004040D01*
X115255960Y-99181911D01*
X115465114Y-99321663D01*
X115697513Y-99417926D01*
X115944226Y-99467000D01*
X116195774Y-99467000D01*
X116442487Y-99417926D01*
X116674886Y-99321663D01*
X116884040Y-99181911D01*
X117061911Y-99004040D01*
X117201663Y-98794886D01*
X117297926Y-98562487D01*
X117347000Y-98315774D01*
X117347000Y-98064226D01*
X117297926Y-97817513D01*
X117201663Y-97585114D01*
X117061911Y-97375960D01*
X116884040Y-97198089D01*
X116674886Y-97058337D01*
X116442487Y-96962074D01*
X116195774Y-96913000D01*
X115944226Y-96913000D01*
X115697513Y-96962074D01*
X115465114Y-97058337D01*
X115255960Y-97198089D01*
X115078089Y-97375960D01*
X114938337Y-97585114D01*
X114842074Y-97817513D01*
X114800000Y-98029034D01*
X114757926Y-97817513D01*
X114661663Y-97585114D01*
X114521911Y-97375960D01*
X114344040Y-97198089D01*
X114134886Y-97058337D01*
X113902487Y-96962074D01*
X113655774Y-96913000D01*
X113404226Y-96913000D01*
X113157513Y-96962074D01*
X112925114Y-97058337D01*
X112715960Y-97198089D01*
X112538089Y-97375960D01*
X112398337Y-97585114D01*
X112302074Y-97817513D01*
X112260000Y-98029034D01*
X112217926Y-97817513D01*
X112121663Y-97585114D01*
X111981911Y-97375960D01*
X111804040Y-97198089D01*
X111594886Y-97058337D01*
X111362487Y-96962074D01*
X111115774Y-96913000D01*
X110864226Y-96913000D01*
X110617513Y-96962074D01*
X110385114Y-97058337D01*
X110175960Y-97198089D01*
X109998089Y-97375960D01*
X109858337Y-97585114D01*
X109762074Y-97817513D01*
X109720000Y-98029034D01*
X109677926Y-97817513D01*
X109581663Y-97585114D01*
X109441911Y-97375960D01*
X109264040Y-97198089D01*
X109054886Y-97058337D01*
X108822487Y-96962074D01*
X108575774Y-96913000D01*
X108324226Y-96913000D01*
X108077513Y-96962074D01*
X107845114Y-97058337D01*
X107635960Y-97198089D01*
X107458089Y-97375960D01*
X107318337Y-97585114D01*
X107222074Y-97817513D01*
X107180000Y-98029034D01*
X107137926Y-97817513D01*
X107041663Y-97585114D01*
X106901911Y-97375960D01*
X106724040Y-97198089D01*
X106514886Y-97058337D01*
X106282487Y-96962074D01*
X106035774Y-96913000D01*
X105784226Y-96913000D01*
X105537513Y-96962074D01*
X105305114Y-97058337D01*
X105095960Y-97198089D01*
X104918089Y-97375960D01*
X104778337Y-97585114D01*
X104682074Y-97817513D01*
X104640000Y-98029034D01*
X104597926Y-97817513D01*
X104501663Y-97585114D01*
X104361911Y-97375960D01*
X104184040Y-97198089D01*
X103974886Y-97058337D01*
X103742487Y-96962074D01*
X103495774Y-96913000D01*
X103244226Y-96913000D01*
X102997513Y-96962074D01*
X102765114Y-97058337D01*
X102555960Y-97198089D01*
X102378089Y-97375960D01*
X102238337Y-97585114D01*
X102142074Y-97817513D01*
X102100000Y-98029034D01*
X102057926Y-97817513D01*
X101961663Y-97585114D01*
X101821911Y-97375960D01*
X101644040Y-97198089D01*
X101434886Y-97058337D01*
X101202487Y-96962074D01*
X100955774Y-96913000D01*
X100704226Y-96913000D01*
X100457513Y-96962074D01*
X100225114Y-97058337D01*
X100015960Y-97198089D01*
X99838089Y-97375960D01*
X99698337Y-97585114D01*
X99602074Y-97817513D01*
X99560000Y-98029034D01*
X99517926Y-97817513D01*
X99421663Y-97585114D01*
X99281911Y-97375960D01*
X99104040Y-97198089D01*
X98894886Y-97058337D01*
X98662487Y-96962074D01*
X98415774Y-96913000D01*
X98164226Y-96913000D01*
X97917513Y-96962074D01*
X97685114Y-97058337D01*
X97475960Y-97198089D01*
X97298089Y-97375960D01*
X97158337Y-97585114D01*
X97062074Y-97817513D01*
X97020000Y-98029034D01*
X96977926Y-97817513D01*
X96881663Y-97585114D01*
X96741911Y-97375960D01*
X96564040Y-97198089D01*
X96354886Y-97058337D01*
X96122487Y-96962074D01*
X95875774Y-96913000D01*
X95624226Y-96913000D01*
X95377513Y-96962074D01*
X95145114Y-97058337D01*
X94935960Y-97198089D01*
X94758089Y-97375960D01*
X94618337Y-97585114D01*
X94522074Y-97817513D01*
X94489066Y-97983456D01*
X94489066Y-97340000D01*
X94480822Y-97256293D01*
X94456405Y-97175804D01*
X94416755Y-97101624D01*
X94363395Y-97036605D01*
X94298376Y-96983245D01*
X94224196Y-96943595D01*
X94143707Y-96919178D01*
X94060000Y-96910934D01*
X92360000Y-96910934D01*
X92276293Y-96919178D01*
X92195804Y-96943595D01*
X92121624Y-96983245D01*
X92056605Y-97036605D01*
X92003245Y-97101624D01*
X91963595Y-97175804D01*
X91939178Y-97256293D01*
X91930934Y-97340000D01*
X88035951Y-97340000D01*
X87884040Y-97188089D01*
X87674886Y-97048337D01*
X87442487Y-96952074D01*
X87195774Y-96903000D01*
X86944226Y-96903000D01*
X86697513Y-96952074D01*
X86465114Y-97048337D01*
X86255960Y-97188089D01*
X86078089Y-97365960D01*
X85938337Y-97575114D01*
X85842074Y-97807513D01*
X85824999Y-97893357D01*
X85762587Y-97830945D01*
X85757926Y-97807513D01*
X85661663Y-97575114D01*
X85521911Y-97365960D01*
X85344040Y-97188089D01*
X85134886Y-97048337D01*
X84902487Y-96952074D01*
X84655774Y-96903000D01*
X84404226Y-96903000D01*
X84157513Y-96952074D01*
X83925114Y-97048337D01*
X83715960Y-97188089D01*
X83538089Y-97365960D01*
X83398337Y-97575114D01*
X83302074Y-97807513D01*
X83269066Y-97973456D01*
X83269066Y-97330000D01*
X83260822Y-97246293D01*
X83236405Y-97165804D01*
X83196755Y-97091624D01*
X83143395Y-97026605D01*
X83078376Y-96973245D01*
X83004196Y-96933595D01*
X82923707Y-96909178D01*
X82840000Y-96900934D01*
X81140000Y-96900934D01*
X81056293Y-96909178D01*
X80975804Y-96933595D01*
X80901624Y-96973245D01*
X80836605Y-97026605D01*
X80783245Y-97091624D01*
X80743595Y-97165804D01*
X80719178Y-97246293D01*
X80710934Y-97330000D01*
X80710934Y-98148090D01*
X79706698Y-99152327D01*
X79671332Y-99181351D01*
X79642307Y-99216718D01*
X79642302Y-99216723D01*
X79555489Y-99322505D01*
X79469410Y-99483547D01*
X79416404Y-99658287D01*
X79398506Y-99840010D01*
X79202000Y-99840010D01*
X79202000Y-96702000D01*
X151751246Y-96702000D01*
X152684601Y-96702512D01*
G37*
X152684601Y-96702512D02*
X152684601Y-101473000D01*
X147332700Y-101473000D01*
X147307924Y-101475440D01*
X147284099Y-101482667D01*
X147262143Y-101494403D01*
X147242897Y-101510197D01*
X147227103Y-101529443D01*
X147215367Y-101551399D01*
X147208140Y-101575224D01*
X147205701Y-101600358D01*
X147218401Y-106108858D01*
X147220911Y-106133627D01*
X147228205Y-106157431D01*
X147240003Y-106179355D01*
X147255851Y-106198555D01*
X147275140Y-106214295D01*
X147297130Y-106225969D01*
X147320974Y-106233129D01*
X147345400Y-106235500D01*
X147762436Y-106235500D01*
X147728432Y-108343700D01*
X147320000Y-108343700D01*
X147295224Y-108346140D01*
X147271399Y-108353367D01*
X147249443Y-108365103D01*
X147230197Y-108380897D01*
X147214403Y-108400143D01*
X147202667Y-108422099D01*
X147195440Y-108445924D01*
X147193001Y-108470324D01*
X147180301Y-112762924D01*
X147182668Y-112787708D01*
X147189824Y-112811553D01*
X147201495Y-112833545D01*
X147217232Y-112852836D01*
X147236430Y-112868687D01*
X147258352Y-112880488D01*
X147282155Y-112887786D01*
X147307023Y-112890300D01*
X152684600Y-112902041D01*
X152684600Y-126048513D01*
X151772330Y-126048012D01*
X151772205Y-126048000D01*
X151749918Y-126048000D01*
X151728043Y-126047988D01*
X151727920Y-126048000D01*
X79202000Y-126048000D01*
X79202000Y-122877685D01*
X89019603Y-122877685D01*
X89019647Y-122893426D01*
X89023687Y-122917992D01*
X89032442Y-122941299D01*
X89045575Y-122962449D01*
X89062583Y-122980631D01*
X89082810Y-122995145D01*
X89105481Y-123005434D01*
X89129724Y-123011103D01*
X91740844Y-123356543D01*
X91758467Y-123357636D01*
X91783224Y-123355007D01*
X91806993Y-123347599D01*
X91828859Y-123335696D01*
X91847984Y-123319756D01*
X91863631Y-123300391D01*
X91875199Y-123278346D01*
X91882245Y-123254467D01*
X91884496Y-123229673D01*
X91881790Y-122874226D01*
X97013000Y-122874226D01*
X97013000Y-123125774D01*
X97062074Y-123372487D01*
X97158337Y-123604886D01*
X97298089Y-123814040D01*
X97475960Y-123991911D01*
X97685114Y-124131663D01*
X97917513Y-124227926D01*
X98164226Y-124277000D01*
X98415774Y-124277000D01*
X98662487Y-124227926D01*
X98894886Y-124131663D01*
X99104040Y-123991911D01*
X99281911Y-123814040D01*
X99421663Y-123604886D01*
X99517926Y-123372487D01*
X99560000Y-123160966D01*
X99602074Y-123372487D01*
X99698337Y-123604886D01*
X99838089Y-123814040D01*
X100015960Y-123991911D01*
X100225114Y-124131663D01*
X100457513Y-124227926D01*
X100704226Y-124277000D01*
X100955774Y-124277000D01*
X101202487Y-124227926D01*
X101434886Y-124131663D01*
X101644040Y-123991911D01*
X101708951Y-123927000D01*
X101986554Y-123927000D01*
X102032081Y-123931484D01*
X102077608Y-123927000D01*
X102077619Y-123927000D01*
X102213805Y-123913587D01*
X102388545Y-123860580D01*
X102444640Y-123830597D01*
X102549586Y-123774502D01*
X102655368Y-123687688D01*
X102690740Y-123658659D01*
X102719769Y-123623287D01*
X104142278Y-122200780D01*
X104142287Y-122200769D01*
X104178356Y-122164699D01*
X105293293Y-121049764D01*
X105328660Y-121020739D01*
X105357685Y-120985372D01*
X105357688Y-120985369D01*
X105444502Y-120879586D01*
X105530580Y-120718545D01*
X105530581Y-120718544D01*
X105565465Y-120603549D01*
X105610340Y-120648424D01*
X105844062Y-120804591D01*
X106103759Y-120912162D01*
X106379453Y-120967000D01*
X106660547Y-120967000D01*
X106936241Y-120912162D01*
X107195938Y-120804591D01*
X107429660Y-120648424D01*
X107628424Y-120449660D01*
X107784591Y-120215938D01*
X107892162Y-119956241D01*
X107947000Y-119680547D01*
X107947000Y-119399453D01*
X111593000Y-119399453D01*
X111593000Y-119680547D01*
X111647838Y-119956241D01*
X111755409Y-120215938D01*
X111911576Y-120449660D01*
X112110340Y-120648424D01*
X112344062Y-120804591D01*
X112603759Y-120912162D01*
X112879453Y-120967000D01*
X113160547Y-120967000D01*
X113436241Y-120912162D01*
X113695938Y-120804591D01*
X113929660Y-120648424D01*
X114128424Y-120449660D01*
X114284591Y-120215938D01*
X114392162Y-119956241D01*
X114447000Y-119680547D01*
X114447000Y-119399453D01*
X114392162Y-119123759D01*
X114284591Y-118864062D01*
X114128424Y-118630340D01*
X113929660Y-118431576D01*
X113695938Y-118275409D01*
X113436241Y-118167838D01*
X113160547Y-118113000D01*
X112879453Y-118113000D01*
X112603759Y-118167838D01*
X112344062Y-118275409D01*
X112110340Y-118431576D01*
X111911576Y-118630340D01*
X111755409Y-118864062D01*
X111647838Y-119123759D01*
X111593000Y-119399453D01*
X107947000Y-119399453D01*
X107892162Y-119123759D01*
X107784591Y-118864062D01*
X107628424Y-118630340D01*
X107429660Y-118431576D01*
X107195938Y-118275409D01*
X106936241Y-118167838D01*
X106660547Y-118113000D01*
X106379453Y-118113000D01*
X106103759Y-118167838D01*
X105844062Y-118275409D01*
X105610340Y-118431576D01*
X105597001Y-118444915D01*
X105597001Y-118413974D01*
X105757688Y-118253287D01*
X105844501Y-118147505D01*
X105930580Y-117986464D01*
X105983586Y-117811724D01*
X106001484Y-117630001D01*
X105983586Y-117448277D01*
X105930580Y-117273537D01*
X105844501Y-117112495D01*
X105728659Y-116971341D01*
X105587505Y-116855499D01*
X105426463Y-116769420D01*
X105251723Y-116716414D01*
X105069999Y-116698516D01*
X104888276Y-116716414D01*
X104713536Y-116769420D01*
X104552495Y-116855499D01*
X104446713Y-116942312D01*
X104046714Y-117342311D01*
X104011342Y-117371340D01*
X103982314Y-117406711D01*
X103982313Y-117406712D01*
X103895500Y-117512494D01*
X103876229Y-117548548D01*
X103809421Y-117673536D01*
X103756414Y-117848276D01*
X103743001Y-117984462D01*
X103743001Y-117984472D01*
X103738517Y-118029999D01*
X103743001Y-118075527D01*
X103743002Y-119978103D01*
X102902749Y-120818356D01*
X102902743Y-120818361D01*
X102873733Y-120847372D01*
X102838353Y-120882752D01*
X102838349Y-120882757D01*
X102831304Y-120889803D01*
X102831303Y-120889803D01*
X101678529Y-122042578D01*
X101644040Y-122008089D01*
X101434886Y-121868337D01*
X101202487Y-121772074D01*
X100955774Y-121723000D01*
X100704226Y-121723000D01*
X100457513Y-121772074D01*
X100225114Y-121868337D01*
X100015960Y-122008089D01*
X99838089Y-122185960D01*
X99698337Y-122395114D01*
X99602074Y-122627513D01*
X99560000Y-122839034D01*
X99517926Y-122627513D01*
X99421663Y-122395114D01*
X99281911Y-122185960D01*
X99104040Y-122008089D01*
X98894886Y-121868337D01*
X98662487Y-121772074D01*
X98415774Y-121723000D01*
X98164226Y-121723000D01*
X97917513Y-121772074D01*
X97685114Y-121868337D01*
X97475960Y-122008089D01*
X97298089Y-122185960D01*
X97158337Y-122395114D01*
X97062074Y-122627513D01*
X97013000Y-122874226D01*
X91881790Y-122874226D01*
X91861636Y-120227393D01*
X91858845Y-120201863D01*
X91851289Y-120178141D01*
X91839251Y-120156349D01*
X91823192Y-120137324D01*
X91803730Y-120121798D01*
X91781614Y-120110366D01*
X91757692Y-120103470D01*
X91732884Y-120101372D01*
X89345284Y-120134392D01*
X89319490Y-120137404D01*
X89273770Y-120147564D01*
X89259748Y-120151537D01*
X89237135Y-120161953D01*
X89216989Y-120176581D01*
X89200084Y-120194857D01*
X89187069Y-120216081D01*
X89178445Y-120239436D01*
X89174543Y-120264025D01*
X89019603Y-122877685D01*
X79202000Y-122877685D01*
X79202000Y-116012065D01*
X95473017Y-116012065D01*
X95533017Y-119702065D01*
X95537510Y-119733544D01*
X95546408Y-119756796D01*
X95559671Y-119777866D01*
X95576789Y-119795943D01*
X95597106Y-119810333D01*
X95619839Y-119820483D01*
X95649839Y-119830483D01*
X95665224Y-119834560D01*
X95690000Y-119837000D01*
X102380000Y-119837000D01*
X102406107Y-119834288D01*
X102429853Y-119826806D01*
X102451683Y-119814836D01*
X102470758Y-119798837D01*
X102486345Y-119779424D01*
X102497846Y-119757343D01*
X102504818Y-119733443D01*
X102506993Y-119708642D01*
X102466993Y-115968642D01*
X102464560Y-115945224D01*
X102457333Y-115921399D01*
X102445597Y-115899443D01*
X102429803Y-115880197D01*
X102410557Y-115864403D01*
X102388601Y-115852667D01*
X102375023Y-115848548D01*
X106633000Y-115848548D01*
X106633000Y-116011452D01*
X106664782Y-116171227D01*
X106727123Y-116321731D01*
X106817628Y-116457181D01*
X106932819Y-116572372D01*
X107068269Y-116662877D01*
X107218773Y-116725218D01*
X107378548Y-116757000D01*
X107541452Y-116757000D01*
X107701227Y-116725218D01*
X107851731Y-116662877D01*
X107987181Y-116572372D01*
X108102372Y-116457181D01*
X108192877Y-116321731D01*
X108255218Y-116171227D01*
X108287000Y-116011452D01*
X108287000Y-115848548D01*
X108273076Y-115778548D01*
X108373000Y-115778548D01*
X108373000Y-115941452D01*
X108404782Y-116101227D01*
X108467123Y-116251731D01*
X108557628Y-116387181D01*
X108672819Y-116502372D01*
X108808269Y-116592877D01*
X108958773Y-116655218D01*
X109118548Y-116687000D01*
X109281452Y-116687000D01*
X109441227Y-116655218D01*
X109591731Y-116592877D01*
X109727181Y-116502372D01*
X109842372Y-116387181D01*
X109932877Y-116251731D01*
X109995218Y-116101227D01*
X110027000Y-115941452D01*
X110027000Y-115778548D01*
X109995218Y-115618773D01*
X109932877Y-115468269D01*
X109842372Y-115332819D01*
X109727181Y-115217628D01*
X109591731Y-115127123D01*
X109441227Y-115064782D01*
X109281452Y-115033000D01*
X109118548Y-115033000D01*
X108958773Y-115064782D01*
X108808269Y-115127123D01*
X108672819Y-115217628D01*
X108557628Y-115332819D01*
X108467123Y-115468269D01*
X108404782Y-115618773D01*
X108373000Y-115778548D01*
X108273076Y-115778548D01*
X108255218Y-115688773D01*
X108192877Y-115538269D01*
X108102372Y-115402819D01*
X107987181Y-115287628D01*
X107851731Y-115197123D01*
X107701227Y-115134782D01*
X107541452Y-115103000D01*
X107378548Y-115103000D01*
X107218773Y-115134782D01*
X107068269Y-115197123D01*
X106932819Y-115287628D01*
X106817628Y-115402819D01*
X106727123Y-115538269D01*
X106664782Y-115688773D01*
X106633000Y-115848548D01*
X102375023Y-115848548D01*
X102364776Y-115845440D01*
X102340000Y-115843000D01*
X100937086Y-115843000D01*
X102031805Y-114697755D01*
X102041465Y-114686379D01*
X102054417Y-114665117D01*
X102062971Y-114641736D01*
X102066799Y-114617136D01*
X102196799Y-112307136D01*
X102196603Y-112289972D01*
X102192214Y-112265466D01*
X102183129Y-112242286D01*
X102169696Y-112221325D01*
X102152431Y-112203387D01*
X102131999Y-112189162D01*
X102109184Y-112179196D01*
X102084864Y-112173873D01*
X102059972Y-112173397D01*
X101049972Y-112253397D01*
X101014223Y-112261537D01*
X100991991Y-112272744D01*
X100972374Y-112288073D01*
X100956123Y-112306934D01*
X100943865Y-112328604D01*
X100936069Y-112352248D01*
X100933036Y-112376959D01*
X100894505Y-113985644D01*
X100076824Y-114603447D01*
X97268663Y-114633007D01*
X97238599Y-114636943D01*
X97215195Y-114645434D01*
X97193897Y-114658327D01*
X95523897Y-115908327D01*
X95508749Y-115921669D01*
X95493270Y-115941169D01*
X95481893Y-115963313D01*
X95475054Y-115987252D01*
X95473017Y-116012065D01*
X79202000Y-116012065D01*
X79202000Y-99840010D01*
X79398506Y-99840010D01*
X79402991Y-99885547D01*
X79402990Y-107374463D01*
X79398506Y-107419990D01*
X79402990Y-107465517D01*
X79402990Y-107465527D01*
X79416403Y-107601713D01*
X79469410Y-107776453D01*
X79555489Y-107937495D01*
X79642302Y-108043277D01*
X79671331Y-108078649D01*
X79706703Y-108107678D01*
X81717024Y-110118000D01*
X81508235Y-110118000D01*
X81368375Y-110131775D01*
X81188923Y-110186211D01*
X81023538Y-110274611D01*
X80878577Y-110393577D01*
X80759611Y-110538538D01*
X80671211Y-110703923D01*
X80616775Y-110883375D01*
X80598394Y-111070000D01*
X80616775Y-111256625D01*
X80671211Y-111436077D01*
X80759611Y-111601462D01*
X80878577Y-111746423D01*
X81023538Y-111865389D01*
X81188923Y-111953789D01*
X81368375Y-112008225D01*
X81508235Y-112022000D01*
X82451765Y-112022000D01*
X82591625Y-112008225D01*
X82771077Y-111953789D01*
X82936462Y-111865389D01*
X83081423Y-111746423D01*
X83200389Y-111601462D01*
X83288789Y-111436077D01*
X83343225Y-111256625D01*
X83361606Y-111070000D01*
X83343225Y-110883375D01*
X83312473Y-110782000D01*
X86583338Y-110782000D01*
X86719524Y-110768587D01*
X86894264Y-110715580D01*
X87055305Y-110629501D01*
X87196459Y-110513659D01*
X87312301Y-110372505D01*
X87398380Y-110211464D01*
X87451387Y-110036724D01*
X87469285Y-109855000D01*
X87451387Y-109673276D01*
X87398380Y-109498536D01*
X87312301Y-109337495D01*
X87196459Y-109196341D01*
X87055305Y-109080499D01*
X86894264Y-108994420D01*
X86719524Y-108941413D01*
X86583338Y-108928000D01*
X83148975Y-108928000D01*
X83059443Y-108838468D01*
X83059438Y-108838462D01*
X81256990Y-107036015D01*
X81256990Y-104824437D01*
X81368375Y-104858225D01*
X81508235Y-104872000D01*
X82451765Y-104872000D01*
X82591625Y-104858225D01*
X82771077Y-104803789D01*
X82936462Y-104715389D01*
X83081423Y-104596423D01*
X83200389Y-104451462D01*
X83288789Y-104286077D01*
X83343225Y-104106625D01*
X83361606Y-103920000D01*
X83343225Y-103733375D01*
X83288789Y-103553923D01*
X83200389Y-103388538D01*
X83081423Y-103243577D01*
X82936462Y-103124611D01*
X82771077Y-103036211D01*
X82591625Y-102981775D01*
X82451765Y-102968000D01*
X81508235Y-102968000D01*
X81368375Y-102981775D01*
X81256990Y-103015563D01*
X81256990Y-100223985D01*
X82021910Y-99459066D01*
X82840000Y-99459066D01*
X82923707Y-99450822D01*
X83004196Y-99426405D01*
X83078376Y-99386755D01*
X83143395Y-99333395D01*
X83196755Y-99268376D01*
X83236405Y-99194196D01*
X83260822Y-99113707D01*
X83269066Y-99030000D01*
X83269066Y-98386544D01*
X83302074Y-98552487D01*
X83398337Y-98784886D01*
X83538089Y-98994040D01*
X83715960Y-99171911D01*
X83925114Y-99311663D01*
X84157513Y-99407926D01*
X84404226Y-99457000D01*
X84655774Y-99457000D01*
X84902487Y-99407926D01*
X85134886Y-99311663D01*
X85344040Y-99171911D01*
X85443152Y-99072799D01*
X86096506Y-99726154D01*
X86113788Y-99747212D01*
X86134844Y-99764492D01*
X86197840Y-99816192D01*
X86242401Y-99840010D01*
X86293736Y-99867449D01*
X86397788Y-99899013D01*
X86478890Y-99907001D01*
X86478900Y-99907001D01*
X86505998Y-99909670D01*
X86533096Y-99907001D01*
X87379947Y-99907001D01*
X94034098Y-106561154D01*
X94051379Y-106582211D01*
X94072435Y-106599491D01*
X94135431Y-106651191D01*
X94186688Y-106678588D01*
X94231327Y-106702448D01*
X94335379Y-106734012D01*
X94416481Y-106742000D01*
X94416491Y-106742000D01*
X94443589Y-106744669D01*
X94470687Y-106742000D01*
X95532447Y-106742000D01*
X95622819Y-106832372D01*
X95758269Y-106922877D01*
X95908773Y-106985218D01*
X96068548Y-107017000D01*
X96231452Y-107017000D01*
X96323002Y-106998789D01*
X96323001Y-109176023D01*
X96013540Y-109485485D01*
X95904581Y-109543725D01*
X95793092Y-109635221D01*
X93625221Y-111803093D01*
X93533725Y-111914582D01*
X93443003Y-112084310D01*
X93387137Y-112268475D01*
X93368273Y-112460000D01*
X93387137Y-112651525D01*
X93443003Y-112835690D01*
X93533725Y-113005418D01*
X93655815Y-113154185D01*
X93804582Y-113276275D01*
X93974310Y-113366997D01*
X94158475Y-113422863D01*
X94350000Y-113441727D01*
X94541525Y-113422863D01*
X94725690Y-113366997D01*
X94895418Y-113276275D01*
X95006907Y-113184779D01*
X96126886Y-112064800D01*
X113182400Y-112064800D01*
X113182400Y-115087400D01*
X113184696Y-115111442D01*
X113191783Y-115135308D01*
X113203389Y-115157334D01*
X113219070Y-115176672D01*
X113238221Y-115192579D01*
X113260109Y-115204444D01*
X113283890Y-115211812D01*
X113308651Y-115214398D01*
X119772951Y-115252498D01*
X119799011Y-115249952D01*
X119822804Y-115242623D01*
X119844710Y-115230793D01*
X119863887Y-115214916D01*
X119879598Y-115195604D01*
X119891240Y-115173597D01*
X119898365Y-115149742D01*
X119900699Y-115124955D01*
X119887999Y-112165855D01*
X119886149Y-112144797D01*
X119879530Y-112120797D01*
X119868356Y-112098549D01*
X119853056Y-112078909D01*
X119834218Y-112062631D01*
X119812567Y-112050340D01*
X119788934Y-112042510D01*
X119764228Y-112039441D01*
X118381283Y-112004281D01*
X118287509Y-110621110D01*
X118279793Y-110585318D01*
X118268848Y-110562956D01*
X118253751Y-110543160D01*
X118235081Y-110526689D01*
X118213558Y-110514177D01*
X118190006Y-110506104D01*
X118165333Y-110502781D01*
X116505867Y-110443514D01*
X116471633Y-109393661D01*
X116469833Y-109376106D01*
X116463197Y-109352110D01*
X116452006Y-109329871D01*
X116436692Y-109310241D01*
X116417842Y-109293977D01*
X116396182Y-109281703D01*
X116372544Y-109273890D01*
X116347835Y-109270839D01*
X115319135Y-109245439D01*
X115291224Y-109247840D01*
X115267399Y-109255067D01*
X115245443Y-109266803D01*
X115226197Y-109282597D01*
X115210403Y-109301843D01*
X115198667Y-109323799D01*
X115191440Y-109347624D01*
X115189000Y-109372400D01*
X115189000Y-109448600D01*
X115189051Y-109452193D01*
X115223455Y-110667800D01*
X114960400Y-110667800D01*
X114940672Y-110669342D01*
X114916576Y-110675601D01*
X114894163Y-110686441D01*
X114874296Y-110701445D01*
X114857738Y-110720037D01*
X114845125Y-110741502D01*
X114836942Y-110765015D01*
X114833504Y-110789673D01*
X114787589Y-111926064D01*
X113308392Y-111937804D01*
X113284624Y-111940240D01*
X113260799Y-111947467D01*
X113238843Y-111959203D01*
X113219597Y-111974997D01*
X113203803Y-111994243D01*
X113192067Y-112016199D01*
X113184840Y-112040024D01*
X113182400Y-112064800D01*
X96126886Y-112064800D01*
X97174779Y-111016908D01*
X97266275Y-110905419D01*
X97324515Y-110796460D01*
X97873294Y-110247682D01*
X97908660Y-110218658D01*
X97937685Y-110183291D01*
X97937689Y-110183287D01*
X98024502Y-110077505D01*
X98077018Y-109979255D01*
X98110581Y-109916463D01*
X98163588Y-109741723D01*
X98177001Y-109605537D01*
X98177001Y-109605527D01*
X98181485Y-109560000D01*
X98177001Y-109514473D01*
X98177001Y-108818548D01*
X108663000Y-108818548D01*
X108663000Y-108981452D01*
X108694782Y-109141227D01*
X108757123Y-109291731D01*
X108847628Y-109427181D01*
X108962819Y-109542372D01*
X109088001Y-109626016D01*
X109088000Y-110392447D01*
X108997628Y-110482819D01*
X108907123Y-110618269D01*
X108844782Y-110768773D01*
X108813000Y-110928548D01*
X108813000Y-111091452D01*
X108844782Y-111251227D01*
X108907123Y-111401731D01*
X108997628Y-111537181D01*
X109112819Y-111652372D01*
X109248269Y-111742877D01*
X109398773Y-111805218D01*
X109558548Y-111837000D01*
X109721452Y-111837000D01*
X109881227Y-111805218D01*
X110031731Y-111742877D01*
X110167181Y-111652372D01*
X110282372Y-111537181D01*
X110372877Y-111401731D01*
X110435218Y-111251227D01*
X110467000Y-111091452D01*
X110467000Y-110928548D01*
X110435218Y-110768773D01*
X110372877Y-110618269D01*
X110282372Y-110482819D01*
X110192000Y-110392447D01*
X110192000Y-109337942D01*
X110222877Y-109291731D01*
X110285218Y-109141227D01*
X110317000Y-108981452D01*
X110317000Y-108818548D01*
X110285218Y-108658773D01*
X110222877Y-108508269D01*
X110132372Y-108372819D01*
X110017181Y-108257628D01*
X109881731Y-108167123D01*
X109731227Y-108104782D01*
X109571452Y-108073000D01*
X109408548Y-108073000D01*
X109248773Y-108104782D01*
X109098269Y-108167123D01*
X108962819Y-108257628D01*
X108847628Y-108372819D01*
X108757123Y-108508269D01*
X108694782Y-108658773D01*
X108663000Y-108818548D01*
X98177001Y-108818548D01*
X98177001Y-105857009D01*
X104274464Y-105857009D01*
X104319991Y-105861493D01*
X104365518Y-105857009D01*
X104365529Y-105857009D01*
X104501715Y-105843596D01*
X104676455Y-105790589D01*
X104837496Y-105704510D01*
X104978650Y-105588668D01*
X105007679Y-105553296D01*
X106164645Y-104396331D01*
X106685221Y-104916908D01*
X106715815Y-104954187D01*
X106864583Y-105076277D01*
X107034310Y-105166998D01*
X107126393Y-105194931D01*
X107218475Y-105222864D01*
X107410001Y-105241728D01*
X107457994Y-105237001D01*
X110822006Y-105237001D01*
X110869999Y-105241728D01*
X111061524Y-105222864D01*
X111065259Y-105221731D01*
X111245690Y-105166998D01*
X111415417Y-105076277D01*
X111564185Y-104954187D01*
X111594783Y-104916903D01*
X112644779Y-103866907D01*
X112736275Y-103755419D01*
X112826997Y-103585690D01*
X112882863Y-103401526D01*
X112901727Y-103210000D01*
X112882863Y-103018475D01*
X112826997Y-102834310D01*
X112736275Y-102664582D01*
X112614186Y-102515814D01*
X112465418Y-102393725D01*
X112295690Y-102303003D01*
X112111525Y-102247137D01*
X111920000Y-102228273D01*
X111728474Y-102247137D01*
X111544310Y-102303003D01*
X111374581Y-102393725D01*
X111263093Y-102485221D01*
X110465313Y-103283001D01*
X107814688Y-103283001D01*
X106856907Y-102325221D01*
X106745418Y-102233725D01*
X106575690Y-102143003D01*
X106391525Y-102087137D01*
X106200000Y-102068273D01*
X106008475Y-102087137D01*
X105824310Y-102143003D01*
X105654582Y-102233725D01*
X105505815Y-102355815D01*
X105383725Y-102504582D01*
X105325487Y-102613537D01*
X103936016Y-104003009D01*
X99927636Y-104003009D01*
X99963645Y-103967000D01*
X100091452Y-103967000D01*
X100251227Y-103935218D01*
X100401731Y-103872877D01*
X100537181Y-103782372D01*
X100652372Y-103667181D01*
X100742877Y-103531731D01*
X100805218Y-103381227D01*
X100837000Y-103221452D01*
X100837000Y-103058548D01*
X100805218Y-102898773D01*
X100742877Y-102748269D01*
X100652372Y-102612819D01*
X100537181Y-102497628D01*
X100401731Y-102407123D01*
X100251227Y-102344782D01*
X100091452Y-102313000D01*
X99928548Y-102313000D01*
X99768773Y-102344782D01*
X99618269Y-102407123D01*
X99482819Y-102497628D01*
X99367628Y-102612819D01*
X99277123Y-102748269D01*
X99214782Y-102898773D01*
X99183000Y-103058548D01*
X99183000Y-103186355D01*
X98816357Y-103552999D01*
X93223644Y-103552999D01*
X88276019Y-98605375D01*
X88297926Y-98552487D01*
X88347000Y-98305774D01*
X88347000Y-98054226D01*
X88297926Y-97807513D01*
X88201663Y-97575114D01*
X88061911Y-97365960D01*
X88035951Y-97340000D01*
X91930934Y-97340000D01*
X91930934Y-99040000D01*
X91939178Y-99123707D01*
X91963595Y-99204196D01*
X92003245Y-99278376D01*
X92056605Y-99343395D01*
X92121624Y-99396755D01*
X92195804Y-99436405D01*
X92276293Y-99460822D01*
X92360000Y-99469066D01*
X94060000Y-99469066D01*
X94143707Y-99460822D01*
X94224196Y-99436405D01*
X94298376Y-99396755D01*
X94363395Y-99343395D01*
X94416755Y-99278376D01*
X94456405Y-99204196D01*
X94480822Y-99123707D01*
X94489066Y-99040000D01*
X94489066Y-98396544D01*
X94522074Y-98562487D01*
X94618337Y-98794886D01*
X94758089Y-99004040D01*
X94935960Y-99181911D01*
X95145114Y-99321663D01*
X95377513Y-99417926D01*
X95624226Y-99467000D01*
X95875774Y-99467000D01*
X96122487Y-99417926D01*
X96354886Y-99321663D01*
X96564040Y-99181911D01*
X96741911Y-99004040D01*
X96881663Y-98794886D01*
X96977926Y-98562487D01*
X97020000Y-98350966D01*
X97062074Y-98562487D01*
X97158337Y-98794886D01*
X97298089Y-99004040D01*
X97475960Y-99181911D01*
X97685114Y-99321663D01*
X97917513Y-99417926D01*
X98164226Y-99467000D01*
X98415774Y-99467000D01*
X98662487Y-99417926D01*
X98894886Y-99321663D01*
X99104040Y-99181911D01*
X99281911Y-99004040D01*
X99421663Y-98794886D01*
X99517926Y-98562487D01*
X99560000Y-98350966D01*
X99602074Y-98562487D01*
X99698337Y-98794886D01*
X99838089Y-99004040D01*
X100015960Y-99181911D01*
X100225114Y-99321663D01*
X100457513Y-99417926D01*
X100704226Y-99467000D01*
X100955774Y-99467000D01*
X101202487Y-99417926D01*
X101434886Y-99321663D01*
X101644040Y-99181911D01*
X101821911Y-99004040D01*
X101961663Y-98794886D01*
X102057926Y-98562487D01*
X102100000Y-98350966D01*
X102142074Y-98562487D01*
X102238337Y-98794886D01*
X102378089Y-99004040D01*
X102555960Y-99181911D01*
X102765114Y-99321663D01*
X102997513Y-99417926D01*
X103244226Y-99467000D01*
X103495774Y-99467000D01*
X103742487Y-99417926D01*
X103974886Y-99321663D01*
X104184040Y-99181911D01*
X104361911Y-99004040D01*
X104501663Y-98794886D01*
X104597926Y-98562487D01*
X104640000Y-98350966D01*
X104682074Y-98562487D01*
X104778337Y-98794886D01*
X104918089Y-99004040D01*
X105095960Y-99181911D01*
X105305114Y-99321663D01*
X105537513Y-99417926D01*
X105784226Y-99467000D01*
X106035774Y-99467000D01*
X106282487Y-99417926D01*
X106514886Y-99321663D01*
X106724040Y-99181911D01*
X106901911Y-99004040D01*
X107041663Y-98794886D01*
X107137926Y-98562487D01*
X107180000Y-98350966D01*
X107222074Y-98562487D01*
X107318337Y-98794886D01*
X107458089Y-99004040D01*
X107635960Y-99181911D01*
X107845114Y-99321663D01*
X108077513Y-99417926D01*
X108324226Y-99467000D01*
X108575774Y-99467000D01*
X108822487Y-99417926D01*
X109054886Y-99321663D01*
X109264040Y-99181911D01*
X109441911Y-99004040D01*
X109581663Y-98794886D01*
X109677926Y-98562487D01*
X109720000Y-98350966D01*
X109762074Y-98562487D01*
X109858337Y-98794886D01*
X109998089Y-99004040D01*
X110175960Y-99181911D01*
X110385114Y-99321663D01*
X110617513Y-99417926D01*
X110864226Y-99467000D01*
X111115774Y-99467000D01*
X111362487Y-99417926D01*
X111594886Y-99321663D01*
X111804040Y-99181911D01*
X111981911Y-99004040D01*
X112121663Y-98794886D01*
X112217926Y-98562487D01*
X112260000Y-98350966D01*
X112302074Y-98562487D01*
X112398337Y-98794886D01*
X112538089Y-99004040D01*
X112715960Y-99181911D01*
X112925114Y-99321663D01*
X113157513Y-99417926D01*
X113404226Y-99467000D01*
X113655774Y-99467000D01*
X113902487Y-99417926D01*
X114134886Y-99321663D01*
X114344040Y-99181911D01*
X114521911Y-99004040D01*
X114661663Y-98794886D01*
X114757926Y-98562487D01*
X114800000Y-98350966D01*
X114842074Y-98562487D01*
X114938337Y-98794886D01*
X115078089Y-99004040D01*
X115255960Y-99181911D01*
X115465114Y-99321663D01*
X115697513Y-99417926D01*
X115944226Y-99467000D01*
X116195774Y-99467000D01*
X116442487Y-99417926D01*
X116674886Y-99321663D01*
X116884040Y-99181911D01*
X117061911Y-99004040D01*
X117201663Y-98794886D01*
X117297926Y-98562487D01*
X117347000Y-98315774D01*
X117347000Y-98064226D01*
X117297926Y-97817513D01*
X117201663Y-97585114D01*
X117061911Y-97375960D01*
X116884040Y-97198089D01*
X116674886Y-97058337D01*
X116442487Y-96962074D01*
X116195774Y-96913000D01*
X115944226Y-96913000D01*
X115697513Y-96962074D01*
X115465114Y-97058337D01*
X115255960Y-97198089D01*
X115078089Y-97375960D01*
X114938337Y-97585114D01*
X114842074Y-97817513D01*
X114800000Y-98029034D01*
X114757926Y-97817513D01*
X114661663Y-97585114D01*
X114521911Y-97375960D01*
X114344040Y-97198089D01*
X114134886Y-97058337D01*
X113902487Y-96962074D01*
X113655774Y-96913000D01*
X113404226Y-96913000D01*
X113157513Y-96962074D01*
X112925114Y-97058337D01*
X112715960Y-97198089D01*
X112538089Y-97375960D01*
X112398337Y-97585114D01*
X112302074Y-97817513D01*
X112260000Y-98029034D01*
X112217926Y-97817513D01*
X112121663Y-97585114D01*
X111981911Y-97375960D01*
X111804040Y-97198089D01*
X111594886Y-97058337D01*
X111362487Y-96962074D01*
X111115774Y-96913000D01*
X110864226Y-96913000D01*
X110617513Y-96962074D01*
X110385114Y-97058337D01*
X110175960Y-97198089D01*
X109998089Y-97375960D01*
X109858337Y-97585114D01*
X109762074Y-97817513D01*
X109720000Y-98029034D01*
X109677926Y-97817513D01*
X109581663Y-97585114D01*
X109441911Y-97375960D01*
X109264040Y-97198089D01*
X109054886Y-97058337D01*
X108822487Y-96962074D01*
X108575774Y-96913000D01*
X108324226Y-96913000D01*
X108077513Y-96962074D01*
X107845114Y-97058337D01*
X107635960Y-97198089D01*
X107458089Y-97375960D01*
X107318337Y-97585114D01*
X107222074Y-97817513D01*
X107180000Y-98029034D01*
X107137926Y-97817513D01*
X107041663Y-97585114D01*
X106901911Y-97375960D01*
X106724040Y-97198089D01*
X106514886Y-97058337D01*
X106282487Y-96962074D01*
X106035774Y-96913000D01*
X105784226Y-96913000D01*
X105537513Y-96962074D01*
X105305114Y-97058337D01*
X105095960Y-97198089D01*
X104918089Y-97375960D01*
X104778337Y-97585114D01*
X104682074Y-97817513D01*
X104640000Y-98029034D01*
X104597926Y-97817513D01*
X104501663Y-97585114D01*
X104361911Y-97375960D01*
X104184040Y-97198089D01*
X103974886Y-97058337D01*
X103742487Y-96962074D01*
X103495774Y-96913000D01*
X103244226Y-96913000D01*
X102997513Y-96962074D01*
X102765114Y-97058337D01*
X102555960Y-97198089D01*
X102378089Y-97375960D01*
X102238337Y-97585114D01*
X102142074Y-97817513D01*
X102100000Y-98029034D01*
X102057926Y-97817513D01*
X101961663Y-97585114D01*
X101821911Y-97375960D01*
X101644040Y-97198089D01*
X101434886Y-97058337D01*
X101202487Y-96962074D01*
X100955774Y-96913000D01*
X100704226Y-96913000D01*
X100457513Y-96962074D01*
X100225114Y-97058337D01*
X100015960Y-97198089D01*
X99838089Y-97375960D01*
X99698337Y-97585114D01*
X99602074Y-97817513D01*
X99560000Y-98029034D01*
X99517926Y-97817513D01*
X99421663Y-97585114D01*
X99281911Y-97375960D01*
X99104040Y-97198089D01*
X98894886Y-97058337D01*
X98662487Y-96962074D01*
X98415774Y-96913000D01*
X98164226Y-96913000D01*
X97917513Y-96962074D01*
X97685114Y-97058337D01*
X97475960Y-97198089D01*
X97298089Y-97375960D01*
X97158337Y-97585114D01*
X97062074Y-97817513D01*
X97020000Y-98029034D01*
X96977926Y-97817513D01*
X96881663Y-97585114D01*
X96741911Y-97375960D01*
X96564040Y-97198089D01*
X96354886Y-97058337D01*
X96122487Y-96962074D01*
X95875774Y-96913000D01*
X95624226Y-96913000D01*
X95377513Y-96962074D01*
X95145114Y-97058337D01*
X94935960Y-97198089D01*
X94758089Y-97375960D01*
X94618337Y-97585114D01*
X94522074Y-97817513D01*
X94489066Y-97983456D01*
X94489066Y-97340000D01*
X94480822Y-97256293D01*
X94456405Y-97175804D01*
X94416755Y-97101624D01*
X94363395Y-97036605D01*
X94298376Y-96983245D01*
X94224196Y-96943595D01*
X94143707Y-96919178D01*
X94060000Y-96910934D01*
X92360000Y-96910934D01*
X92276293Y-96919178D01*
X92195804Y-96943595D01*
X92121624Y-96983245D01*
X92056605Y-97036605D01*
X92003245Y-97101624D01*
X91963595Y-97175804D01*
X91939178Y-97256293D01*
X91930934Y-97340000D01*
X88035951Y-97340000D01*
X87884040Y-97188089D01*
X87674886Y-97048337D01*
X87442487Y-96952074D01*
X87195774Y-96903000D01*
X86944226Y-96903000D01*
X86697513Y-96952074D01*
X86465114Y-97048337D01*
X86255960Y-97188089D01*
X86078089Y-97365960D01*
X85938337Y-97575114D01*
X85842074Y-97807513D01*
X85824999Y-97893357D01*
X85762587Y-97830945D01*
X85757926Y-97807513D01*
X85661663Y-97575114D01*
X85521911Y-97365960D01*
X85344040Y-97188089D01*
X85134886Y-97048337D01*
X84902487Y-96952074D01*
X84655774Y-96903000D01*
X84404226Y-96903000D01*
X84157513Y-96952074D01*
X83925114Y-97048337D01*
X83715960Y-97188089D01*
X83538089Y-97365960D01*
X83398337Y-97575114D01*
X83302074Y-97807513D01*
X83269066Y-97973456D01*
X83269066Y-97330000D01*
X83260822Y-97246293D01*
X83236405Y-97165804D01*
X83196755Y-97091624D01*
X83143395Y-97026605D01*
X83078376Y-96973245D01*
X83004196Y-96933595D01*
X82923707Y-96909178D01*
X82840000Y-96900934D01*
X81140000Y-96900934D01*
X81056293Y-96909178D01*
X80975804Y-96933595D01*
X80901624Y-96973245D01*
X80836605Y-97026605D01*
X80783245Y-97091624D01*
X80743595Y-97165804D01*
X80719178Y-97246293D01*
X80710934Y-97330000D01*
X80710934Y-98148090D01*
X79706698Y-99152327D01*
X79671332Y-99181351D01*
X79642307Y-99216718D01*
X79642302Y-99216723D01*
X79555489Y-99322505D01*
X79469410Y-99483547D01*
X79416404Y-99658287D01*
X79398506Y-99840010D01*
X79202000Y-99840010D01*
X79202000Y-96702000D01*
X151751246Y-96702000D01*
X152684601Y-96702512D01*
%TD*%
M02*
