%TF.GenerationSoftware,KiCad,Pcbnew,(5.1.6)-1*%
%TF.CreationDate,2020-07-31T11:50:05+07:00*%
%TF.ProjectId,stm32_nrf24,73746d33-325f-46e7-9266-32342e6b6963,rev?*%
%TF.SameCoordinates,Original*%
%TF.FileFunction,Legend,Top*%
%TF.FilePolarity,Positive*%
%FSLAX46Y46*%
G04 Gerber Fmt 4.6, Leading zero omitted, Abs format (unit mm)*
G04 Created by KiCad (PCBNEW (5.1.6)-1) date 2020-07-31 11:50:05*
%MOMM*%
%LPD*%
G01*
G04 APERTURE LIST*
%ADD10C,0.010000*%
%ADD11C,0.120000*%
%ADD12C,0.127000*%
%ADD13C,0.200000*%
%ADD14C,0.150000*%
%ADD15C,0.015000*%
G04 APERTURE END LIST*
D10*
%TO.C,G\u002A\u002A\u002A*%
G36*
X137713837Y-110678734D02*
G01*
X138158708Y-111145487D01*
X138173983Y-111164669D01*
X138440122Y-111500094D01*
X138644271Y-111756813D01*
X138726422Y-111859575D01*
X138879879Y-111884300D01*
X139219741Y-111864350D01*
X139683272Y-111804472D01*
X139877462Y-111772468D01*
X140630896Y-111678798D01*
X141478730Y-111634079D01*
X142339638Y-111637463D01*
X143132295Y-111688100D01*
X143775376Y-111785141D01*
X143895438Y-111814435D01*
X145160131Y-112274772D01*
X146280307Y-112928124D01*
X147237388Y-113758015D01*
X148012796Y-114747970D01*
X148587954Y-115881513D01*
X148641712Y-116023873D01*
X148807583Y-116414768D01*
X148967654Y-116686877D01*
X149075547Y-116776499D01*
X149318244Y-116690555D01*
X149637249Y-116422651D01*
X149804613Y-116233236D01*
X150568237Y-116233236D01*
X150574644Y-116434908D01*
X150768391Y-116692604D01*
X150809237Y-116736564D01*
X151034937Y-116959404D01*
X151186295Y-117007826D01*
X151360587Y-116894670D01*
X151443849Y-116820316D01*
X151650898Y-116522967D01*
X151605198Y-116240003D01*
X151312160Y-115981280D01*
X151052882Y-115845791D01*
X150897041Y-115851666D01*
X150740660Y-115995648D01*
X150568237Y-116233236D01*
X149804613Y-116233236D01*
X150048090Y-115957681D01*
X150446739Y-115442506D01*
X150890117Y-114905744D01*
X151270313Y-114591669D01*
X151619682Y-114487618D01*
X151970580Y-114580931D01*
X152222612Y-114747534D01*
X152455615Y-114989535D01*
X152552308Y-115293040D01*
X152565099Y-115559528D01*
X152457127Y-116118442D01*
X152160568Y-116737361D01*
X151716462Y-117367715D01*
X151165850Y-117960934D01*
X150549772Y-118468452D01*
X149909266Y-118841698D01*
X149728503Y-118916514D01*
X149353582Y-119067317D01*
X149155118Y-119207080D01*
X149069851Y-119408749D01*
X149036822Y-119714092D01*
X148855456Y-120842714D01*
X148495236Y-121983800D01*
X147987753Y-123063705D01*
X147364600Y-124008782D01*
X147026607Y-124400330D01*
X146700877Y-124764303D01*
X146459229Y-125077153D01*
X146345598Y-125280922D01*
X146342100Y-125303332D01*
X146236063Y-125575386D01*
X145969205Y-125744297D01*
X145618402Y-125796450D01*
X145260532Y-125718230D01*
X145008600Y-125539500D01*
X144855882Y-125411648D01*
X144641404Y-125334715D01*
X144303588Y-125296698D01*
X143780854Y-125285594D01*
X143705444Y-125285500D01*
X143173795Y-125291379D01*
X142832660Y-125319160D01*
X142618637Y-125384058D01*
X142468329Y-125501287D01*
X142382410Y-125603000D01*
X142038208Y-125864167D01*
X141636343Y-125900309D01*
X141244221Y-125707475D01*
X141204516Y-125672058D01*
X141076476Y-125574314D01*
X140905534Y-125505049D01*
X140648093Y-125458846D01*
X140260555Y-125430292D01*
X139699324Y-125413971D01*
X139060232Y-125405739D01*
X138399688Y-125402284D01*
X137837540Y-125404718D01*
X137418696Y-125412423D01*
X137188064Y-125424783D01*
X137157501Y-125431931D01*
X136951407Y-125776647D01*
X136747167Y-125949536D01*
X136459732Y-126017444D01*
X136406052Y-126022548D01*
X136045811Y-126004653D01*
X135787306Y-125834872D01*
X135687052Y-125717620D01*
X135519241Y-125537527D01*
X135318455Y-125426326D01*
X135014126Y-125360795D01*
X134535687Y-125317709D01*
X134455977Y-125312479D01*
X133964356Y-125285638D01*
X133652307Y-125295402D01*
X133446031Y-125360527D01*
X133271725Y-125499770D01*
X133131249Y-125649156D01*
X132752557Y-125959952D01*
X132395362Y-126022746D01*
X132034993Y-125839305D01*
X131921827Y-125735772D01*
X131709771Y-125476768D01*
X131611017Y-125263639D01*
X131610100Y-125249301D01*
X131513925Y-125082686D01*
X131266841Y-124841815D01*
X131049224Y-124671767D01*
X130415584Y-124096515D01*
X129828885Y-123342713D01*
X129335382Y-122485812D01*
X128981330Y-121601263D01*
X128856134Y-121094500D01*
X128798024Y-120581428D01*
X128767021Y-119886209D01*
X128761484Y-119079064D01*
X128762997Y-119008806D01*
X129222619Y-119008806D01*
X129315846Y-120358990D01*
X129588196Y-121573395D01*
X130034863Y-122636365D01*
X130651038Y-123532245D01*
X131356100Y-124189901D01*
X131796318Y-124527779D01*
X132058995Y-124756928D01*
X132176202Y-124912070D01*
X132180009Y-125027929D01*
X132162286Y-125062749D01*
X132172397Y-125234630D01*
X132309214Y-125407344D01*
X132479010Y-125476600D01*
X132521323Y-125462264D01*
X132654911Y-125295747D01*
X132759281Y-125078741D01*
X132816273Y-124949660D01*
X132900872Y-124863825D01*
X133058218Y-124813843D01*
X133333451Y-124792321D01*
X133771710Y-124791866D01*
X134418134Y-124805085D01*
X134428668Y-124805327D01*
X135078086Y-124821920D01*
X135517538Y-124842694D01*
X135791002Y-124877183D01*
X135942454Y-124934917D01*
X136015873Y-125025427D01*
X136055139Y-125157833D01*
X136196726Y-125444608D01*
X136394344Y-125503693D01*
X136590095Y-125334413D01*
X136668809Y-125164984D01*
X136803887Y-124777500D01*
X141395386Y-124777500D01*
X141516100Y-125095000D01*
X141649816Y-125330559D01*
X141770100Y-125412500D01*
X141908979Y-125307315D01*
X142024100Y-125095000D01*
X142082047Y-124963254D01*
X142167212Y-124874166D01*
X142324347Y-124819391D01*
X142598205Y-124790585D01*
X143033539Y-124779403D01*
X143675102Y-124777501D01*
X143726898Y-124777500D01*
X144387389Y-124780288D01*
X144837416Y-124793084D01*
X145120494Y-124822536D01*
X145280136Y-124875290D01*
X145359856Y-124957994D01*
X145389599Y-125031500D01*
X145532351Y-125240973D01*
X145707783Y-125267061D01*
X145824231Y-125112309D01*
X145834100Y-125019150D01*
X145931504Y-124779882D01*
X146196977Y-124447988D01*
X146468523Y-124182400D01*
X146975764Y-123633072D01*
X147426724Y-122930717D01*
X147610260Y-122575499D01*
X148008677Y-121678565D01*
X148283478Y-120836559D01*
X148463258Y-119943378D01*
X148565557Y-119030971D01*
X148603032Y-118422345D01*
X148589286Y-117951901D01*
X148513839Y-117507343D01*
X149341400Y-117507343D01*
X149396820Y-117829353D01*
X149412375Y-117887750D01*
X149558798Y-118205221D01*
X149773336Y-118283174D01*
X150076224Y-118126930D01*
X150137009Y-118078250D01*
X150404057Y-117856000D01*
X150139650Y-117444897D01*
X149940904Y-117182399D01*
X149776909Y-117112307D01*
X149639744Y-117159830D01*
X149412635Y-117315352D01*
X149341400Y-117507343D01*
X148513839Y-117507343D01*
X148513798Y-117507103D01*
X148376610Y-117010075D01*
X148176955Y-116423349D01*
X147935252Y-115811577D01*
X147729633Y-115360746D01*
X147395328Y-114818303D01*
X146946431Y-114250310D01*
X146447089Y-113726597D01*
X145961447Y-113316990D01*
X145703479Y-113155127D01*
X145431574Y-113037121D01*
X145253472Y-113063538D01*
X145074249Y-113218350D01*
X144696871Y-113440788D01*
X144273174Y-113461613D01*
X143870584Y-113306316D01*
X143556528Y-113000393D01*
X143400483Y-112585500D01*
X143283858Y-112304461D01*
X143077591Y-112226099D01*
X142841824Y-112347953D01*
X142659100Y-112615818D01*
X142368572Y-112996980D01*
X141980022Y-113187828D01*
X141559917Y-113188352D01*
X141174726Y-112998538D01*
X140890917Y-112618374D01*
X140889930Y-112616144D01*
X140778200Y-112395441D01*
X140645667Y-112269617D01*
X140437329Y-112229664D01*
X140098183Y-112266575D01*
X139573227Y-112371342D01*
X139496004Y-112387860D01*
X139056854Y-112470034D01*
X138710836Y-112512943D01*
X138543184Y-112508872D01*
X138400856Y-112378039D01*
X138187214Y-112100763D01*
X138042270Y-111883737D01*
X137664099Y-111370543D01*
X137321767Y-111075478D01*
X137030257Y-111010758D01*
X136986940Y-111023501D01*
X136814600Y-111169090D01*
X136568400Y-111467240D01*
X136296165Y-111847553D01*
X136045718Y-112239633D01*
X135864884Y-112573086D01*
X135801100Y-112769031D01*
X135712377Y-112932169D01*
X135514016Y-112964035D01*
X135307726Y-112874241D01*
X135202898Y-112712499D01*
X135073679Y-112492299D01*
X134896282Y-112502373D01*
X134722133Y-112739341D01*
X134719965Y-112744249D01*
X134538850Y-112977494D01*
X134338759Y-113008611D01*
X134194562Y-112837602D01*
X134173017Y-112744249D01*
X134071334Y-112505342D01*
X133903814Y-112488669D01*
X133727617Y-112694230D01*
X133703965Y-112744250D01*
X133519930Y-112986922D01*
X133319908Y-112991896D01*
X133152731Y-112767061D01*
X133114442Y-112649000D01*
X132978123Y-112353067D01*
X132723649Y-111967162D01*
X132458027Y-111635977D01*
X132151908Y-111300430D01*
X131947669Y-111127672D01*
X131785065Y-111084962D01*
X131603851Y-111139560D01*
X131571355Y-111154112D01*
X131295290Y-111391745D01*
X130994218Y-111844090D01*
X130681028Y-112474702D01*
X130368612Y-113247135D01*
X130069859Y-114124943D01*
X129797659Y-115071682D01*
X129564901Y-116050906D01*
X129384477Y-117026171D01*
X129313326Y-117538500D01*
X129222619Y-119008806D01*
X128762997Y-119008806D01*
X128779773Y-118230215D01*
X128820249Y-117409881D01*
X128881270Y-116688284D01*
X128961197Y-116135645D01*
X128973304Y-116078000D01*
X129063614Y-115636183D01*
X129117857Y-115302396D01*
X129125426Y-115143026D01*
X129123293Y-115139328D01*
X128982663Y-115117729D01*
X128656842Y-115107772D01*
X128214458Y-115111442D01*
X128184344Y-115112173D01*
X127716536Y-115117460D01*
X127448100Y-115094549D01*
X127324816Y-115029612D01*
X127292462Y-114908824D01*
X127292100Y-114884653D01*
X127330711Y-114714184D01*
X127475788Y-114603278D01*
X127771193Y-114537707D01*
X128260792Y-114503245D01*
X128491126Y-114495766D01*
X129046013Y-114458091D01*
X129354334Y-114389069D01*
X129419934Y-114299904D01*
X129246658Y-114201804D01*
X128838349Y-114105975D01*
X128333835Y-114037269D01*
X127797985Y-113949483D01*
X127504752Y-113827771D01*
X127454016Y-113763308D01*
X127441826Y-113584817D01*
X127591289Y-113482098D01*
X127929805Y-113448482D01*
X128484771Y-113477301D01*
X128590214Y-113486768D01*
X129052071Y-113522318D01*
X129410147Y-113535827D01*
X129593977Y-113524837D01*
X129600584Y-113521998D01*
X129690794Y-113378477D01*
X129807398Y-113085924D01*
X129836979Y-112996481D01*
X130017233Y-112534484D01*
X130271693Y-112013994D01*
X130560618Y-111503889D01*
X130844268Y-111073042D01*
X131082900Y-110790330D01*
X131133955Y-110748681D01*
X131527933Y-110559212D01*
X131915203Y-110571045D01*
X132331270Y-110794768D01*
X132811640Y-111240967D01*
X132821930Y-111252000D01*
X133471995Y-111950500D01*
X134505541Y-111950500D01*
X135539087Y-111950499D01*
X136053817Y-111253736D01*
X136497893Y-110741709D01*
X136906925Y-110475858D01*
X137304408Y-110455195D01*
X137713837Y-110678734D01*
G37*
X137713837Y-110678734D02*
X138158708Y-111145487D01*
X138173983Y-111164669D01*
X138440122Y-111500094D01*
X138644271Y-111756813D01*
X138726422Y-111859575D01*
X138879879Y-111884300D01*
X139219741Y-111864350D01*
X139683272Y-111804472D01*
X139877462Y-111772468D01*
X140630896Y-111678798D01*
X141478730Y-111634079D01*
X142339638Y-111637463D01*
X143132295Y-111688100D01*
X143775376Y-111785141D01*
X143895438Y-111814435D01*
X145160131Y-112274772D01*
X146280307Y-112928124D01*
X147237388Y-113758015D01*
X148012796Y-114747970D01*
X148587954Y-115881513D01*
X148641712Y-116023873D01*
X148807583Y-116414768D01*
X148967654Y-116686877D01*
X149075547Y-116776499D01*
X149318244Y-116690555D01*
X149637249Y-116422651D01*
X149804613Y-116233236D01*
X150568237Y-116233236D01*
X150574644Y-116434908D01*
X150768391Y-116692604D01*
X150809237Y-116736564D01*
X151034937Y-116959404D01*
X151186295Y-117007826D01*
X151360587Y-116894670D01*
X151443849Y-116820316D01*
X151650898Y-116522967D01*
X151605198Y-116240003D01*
X151312160Y-115981280D01*
X151052882Y-115845791D01*
X150897041Y-115851666D01*
X150740660Y-115995648D01*
X150568237Y-116233236D01*
X149804613Y-116233236D01*
X150048090Y-115957681D01*
X150446739Y-115442506D01*
X150890117Y-114905744D01*
X151270313Y-114591669D01*
X151619682Y-114487618D01*
X151970580Y-114580931D01*
X152222612Y-114747534D01*
X152455615Y-114989535D01*
X152552308Y-115293040D01*
X152565099Y-115559528D01*
X152457127Y-116118442D01*
X152160568Y-116737361D01*
X151716462Y-117367715D01*
X151165850Y-117960934D01*
X150549772Y-118468452D01*
X149909266Y-118841698D01*
X149728503Y-118916514D01*
X149353582Y-119067317D01*
X149155118Y-119207080D01*
X149069851Y-119408749D01*
X149036822Y-119714092D01*
X148855456Y-120842714D01*
X148495236Y-121983800D01*
X147987753Y-123063705D01*
X147364600Y-124008782D01*
X147026607Y-124400330D01*
X146700877Y-124764303D01*
X146459229Y-125077153D01*
X146345598Y-125280922D01*
X146342100Y-125303332D01*
X146236063Y-125575386D01*
X145969205Y-125744297D01*
X145618402Y-125796450D01*
X145260532Y-125718230D01*
X145008600Y-125539500D01*
X144855882Y-125411648D01*
X144641404Y-125334715D01*
X144303588Y-125296698D01*
X143780854Y-125285594D01*
X143705444Y-125285500D01*
X143173795Y-125291379D01*
X142832660Y-125319160D01*
X142618637Y-125384058D01*
X142468329Y-125501287D01*
X142382410Y-125603000D01*
X142038208Y-125864167D01*
X141636343Y-125900309D01*
X141244221Y-125707475D01*
X141204516Y-125672058D01*
X141076476Y-125574314D01*
X140905534Y-125505049D01*
X140648093Y-125458846D01*
X140260555Y-125430292D01*
X139699324Y-125413971D01*
X139060232Y-125405739D01*
X138399688Y-125402284D01*
X137837540Y-125404718D01*
X137418696Y-125412423D01*
X137188064Y-125424783D01*
X137157501Y-125431931D01*
X136951407Y-125776647D01*
X136747167Y-125949536D01*
X136459732Y-126017444D01*
X136406052Y-126022548D01*
X136045811Y-126004653D01*
X135787306Y-125834872D01*
X135687052Y-125717620D01*
X135519241Y-125537527D01*
X135318455Y-125426326D01*
X135014126Y-125360795D01*
X134535687Y-125317709D01*
X134455977Y-125312479D01*
X133964356Y-125285638D01*
X133652307Y-125295402D01*
X133446031Y-125360527D01*
X133271725Y-125499770D01*
X133131249Y-125649156D01*
X132752557Y-125959952D01*
X132395362Y-126022746D01*
X132034993Y-125839305D01*
X131921827Y-125735772D01*
X131709771Y-125476768D01*
X131611017Y-125263639D01*
X131610100Y-125249301D01*
X131513925Y-125082686D01*
X131266841Y-124841815D01*
X131049224Y-124671767D01*
X130415584Y-124096515D01*
X129828885Y-123342713D01*
X129335382Y-122485812D01*
X128981330Y-121601263D01*
X128856134Y-121094500D01*
X128798024Y-120581428D01*
X128767021Y-119886209D01*
X128761484Y-119079064D01*
X128762997Y-119008806D01*
X129222619Y-119008806D01*
X129315846Y-120358990D01*
X129588196Y-121573395D01*
X130034863Y-122636365D01*
X130651038Y-123532245D01*
X131356100Y-124189901D01*
X131796318Y-124527779D01*
X132058995Y-124756928D01*
X132176202Y-124912070D01*
X132180009Y-125027929D01*
X132162286Y-125062749D01*
X132172397Y-125234630D01*
X132309214Y-125407344D01*
X132479010Y-125476600D01*
X132521323Y-125462264D01*
X132654911Y-125295747D01*
X132759281Y-125078741D01*
X132816273Y-124949660D01*
X132900872Y-124863825D01*
X133058218Y-124813843D01*
X133333451Y-124792321D01*
X133771710Y-124791866D01*
X134418134Y-124805085D01*
X134428668Y-124805327D01*
X135078086Y-124821920D01*
X135517538Y-124842694D01*
X135791002Y-124877183D01*
X135942454Y-124934917D01*
X136015873Y-125025427D01*
X136055139Y-125157833D01*
X136196726Y-125444608D01*
X136394344Y-125503693D01*
X136590095Y-125334413D01*
X136668809Y-125164984D01*
X136803887Y-124777500D01*
X141395386Y-124777500D01*
X141516100Y-125095000D01*
X141649816Y-125330559D01*
X141770100Y-125412500D01*
X141908979Y-125307315D01*
X142024100Y-125095000D01*
X142082047Y-124963254D01*
X142167212Y-124874166D01*
X142324347Y-124819391D01*
X142598205Y-124790585D01*
X143033539Y-124779403D01*
X143675102Y-124777501D01*
X143726898Y-124777500D01*
X144387389Y-124780288D01*
X144837416Y-124793084D01*
X145120494Y-124822536D01*
X145280136Y-124875290D01*
X145359856Y-124957994D01*
X145389599Y-125031500D01*
X145532351Y-125240973D01*
X145707783Y-125267061D01*
X145824231Y-125112309D01*
X145834100Y-125019150D01*
X145931504Y-124779882D01*
X146196977Y-124447988D01*
X146468523Y-124182400D01*
X146975764Y-123633072D01*
X147426724Y-122930717D01*
X147610260Y-122575499D01*
X148008677Y-121678565D01*
X148283478Y-120836559D01*
X148463258Y-119943378D01*
X148565557Y-119030971D01*
X148603032Y-118422345D01*
X148589286Y-117951901D01*
X148513839Y-117507343D01*
X149341400Y-117507343D01*
X149396820Y-117829353D01*
X149412375Y-117887750D01*
X149558798Y-118205221D01*
X149773336Y-118283174D01*
X150076224Y-118126930D01*
X150137009Y-118078250D01*
X150404057Y-117856000D01*
X150139650Y-117444897D01*
X149940904Y-117182399D01*
X149776909Y-117112307D01*
X149639744Y-117159830D01*
X149412635Y-117315352D01*
X149341400Y-117507343D01*
X148513839Y-117507343D01*
X148513798Y-117507103D01*
X148376610Y-117010075D01*
X148176955Y-116423349D01*
X147935252Y-115811577D01*
X147729633Y-115360746D01*
X147395328Y-114818303D01*
X146946431Y-114250310D01*
X146447089Y-113726597D01*
X145961447Y-113316990D01*
X145703479Y-113155127D01*
X145431574Y-113037121D01*
X145253472Y-113063538D01*
X145074249Y-113218350D01*
X144696871Y-113440788D01*
X144273174Y-113461613D01*
X143870584Y-113306316D01*
X143556528Y-113000393D01*
X143400483Y-112585500D01*
X143283858Y-112304461D01*
X143077591Y-112226099D01*
X142841824Y-112347953D01*
X142659100Y-112615818D01*
X142368572Y-112996980D01*
X141980022Y-113187828D01*
X141559917Y-113188352D01*
X141174726Y-112998538D01*
X140890917Y-112618374D01*
X140889930Y-112616144D01*
X140778200Y-112395441D01*
X140645667Y-112269617D01*
X140437329Y-112229664D01*
X140098183Y-112266575D01*
X139573227Y-112371342D01*
X139496004Y-112387860D01*
X139056854Y-112470034D01*
X138710836Y-112512943D01*
X138543184Y-112508872D01*
X138400856Y-112378039D01*
X138187214Y-112100763D01*
X138042270Y-111883737D01*
X137664099Y-111370543D01*
X137321767Y-111075478D01*
X137030257Y-111010758D01*
X136986940Y-111023501D01*
X136814600Y-111169090D01*
X136568400Y-111467240D01*
X136296165Y-111847553D01*
X136045718Y-112239633D01*
X135864884Y-112573086D01*
X135801100Y-112769031D01*
X135712377Y-112932169D01*
X135514016Y-112964035D01*
X135307726Y-112874241D01*
X135202898Y-112712499D01*
X135073679Y-112492299D01*
X134896282Y-112502373D01*
X134722133Y-112739341D01*
X134719965Y-112744249D01*
X134538850Y-112977494D01*
X134338759Y-113008611D01*
X134194562Y-112837602D01*
X134173017Y-112744249D01*
X134071334Y-112505342D01*
X133903814Y-112488669D01*
X133727617Y-112694230D01*
X133703965Y-112744250D01*
X133519930Y-112986922D01*
X133319908Y-112991896D01*
X133152731Y-112767061D01*
X133114442Y-112649000D01*
X132978123Y-112353067D01*
X132723649Y-111967162D01*
X132458027Y-111635977D01*
X132151908Y-111300430D01*
X131947669Y-111127672D01*
X131785065Y-111084962D01*
X131603851Y-111139560D01*
X131571355Y-111154112D01*
X131295290Y-111391745D01*
X130994218Y-111844090D01*
X130681028Y-112474702D01*
X130368612Y-113247135D01*
X130069859Y-114124943D01*
X129797659Y-115071682D01*
X129564901Y-116050906D01*
X129384477Y-117026171D01*
X129313326Y-117538500D01*
X129222619Y-119008806D01*
X128762997Y-119008806D01*
X128779773Y-118230215D01*
X128820249Y-117409881D01*
X128881270Y-116688284D01*
X128961197Y-116135645D01*
X128973304Y-116078000D01*
X129063614Y-115636183D01*
X129117857Y-115302396D01*
X129125426Y-115143026D01*
X129123293Y-115139328D01*
X128982663Y-115117729D01*
X128656842Y-115107772D01*
X128214458Y-115111442D01*
X128184344Y-115112173D01*
X127716536Y-115117460D01*
X127448100Y-115094549D01*
X127324816Y-115029612D01*
X127292462Y-114908824D01*
X127292100Y-114884653D01*
X127330711Y-114714184D01*
X127475788Y-114603278D01*
X127771193Y-114537707D01*
X128260792Y-114503245D01*
X128491126Y-114495766D01*
X129046013Y-114458091D01*
X129354334Y-114389069D01*
X129419934Y-114299904D01*
X129246658Y-114201804D01*
X128838349Y-114105975D01*
X128333835Y-114037269D01*
X127797985Y-113949483D01*
X127504752Y-113827771D01*
X127454016Y-113763308D01*
X127441826Y-113584817D01*
X127591289Y-113482098D01*
X127929805Y-113448482D01*
X128484771Y-113477301D01*
X128590214Y-113486768D01*
X129052071Y-113522318D01*
X129410147Y-113535827D01*
X129593977Y-113524837D01*
X129600584Y-113521998D01*
X129690794Y-113378477D01*
X129807398Y-113085924D01*
X129836979Y-112996481D01*
X130017233Y-112534484D01*
X130271693Y-112013994D01*
X130560618Y-111503889D01*
X130844268Y-111073042D01*
X131082900Y-110790330D01*
X131133955Y-110748681D01*
X131527933Y-110559212D01*
X131915203Y-110571045D01*
X132331270Y-110794768D01*
X132811640Y-111240967D01*
X132821930Y-111252000D01*
X133471995Y-111950500D01*
X134505541Y-111950500D01*
X135539087Y-111950499D01*
X136053817Y-111253736D01*
X136497893Y-110741709D01*
X136906925Y-110475858D01*
X137304408Y-110455195D01*
X137713837Y-110678734D01*
G36*
X134618082Y-114217605D02*
G01*
X134681017Y-114395250D01*
X134807259Y-114634250D01*
X134975600Y-114681167D01*
X135187903Y-114771217D01*
X135229600Y-114935167D01*
X135199095Y-115079711D01*
X135068562Y-115159708D01*
X134779470Y-115196736D01*
X134490354Y-115207694D01*
X134024787Y-115198353D01*
X133766199Y-115135015D01*
X133680914Y-115043466D01*
X133682680Y-114805700D01*
X133898027Y-114690073D01*
X134000313Y-114682619D01*
X134188369Y-114570651D01*
X134254182Y-114395250D01*
X134351299Y-114171838D01*
X134467600Y-114109500D01*
X134618082Y-114217605D01*
G37*
X134618082Y-114217605D02*
X134681017Y-114395250D01*
X134807259Y-114634250D01*
X134975600Y-114681167D01*
X135187903Y-114771217D01*
X135229600Y-114935167D01*
X135199095Y-115079711D01*
X135068562Y-115159708D01*
X134779470Y-115196736D01*
X134490354Y-115207694D01*
X134024787Y-115198353D01*
X133766199Y-115135015D01*
X133680914Y-115043466D01*
X133682680Y-114805700D01*
X133898027Y-114690073D01*
X134000313Y-114682619D01*
X134188369Y-114570651D01*
X134254182Y-114395250D01*
X134351299Y-114171838D01*
X134467600Y-114109500D01*
X134618082Y-114217605D01*
G36*
X132500283Y-114269006D02*
G01*
X132621995Y-114536391D01*
X132557531Y-114847950D01*
X132493298Y-114941990D01*
X132244760Y-115111298D01*
X131974759Y-115032823D01*
X131810160Y-114882064D01*
X131671227Y-114587061D01*
X131741529Y-114319164D01*
X131980590Y-114151950D01*
X132221891Y-114133638D01*
X132500283Y-114269006D01*
G37*
X132500283Y-114269006D02*
X132621995Y-114536391D01*
X132557531Y-114847950D01*
X132493298Y-114941990D01*
X132244760Y-115111298D01*
X131974759Y-115032823D01*
X131810160Y-114882064D01*
X131671227Y-114587061D01*
X131741529Y-114319164D01*
X131980590Y-114151950D01*
X132221891Y-114133638D01*
X132500283Y-114269006D01*
G36*
X137047388Y-114187758D02*
G01*
X137222301Y-114399853D01*
X137201386Y-114705392D01*
X137121358Y-114851865D01*
X136861782Y-115090126D01*
X136600669Y-115078528D01*
X136441901Y-114941990D01*
X136312104Y-114634786D01*
X136377853Y-114343842D01*
X136609655Y-114157003D01*
X136713308Y-114133638D01*
X137047388Y-114187758D01*
G37*
X137047388Y-114187758D02*
X137222301Y-114399853D01*
X137201386Y-114705392D01*
X137121358Y-114851865D01*
X136861782Y-115090126D01*
X136600669Y-115078528D01*
X136441901Y-114941990D01*
X136312104Y-114634786D01*
X136377853Y-114343842D01*
X136609655Y-114157003D01*
X136713308Y-114133638D01*
X137047388Y-114187758D01*
G36*
X139988624Y-114422685D02*
G01*
X140423062Y-114481808D01*
X140771192Y-114585480D01*
X140966298Y-114730993D01*
X140984184Y-114777607D01*
X141000496Y-114871448D01*
X140979711Y-114932876D01*
X140881476Y-114965239D01*
X140665434Y-114971882D01*
X140291230Y-114956153D01*
X139718509Y-114921399D01*
X139452350Y-114904648D01*
X138991245Y-114851905D01*
X138759939Y-114762425D01*
X138722100Y-114685825D01*
X138834615Y-114539681D01*
X139127685Y-114448915D01*
X139534593Y-114410819D01*
X139988624Y-114422685D01*
G37*
X139988624Y-114422685D02*
X140423062Y-114481808D01*
X140771192Y-114585480D01*
X140966298Y-114730993D01*
X140984184Y-114777607D01*
X141000496Y-114871448D01*
X140979711Y-114932876D01*
X140881476Y-114965239D01*
X140665434Y-114971882D01*
X140291230Y-114956153D01*
X139718509Y-114921399D01*
X139452350Y-114904648D01*
X138991245Y-114851905D01*
X138759939Y-114762425D01*
X138722100Y-114685825D01*
X138834615Y-114539681D01*
X139127685Y-114448915D01*
X139534593Y-114410819D01*
X139988624Y-114422685D01*
G36*
X140919860Y-113448112D02*
G01*
X140975645Y-113571451D01*
X140807585Y-113715781D01*
X140416545Y-113849737D01*
X140119100Y-113905817D01*
X139635993Y-113978718D01*
X139161047Y-114052430D01*
X139071350Y-114066690D01*
X138750949Y-114096041D01*
X138613960Y-114035941D01*
X138595100Y-113948145D01*
X138717025Y-113762746D01*
X139062880Y-113597915D01*
X139602776Y-113464500D01*
X140133306Y-113389857D01*
X140639369Y-113377126D01*
X140919860Y-113448112D01*
G37*
X140919860Y-113448112D02*
X140975645Y-113571451D01*
X140807585Y-113715781D01*
X140416545Y-113849737D01*
X140119100Y-113905817D01*
X139635993Y-113978718D01*
X139161047Y-114052430D01*
X139071350Y-114066690D01*
X138750949Y-114096041D01*
X138613960Y-114035941D01*
X138595100Y-113948145D01*
X138717025Y-113762746D01*
X139062880Y-113597915D01*
X139602776Y-113464500D01*
X140133306Y-113389857D01*
X140639369Y-113377126D01*
X140919860Y-113448112D01*
D11*
%TO.C,C22*%
X114543300Y-113476821D02*
X114543300Y-113802379D01*
X113523300Y-113476821D02*
X113523300Y-113802379D01*
%TO.C,C20*%
X118514400Y-113815079D02*
X118514400Y-113489521D01*
X119534400Y-113815079D02*
X119534400Y-113489521D01*
%TO.C,C24*%
X134370540Y-107809213D02*
X134370540Y-108151747D01*
X133350540Y-107809213D02*
X133350540Y-108151747D01*
%TO.C,J5*%
X80660000Y-99510000D02*
X80660000Y-98180000D01*
X81990000Y-99510000D02*
X80660000Y-99510000D01*
X83260000Y-99510000D02*
X83260000Y-96850000D01*
X83260000Y-96850000D02*
X90940000Y-96850000D01*
X83260000Y-99510000D02*
X90940000Y-99510000D01*
X90940000Y-99510000D02*
X90940000Y-96850000D01*
%TO.C,J4*%
X91880000Y-99520000D02*
X91880000Y-98190000D01*
X93210000Y-99520000D02*
X91880000Y-99520000D01*
X94480000Y-99520000D02*
X94480000Y-96860000D01*
X94480000Y-96860000D02*
X117400000Y-96860000D01*
X94480000Y-99520000D02*
X117400000Y-99520000D01*
X117400000Y-99520000D02*
X117400000Y-96860000D01*
%TO.C,U5*%
X113705000Y-105910000D02*
X112980000Y-105910000D01*
X117200000Y-110130000D02*
X117200000Y-109405000D01*
X116475000Y-110130000D02*
X117200000Y-110130000D01*
X112980000Y-110130000D02*
X112980000Y-109405000D01*
X113705000Y-110130000D02*
X112980000Y-110130000D01*
X117200000Y-105910000D02*
X117200000Y-106635000D01*
X116475000Y-105910000D02*
X117200000Y-105910000D01*
%TO.C,Y2*%
X118164100Y-112223100D02*
X114864100Y-112223100D01*
X118164100Y-115023100D02*
X118164100Y-112223100D01*
%TO.C,Y1*%
X97270000Y-119090000D02*
X100570000Y-119090000D01*
X97270000Y-116290000D02*
X97270000Y-119090000D01*
D12*
%TO.C,U4*%
X128830000Y-105430000D02*
X128830000Y-105725000D01*
X128830000Y-108430000D02*
X128830000Y-108135000D01*
X131830000Y-105430000D02*
X131830000Y-105725000D01*
X131830000Y-108430000D02*
X131830000Y-108135000D01*
X128830000Y-105430000D02*
X129125000Y-105430000D01*
X128830000Y-108430000D02*
X129125000Y-108430000D01*
X131830000Y-105430000D02*
X131535000Y-105430000D01*
X131830000Y-108430000D02*
X131535000Y-108430000D01*
D13*
X127975000Y-106180000D02*
G75*
G03*
X127975000Y-106180000I-100000J0D01*
G01*
D11*
%TO.C,U3*%
X98880000Y-112710000D02*
X98880000Y-114000000D01*
X98430000Y-112710000D02*
X98880000Y-112710000D01*
X98430000Y-112260000D02*
X98430000Y-112710000D01*
X98430000Y-105490000D02*
X98880000Y-105490000D01*
X98430000Y-105940000D02*
X98430000Y-105490000D01*
X105650000Y-112710000D02*
X105200000Y-112710000D01*
X105650000Y-112260000D02*
X105650000Y-112710000D01*
X105650000Y-105490000D02*
X105200000Y-105490000D01*
X105650000Y-105940000D02*
X105650000Y-105490000D01*
%TO.C,U2*%
X82680000Y-113110000D02*
X88690000Y-113110000D01*
X84930000Y-119930000D02*
X88690000Y-119930000D01*
X88690000Y-113110000D02*
X88690000Y-114370000D01*
X88690000Y-119930000D02*
X88690000Y-118670000D01*
%TO.C,U1*%
X89640000Y-108730000D02*
X92090000Y-108730000D01*
X91440000Y-105510000D02*
X89640000Y-105510000D01*
%TO.C,SW1*%
X106270000Y-121040000D02*
X106270000Y-122540000D01*
X107520000Y-125040000D02*
X112020000Y-125040000D01*
X113270000Y-122540000D02*
X113270000Y-121040000D01*
X112020000Y-118540000D02*
X107520000Y-118540000D01*
%TO.C,R7*%
X116695367Y-110863100D02*
X116352833Y-110863100D01*
X116695367Y-111883100D02*
X116352833Y-111883100D01*
%TO.C,R6*%
X119040000Y-104161267D02*
X119040000Y-103818733D01*
X118020000Y-104161267D02*
X118020000Y-103818733D01*
%TO.C,R5*%
X127121267Y-110540000D02*
X126778733Y-110540000D01*
X127121267Y-111560000D02*
X126778733Y-111560000D01*
%TO.C,R4*%
X127141267Y-112120000D02*
X126798733Y-112120000D01*
X127141267Y-113140000D02*
X126798733Y-113140000D01*
%TO.C,R3*%
X89338733Y-121710000D02*
X89681267Y-121710000D01*
X89338733Y-120690000D02*
X89681267Y-120690000D01*
%TO.C,R2*%
X108128733Y-117630000D02*
X108471267Y-117630000D01*
X108128733Y-116610000D02*
X108471267Y-116610000D01*
%TO.C,R1*%
X99121267Y-114950000D02*
X98778733Y-114950000D01*
X99121267Y-115970000D02*
X98778733Y-115970000D01*
%TO.C,L2*%
X144006753Y-107654820D02*
X144349287Y-107654820D01*
X144006753Y-106634820D02*
X144349287Y-106634820D01*
%TO.C,L1*%
X137623733Y-107649740D02*
X137966267Y-107649740D01*
X137623733Y-106629740D02*
X137966267Y-106629740D01*
%TO.C,J3*%
X147147840Y-107210860D02*
X146647840Y-106960860D01*
X146647840Y-106960860D02*
X146647840Y-107460860D01*
X146647840Y-107460860D02*
X147147840Y-107210860D01*
%TO.C,J2*%
X94420000Y-124330000D02*
X94420000Y-123000000D01*
X95750000Y-124330000D02*
X94420000Y-124330000D01*
X97020000Y-124330000D02*
X97020000Y-121670000D01*
X97020000Y-121670000D02*
X102160000Y-121670000D01*
X97020000Y-124330000D02*
X102160000Y-124330000D01*
X102160000Y-124330000D02*
X102160000Y-121670000D01*
%TO.C,J1*%
X85590000Y-105735000D02*
X85200000Y-105735000D01*
X85590000Y-105735000D02*
X85590000Y-106185000D01*
X84890000Y-111305000D02*
X84890000Y-110655000D01*
X83160000Y-111305000D02*
X84890000Y-111305000D01*
X80590000Y-103685000D02*
X80800000Y-103685000D01*
X80590000Y-111305000D02*
X80800000Y-111305000D01*
X83160000Y-103685000D02*
X84890000Y-103685000D01*
X84890000Y-103685000D02*
X84890000Y-104345000D01*
%TO.C,D1*%
X90992500Y-122075000D02*
X88707500Y-122075000D01*
X90992500Y-123545000D02*
X90992500Y-122075000D01*
X88707500Y-123545000D02*
X90992500Y-123545000D01*
%TO.C,C23*%
X146060700Y-107884173D02*
X146060700Y-108226707D01*
X147080700Y-107884173D02*
X147080700Y-108226707D01*
%TO.C,C21*%
X141242320Y-107849853D02*
X141242320Y-108192387D01*
X142262320Y-107849853D02*
X142262320Y-108192387D01*
%TO.C,C19*%
X139728480Y-107849853D02*
X139728480Y-108192387D01*
X140748480Y-107849853D02*
X140748480Y-108192387D01*
%TO.C,C18*%
X134866920Y-107819373D02*
X134866920Y-108161907D01*
X135886920Y-107819373D02*
X135886920Y-108161907D01*
%TO.C,C17*%
X130281267Y-102910000D02*
X129938733Y-102910000D01*
X130281267Y-103930000D02*
X129938733Y-103930000D01*
%TO.C,C16*%
X115978733Y-105010000D02*
X116321267Y-105010000D01*
X115978733Y-103990000D02*
X116321267Y-103990000D01*
%TO.C,C15*%
X104221267Y-116100000D02*
X103878733Y-116100000D01*
X104221267Y-117120000D02*
X103878733Y-117120000D01*
%TO.C,C14*%
X112951267Y-103970000D02*
X112608733Y-103970000D01*
X112951267Y-104990000D02*
X112608733Y-104990000D01*
%TO.C,C13*%
X133075000Y-99150000D02*
X128690000Y-99150000D01*
X133075000Y-102170000D02*
X133075000Y-99150000D01*
X128690000Y-102170000D02*
X133075000Y-102170000D01*
%TO.C,C12*%
X112525000Y-103620000D02*
X116910000Y-103620000D01*
X112525000Y-100600000D02*
X112525000Y-103620000D01*
X116910000Y-100600000D02*
X112525000Y-100600000D01*
%TO.C,C11*%
X104221267Y-114630000D02*
X103878733Y-114630000D01*
X104221267Y-115650000D02*
X103878733Y-115650000D01*
%TO.C,C10*%
X107028733Y-104830000D02*
X107371267Y-104830000D01*
X107028733Y-103810000D02*
X107371267Y-103810000D01*
%TO.C,C9*%
X91460000Y-114720000D02*
X91460000Y-119105000D01*
X94480000Y-114720000D02*
X91460000Y-114720000D01*
X94480000Y-119105000D02*
X94480000Y-114720000D01*
%TO.C,C8*%
X98130000Y-104191267D02*
X98130000Y-103848733D01*
X97110000Y-104191267D02*
X97110000Y-103848733D01*
%TO.C,C7*%
X92818733Y-114380000D02*
X93161267Y-114380000D01*
X92818733Y-113360000D02*
X93161267Y-113360000D01*
%TO.C,C6*%
X96170000Y-111751267D02*
X96170000Y-111408733D01*
X95150000Y-111751267D02*
X95150000Y-111408733D01*
%TO.C,C5*%
X80638733Y-114480000D02*
X80981267Y-114480000D01*
X80638733Y-113460000D02*
X80981267Y-113460000D01*
%TO.C,C4*%
X79040000Y-114805000D02*
X79040000Y-119190000D01*
X82060000Y-114805000D02*
X79040000Y-114805000D01*
X82060000Y-119190000D02*
X82060000Y-114805000D01*
%TO.C,C3*%
X111678733Y-117560000D02*
X112021267Y-117560000D01*
X111678733Y-116540000D02*
X112021267Y-116540000D01*
%TO.C,C2*%
X101860000Y-117881267D02*
X101860000Y-117538733D01*
X100840000Y-117881267D02*
X100840000Y-117538733D01*
%TO.C,C1*%
X95880000Y-117568733D02*
X95880000Y-117911267D01*
X96900000Y-117568733D02*
X96900000Y-117911267D01*
%TO.C,8.2nH1*%
X118240000Y-108198733D02*
X118240000Y-108541267D01*
X119260000Y-108198733D02*
X119260000Y-108541267D01*
%TO.C,3.9nH1*%
X121088733Y-107960000D02*
X121431267Y-107960000D01*
X121088733Y-106940000D02*
X121431267Y-106940000D01*
%TO.C,2.7nH1*%
X119850000Y-109988733D02*
X119850000Y-110331267D01*
X120870000Y-109988733D02*
X120870000Y-110331267D01*
%TO.C,1pF3*%
X123698540Y-111658181D02*
X123698540Y-111983739D01*
X124718540Y-111658181D02*
X124718540Y-111983739D01*
%TO.C,1pF2*%
X127210000Y-106855279D02*
X127210000Y-106529721D01*
X126190000Y-106855279D02*
X126190000Y-106529721D01*
%TO.C,1pF1*%
X122180000Y-111657221D02*
X122180000Y-111982779D01*
X123200000Y-111657221D02*
X123200000Y-111982779D01*
%TO.C,1.5pF1*%
X124317221Y-107960000D02*
X124642779Y-107960000D01*
X124317221Y-106940000D02*
X124642779Y-106940000D01*
%TO.C,C22*%
D14*
X115820442Y-114282457D02*
X115868061Y-114330076D01*
X115915680Y-114472933D01*
X115915680Y-114568171D01*
X115868061Y-114711028D01*
X115772823Y-114806266D01*
X115677585Y-114853885D01*
X115487109Y-114901504D01*
X115344252Y-114901504D01*
X115153776Y-114853885D01*
X115058538Y-114806266D01*
X114963300Y-114711028D01*
X114915680Y-114568171D01*
X114915680Y-114472933D01*
X114963300Y-114330076D01*
X115010919Y-114282457D01*
X115010919Y-113901504D02*
X114963300Y-113853885D01*
X114915680Y-113758647D01*
X114915680Y-113520552D01*
X114963300Y-113425314D01*
X115010919Y-113377695D01*
X115106157Y-113330076D01*
X115201395Y-113330076D01*
X115344252Y-113377695D01*
X115915680Y-113949123D01*
X115915680Y-113330076D01*
X115010919Y-112949123D02*
X114963300Y-112901504D01*
X114915680Y-112806266D01*
X114915680Y-112568171D01*
X114963300Y-112472933D01*
X115010919Y-112425314D01*
X115106157Y-112377695D01*
X115201395Y-112377695D01*
X115344252Y-112425314D01*
X115915680Y-112996742D01*
X115915680Y-112377695D01*
%TO.C,C20*%
X117951542Y-114295157D02*
X117999161Y-114342776D01*
X118046780Y-114485633D01*
X118046780Y-114580871D01*
X117999161Y-114723728D01*
X117903923Y-114818966D01*
X117808685Y-114866585D01*
X117618209Y-114914204D01*
X117475352Y-114914204D01*
X117284876Y-114866585D01*
X117189638Y-114818966D01*
X117094400Y-114723728D01*
X117046780Y-114580871D01*
X117046780Y-114485633D01*
X117094400Y-114342776D01*
X117142019Y-114295157D01*
X117142019Y-113914204D02*
X117094400Y-113866585D01*
X117046780Y-113771347D01*
X117046780Y-113533252D01*
X117094400Y-113438014D01*
X117142019Y-113390395D01*
X117237257Y-113342776D01*
X117332495Y-113342776D01*
X117475352Y-113390395D01*
X118046780Y-113961823D01*
X118046780Y-113342776D01*
X117046780Y-112723728D02*
X117046780Y-112628490D01*
X117094400Y-112533252D01*
X117142019Y-112485633D01*
X117237257Y-112438014D01*
X117427733Y-112390395D01*
X117665828Y-112390395D01*
X117856304Y-112438014D01*
X117951542Y-112485633D01*
X117999161Y-112533252D01*
X118046780Y-112628490D01*
X118046780Y-112723728D01*
X117999161Y-112818966D01*
X117951542Y-112866585D01*
X117856304Y-112914204D01*
X117665828Y-112961823D01*
X117427733Y-112961823D01*
X117237257Y-112914204D01*
X117142019Y-112866585D01*
X117094400Y-112818966D01*
X117046780Y-112723728D01*
%TO.C,C24*%
X135647682Y-108623337D02*
X135695301Y-108670956D01*
X135742920Y-108813813D01*
X135742920Y-108909051D01*
X135695301Y-109051908D01*
X135600063Y-109147146D01*
X135504825Y-109194765D01*
X135314349Y-109242384D01*
X135171492Y-109242384D01*
X134981016Y-109194765D01*
X134885778Y-109147146D01*
X134790540Y-109051908D01*
X134742920Y-108909051D01*
X134742920Y-108813813D01*
X134790540Y-108670956D01*
X134838159Y-108623337D01*
X134838159Y-108242384D02*
X134790540Y-108194765D01*
X134742920Y-108099527D01*
X134742920Y-107861432D01*
X134790540Y-107766194D01*
X134838159Y-107718575D01*
X134933397Y-107670956D01*
X135028635Y-107670956D01*
X135171492Y-107718575D01*
X135742920Y-108290003D01*
X135742920Y-107670956D01*
X135076254Y-106813813D02*
X135742920Y-106813813D01*
X134695301Y-107051908D02*
X135409587Y-107290003D01*
X135409587Y-106670956D01*
%TO.C,J5*%
X86214626Y-100452940D02*
X86214626Y-101167226D01*
X86167007Y-101310083D01*
X86071769Y-101405321D01*
X85928912Y-101452940D01*
X85833674Y-101452940D01*
X87167007Y-100452940D02*
X86690817Y-100452940D01*
X86643198Y-100929131D01*
X86690817Y-100881512D01*
X86786055Y-100833893D01*
X87024150Y-100833893D01*
X87119388Y-100881512D01*
X87167007Y-100929131D01*
X87214626Y-101024369D01*
X87214626Y-101262464D01*
X87167007Y-101357702D01*
X87119388Y-101405321D01*
X87024150Y-101452940D01*
X86786055Y-101452940D01*
X86690817Y-101405321D01*
X86643198Y-101357702D01*
%TO.C,J4*%
X104329906Y-100049080D02*
X104329906Y-100763366D01*
X104282287Y-100906223D01*
X104187049Y-101001461D01*
X104044192Y-101049080D01*
X103948954Y-101049080D01*
X105234668Y-100382414D02*
X105234668Y-101049080D01*
X104996573Y-100001461D02*
X104758478Y-100715747D01*
X105377525Y-100715747D01*
%TO.C,U5*%
X114328095Y-104172380D02*
X114328095Y-104981904D01*
X114375714Y-105077142D01*
X114423333Y-105124761D01*
X114518571Y-105172380D01*
X114709047Y-105172380D01*
X114804285Y-105124761D01*
X114851904Y-105077142D01*
X114899523Y-104981904D01*
X114899523Y-104172380D01*
X115851904Y-104172380D02*
X115375714Y-104172380D01*
X115328095Y-104648571D01*
X115375714Y-104600952D01*
X115470952Y-104553333D01*
X115709047Y-104553333D01*
X115804285Y-104600952D01*
X115851904Y-104648571D01*
X115899523Y-104743809D01*
X115899523Y-104981904D01*
X115851904Y-105077142D01*
X115804285Y-105124761D01*
X115709047Y-105172380D01*
X115470952Y-105172380D01*
X115375714Y-105124761D01*
X115328095Y-105077142D01*
%TO.C,Y2*%
X116037909Y-115799290D02*
X116037909Y-116275480D01*
X115704576Y-115275480D02*
X116037909Y-115799290D01*
X116371242Y-115275480D01*
X116656957Y-115370719D02*
X116704576Y-115323100D01*
X116799814Y-115275480D01*
X117037909Y-115275480D01*
X117133147Y-115323100D01*
X117180766Y-115370719D01*
X117228385Y-115465957D01*
X117228385Y-115561195D01*
X117180766Y-115704052D01*
X116609338Y-116275480D01*
X117228385Y-116275480D01*
%TO.C,Y1*%
X98443809Y-115466190D02*
X98443809Y-115942380D01*
X98110476Y-114942380D02*
X98443809Y-115466190D01*
X98777142Y-114942380D01*
X99634285Y-115942380D02*
X99062857Y-115942380D01*
X99348571Y-115942380D02*
X99348571Y-114942380D01*
X99253333Y-115085238D01*
X99158095Y-115180476D01*
X99062857Y-115228095D01*
%TO.C,U4*%
D15*
X130108095Y-103447380D02*
X130108095Y-104256904D01*
X130155714Y-104352142D01*
X130203333Y-104399761D01*
X130298571Y-104447380D01*
X130489047Y-104447380D01*
X130584285Y-104399761D01*
X130631904Y-104352142D01*
X130679523Y-104256904D01*
X130679523Y-103447380D01*
X131584285Y-103780714D02*
X131584285Y-104447380D01*
X131346190Y-103399761D02*
X131108095Y-104114047D01*
X131727142Y-104114047D01*
%TO.C,U3*%
D14*
X95642380Y-109861904D02*
X96451904Y-109861904D01*
X96547142Y-109814285D01*
X96594761Y-109766666D01*
X96642380Y-109671428D01*
X96642380Y-109480952D01*
X96594761Y-109385714D01*
X96547142Y-109338095D01*
X96451904Y-109290476D01*
X95642380Y-109290476D01*
X95642380Y-108909523D02*
X95642380Y-108290476D01*
X96023333Y-108623809D01*
X96023333Y-108480952D01*
X96070952Y-108385714D01*
X96118571Y-108338095D01*
X96213809Y-108290476D01*
X96451904Y-108290476D01*
X96547142Y-108338095D01*
X96594761Y-108385714D01*
X96642380Y-108480952D01*
X96642380Y-108766666D01*
X96594761Y-108861904D01*
X96547142Y-108909523D01*
%TO.C,U2*%
X86018095Y-111472380D02*
X86018095Y-112281904D01*
X86065714Y-112377142D01*
X86113333Y-112424761D01*
X86208571Y-112472380D01*
X86399047Y-112472380D01*
X86494285Y-112424761D01*
X86541904Y-112377142D01*
X86589523Y-112281904D01*
X86589523Y-111472380D01*
X87018095Y-111567619D02*
X87065714Y-111520000D01*
X87160952Y-111472380D01*
X87399047Y-111472380D01*
X87494285Y-111520000D01*
X87541904Y-111567619D01*
X87589523Y-111662857D01*
X87589523Y-111758095D01*
X87541904Y-111900952D01*
X86970476Y-112472380D01*
X87589523Y-112472380D01*
%TO.C,U1*%
X89778095Y-109472380D02*
X89778095Y-110281904D01*
X89825714Y-110377142D01*
X89873333Y-110424761D01*
X89968571Y-110472380D01*
X90159047Y-110472380D01*
X90254285Y-110424761D01*
X90301904Y-110377142D01*
X90349523Y-110281904D01*
X90349523Y-109472380D01*
X91349523Y-110472380D02*
X90778095Y-110472380D01*
X91063809Y-110472380D02*
X91063809Y-109472380D01*
X90968571Y-109615238D01*
X90873333Y-109710476D01*
X90778095Y-109758095D01*
%TO.C,SW1*%
X114729426Y-122078381D02*
X114872283Y-122126000D01*
X115110379Y-122126000D01*
X115205617Y-122078381D01*
X115253236Y-122030762D01*
X115300855Y-121935524D01*
X115300855Y-121840286D01*
X115253236Y-121745048D01*
X115205617Y-121697429D01*
X115110379Y-121649810D01*
X114919902Y-121602191D01*
X114824664Y-121554572D01*
X114777045Y-121506953D01*
X114729426Y-121411715D01*
X114729426Y-121316477D01*
X114777045Y-121221239D01*
X114824664Y-121173620D01*
X114919902Y-121126000D01*
X115157998Y-121126000D01*
X115300855Y-121173620D01*
X115634188Y-121126000D02*
X115872283Y-122126000D01*
X116062760Y-121411715D01*
X116253236Y-122126000D01*
X116491331Y-121126000D01*
X117396093Y-122126000D02*
X116824664Y-122126000D01*
X117110379Y-122126000D02*
X117110379Y-121126000D01*
X117015140Y-121268858D01*
X116919902Y-121364096D01*
X116824664Y-121411715D01*
%TO.C,R7*%
X116357433Y-113255480D02*
X116024100Y-112779290D01*
X115786004Y-113255480D02*
X115786004Y-112255480D01*
X116166957Y-112255480D01*
X116262195Y-112303100D01*
X116309814Y-112350719D01*
X116357433Y-112445957D01*
X116357433Y-112588814D01*
X116309814Y-112684052D01*
X116262195Y-112731671D01*
X116166957Y-112779290D01*
X115786004Y-112779290D01*
X116690766Y-112255480D02*
X117357433Y-112255480D01*
X116928861Y-113255480D01*
%TO.C,R6*%
X117552380Y-104156666D02*
X117076190Y-104490000D01*
X117552380Y-104728095D02*
X116552380Y-104728095D01*
X116552380Y-104347142D01*
X116600000Y-104251904D01*
X116647619Y-104204285D01*
X116742857Y-104156666D01*
X116885714Y-104156666D01*
X116980952Y-104204285D01*
X117028571Y-104251904D01*
X117076190Y-104347142D01*
X117076190Y-104728095D01*
X116552380Y-103299523D02*
X116552380Y-103490000D01*
X116600000Y-103585238D01*
X116647619Y-103632857D01*
X116790476Y-103728095D01*
X116980952Y-103775714D01*
X117361904Y-103775714D01*
X117457142Y-103728095D01*
X117504761Y-103680476D01*
X117552380Y-103585238D01*
X117552380Y-103394761D01*
X117504761Y-103299523D01*
X117457142Y-103251904D01*
X117361904Y-103204285D01*
X117123809Y-103204285D01*
X117028571Y-103251904D01*
X116980952Y-103299523D01*
X116933333Y-103394761D01*
X116933333Y-103585238D01*
X116980952Y-103680476D01*
X117028571Y-103728095D01*
X117123809Y-103775714D01*
%TO.C,R5*%
X129607013Y-111567220D02*
X129273680Y-111091030D01*
X129035584Y-111567220D02*
X129035584Y-110567220D01*
X129416537Y-110567220D01*
X129511775Y-110614840D01*
X129559394Y-110662459D01*
X129607013Y-110757697D01*
X129607013Y-110900554D01*
X129559394Y-110995792D01*
X129511775Y-111043411D01*
X129416537Y-111091030D01*
X129035584Y-111091030D01*
X130511775Y-110567220D02*
X130035584Y-110567220D01*
X129987965Y-111043411D01*
X130035584Y-110995792D01*
X130130822Y-110948173D01*
X130368918Y-110948173D01*
X130464156Y-110995792D01*
X130511775Y-111043411D01*
X130559394Y-111138649D01*
X130559394Y-111376744D01*
X130511775Y-111471982D01*
X130464156Y-111519601D01*
X130368918Y-111567220D01*
X130130822Y-111567220D01*
X130035584Y-111519601D01*
X129987965Y-111471982D01*
%TO.C,R4*%
X129784813Y-113192820D02*
X129451480Y-112716630D01*
X129213384Y-113192820D02*
X129213384Y-112192820D01*
X129594337Y-112192820D01*
X129689575Y-112240440D01*
X129737194Y-112288059D01*
X129784813Y-112383297D01*
X129784813Y-112526154D01*
X129737194Y-112621392D01*
X129689575Y-112669011D01*
X129594337Y-112716630D01*
X129213384Y-112716630D01*
X130641956Y-112526154D02*
X130641956Y-113192820D01*
X130403860Y-112145201D02*
X130165765Y-112859487D01*
X130784813Y-112859487D01*
%TO.C,R3*%
X91999773Y-121778020D02*
X91666440Y-121301830D01*
X91428344Y-121778020D02*
X91428344Y-120778020D01*
X91809297Y-120778020D01*
X91904535Y-120825640D01*
X91952154Y-120873259D01*
X91999773Y-120968497D01*
X91999773Y-121111354D01*
X91952154Y-121206592D01*
X91904535Y-121254211D01*
X91809297Y-121301830D01*
X91428344Y-121301830D01*
X92333106Y-120778020D02*
X92952154Y-120778020D01*
X92618820Y-121158973D01*
X92761678Y-121158973D01*
X92856916Y-121206592D01*
X92904535Y-121254211D01*
X92952154Y-121349449D01*
X92952154Y-121587544D01*
X92904535Y-121682782D01*
X92856916Y-121730401D01*
X92761678Y-121778020D01*
X92475963Y-121778020D01*
X92380725Y-121730401D01*
X92333106Y-121682782D01*
%TO.C,R2*%
X108133333Y-116142380D02*
X107800000Y-115666190D01*
X107561904Y-116142380D02*
X107561904Y-115142380D01*
X107942857Y-115142380D01*
X108038095Y-115190000D01*
X108085714Y-115237619D01*
X108133333Y-115332857D01*
X108133333Y-115475714D01*
X108085714Y-115570952D01*
X108038095Y-115618571D01*
X107942857Y-115666190D01*
X107561904Y-115666190D01*
X108514285Y-115237619D02*
X108561904Y-115190000D01*
X108657142Y-115142380D01*
X108895238Y-115142380D01*
X108990476Y-115190000D01*
X109038095Y-115237619D01*
X109085714Y-115332857D01*
X109085714Y-115428095D01*
X109038095Y-115570952D01*
X108466666Y-116142380D01*
X109085714Y-116142380D01*
%TO.C,R1*%
X98783333Y-117342380D02*
X98450000Y-116866190D01*
X98211904Y-117342380D02*
X98211904Y-116342380D01*
X98592857Y-116342380D01*
X98688095Y-116390000D01*
X98735714Y-116437619D01*
X98783333Y-116532857D01*
X98783333Y-116675714D01*
X98735714Y-116770952D01*
X98688095Y-116818571D01*
X98592857Y-116866190D01*
X98211904Y-116866190D01*
X99735714Y-117342380D02*
X99164285Y-117342380D01*
X99450000Y-117342380D02*
X99450000Y-116342380D01*
X99354761Y-116485238D01*
X99259523Y-116580476D01*
X99164285Y-116628095D01*
%TO.C,L2*%
X144011353Y-106167200D02*
X143535162Y-106167200D01*
X143535162Y-105167200D01*
X144297067Y-105262439D02*
X144344686Y-105214820D01*
X144439924Y-105167200D01*
X144678020Y-105167200D01*
X144773258Y-105214820D01*
X144820877Y-105262439D01*
X144868496Y-105357677D01*
X144868496Y-105452915D01*
X144820877Y-105595772D01*
X144249448Y-106167200D01*
X144868496Y-106167200D01*
%TO.C,L1*%
X137628333Y-106162120D02*
X137152142Y-106162120D01*
X137152142Y-105162120D01*
X138485476Y-106162120D02*
X137914047Y-106162120D01*
X138199761Y-106162120D02*
X138199761Y-105162120D01*
X138104523Y-105304978D01*
X138009285Y-105400216D01*
X137914047Y-105447835D01*
%TO.C,J3*%
X145850220Y-104544193D02*
X146564506Y-104544193D01*
X146707363Y-104591812D01*
X146802601Y-104687050D01*
X146850220Y-104829907D01*
X146850220Y-104925145D01*
X145850220Y-104163240D02*
X145850220Y-103544193D01*
X146231173Y-103877526D01*
X146231173Y-103734669D01*
X146278792Y-103639431D01*
X146326411Y-103591812D01*
X146421649Y-103544193D01*
X146659744Y-103544193D01*
X146754982Y-103591812D01*
X146802601Y-103639431D01*
X146850220Y-103734669D01*
X146850220Y-104020383D01*
X146802601Y-104115621D01*
X146754982Y-104163240D01*
%TO.C,J2*%
X92872380Y-123333333D02*
X93586666Y-123333333D01*
X93729523Y-123380952D01*
X93824761Y-123476190D01*
X93872380Y-123619047D01*
X93872380Y-123714285D01*
X92967619Y-122904761D02*
X92920000Y-122857142D01*
X92872380Y-122761904D01*
X92872380Y-122523809D01*
X92920000Y-122428571D01*
X92967619Y-122380952D01*
X93062857Y-122333333D01*
X93158095Y-122333333D01*
X93300952Y-122380952D01*
X93872380Y-122952380D01*
X93872380Y-122333333D01*
%TO.C,J1*%
X85932380Y-107828333D02*
X86646666Y-107828333D01*
X86789523Y-107875952D01*
X86884761Y-107971190D01*
X86932380Y-108114047D01*
X86932380Y-108209285D01*
X86932380Y-106828333D02*
X86932380Y-107399761D01*
X86932380Y-107114047D02*
X85932380Y-107114047D01*
X86075238Y-107209285D01*
X86170476Y-107304523D01*
X86218095Y-107399761D01*
%TO.C,D1*%
X88769404Y-124692380D02*
X88769404Y-123692380D01*
X89007500Y-123692380D01*
X89150357Y-123740000D01*
X89245595Y-123835238D01*
X89293214Y-123930476D01*
X89340833Y-124120952D01*
X89340833Y-124263809D01*
X89293214Y-124454285D01*
X89245595Y-124549523D01*
X89150357Y-124644761D01*
X89007500Y-124692380D01*
X88769404Y-124692380D01*
X90293214Y-124692380D02*
X89721785Y-124692380D01*
X90007500Y-124692380D02*
X90007500Y-123692380D01*
X89912261Y-123835238D01*
X89817023Y-123930476D01*
X89721785Y-123978095D01*
%TO.C,C23*%
X148357842Y-108698297D02*
X148405461Y-108745916D01*
X148453080Y-108888773D01*
X148453080Y-108984011D01*
X148405461Y-109126868D01*
X148310223Y-109222106D01*
X148214985Y-109269725D01*
X148024509Y-109317344D01*
X147881652Y-109317344D01*
X147691176Y-109269725D01*
X147595938Y-109222106D01*
X147500700Y-109126868D01*
X147453080Y-108984011D01*
X147453080Y-108888773D01*
X147500700Y-108745916D01*
X147548319Y-108698297D01*
X147548319Y-108317344D02*
X147500700Y-108269725D01*
X147453080Y-108174487D01*
X147453080Y-107936392D01*
X147500700Y-107841154D01*
X147548319Y-107793535D01*
X147643557Y-107745916D01*
X147738795Y-107745916D01*
X147881652Y-107793535D01*
X148453080Y-108364963D01*
X148453080Y-107745916D01*
X147453080Y-107412582D02*
X147453080Y-106793535D01*
X147834033Y-107126868D01*
X147834033Y-106984011D01*
X147881652Y-106888773D01*
X147929271Y-106841154D01*
X148024509Y-106793535D01*
X148262604Y-106793535D01*
X148357842Y-106841154D01*
X148405461Y-106888773D01*
X148453080Y-106984011D01*
X148453080Y-107269725D01*
X148405461Y-107364963D01*
X148357842Y-107412582D01*
%TO.C,C21*%
X143469462Y-108603977D02*
X143517081Y-108651596D01*
X143564700Y-108794453D01*
X143564700Y-108889691D01*
X143517081Y-109032548D01*
X143421843Y-109127786D01*
X143326605Y-109175405D01*
X143136129Y-109223024D01*
X142993272Y-109223024D01*
X142802796Y-109175405D01*
X142707558Y-109127786D01*
X142612320Y-109032548D01*
X142564700Y-108889691D01*
X142564700Y-108794453D01*
X142612320Y-108651596D01*
X142659939Y-108603977D01*
X142659939Y-108223024D02*
X142612320Y-108175405D01*
X142564700Y-108080167D01*
X142564700Y-107842072D01*
X142612320Y-107746834D01*
X142659939Y-107699215D01*
X142755177Y-107651596D01*
X142850415Y-107651596D01*
X142993272Y-107699215D01*
X143564700Y-108270643D01*
X143564700Y-107651596D01*
X143564700Y-106699215D02*
X143564700Y-107270643D01*
X143564700Y-106984929D02*
X142564700Y-106984929D01*
X142707558Y-107080167D01*
X142802796Y-107175405D01*
X142850415Y-107270643D01*
%TO.C,C19*%
X142025622Y-108663977D02*
X142073241Y-108711596D01*
X142120860Y-108854453D01*
X142120860Y-108949691D01*
X142073241Y-109092548D01*
X141978003Y-109187786D01*
X141882765Y-109235405D01*
X141692289Y-109283024D01*
X141549432Y-109283024D01*
X141358956Y-109235405D01*
X141263718Y-109187786D01*
X141168480Y-109092548D01*
X141120860Y-108949691D01*
X141120860Y-108854453D01*
X141168480Y-108711596D01*
X141216099Y-108663977D01*
X142120860Y-107711596D02*
X142120860Y-108283024D01*
X142120860Y-107997310D02*
X141120860Y-107997310D01*
X141263718Y-108092548D01*
X141358956Y-108187786D01*
X141406575Y-108283024D01*
X142120860Y-107235405D02*
X142120860Y-107044929D01*
X142073241Y-106949691D01*
X142025622Y-106902072D01*
X141882765Y-106806834D01*
X141692289Y-106759215D01*
X141311337Y-106759215D01*
X141216099Y-106806834D01*
X141168480Y-106854453D01*
X141120860Y-106949691D01*
X141120860Y-107140167D01*
X141168480Y-107235405D01*
X141216099Y-107283024D01*
X141311337Y-107330643D01*
X141549432Y-107330643D01*
X141644670Y-107283024D01*
X141692289Y-107235405D01*
X141739908Y-107140167D01*
X141739908Y-106949691D01*
X141692289Y-106854453D01*
X141644670Y-106806834D01*
X141549432Y-106759215D01*
%TO.C,C18*%
X137164062Y-108633497D02*
X137211681Y-108681116D01*
X137259300Y-108823973D01*
X137259300Y-108919211D01*
X137211681Y-109062068D01*
X137116443Y-109157306D01*
X137021205Y-109204925D01*
X136830729Y-109252544D01*
X136687872Y-109252544D01*
X136497396Y-109204925D01*
X136402158Y-109157306D01*
X136306920Y-109062068D01*
X136259300Y-108919211D01*
X136259300Y-108823973D01*
X136306920Y-108681116D01*
X136354539Y-108633497D01*
X137259300Y-107681116D02*
X137259300Y-108252544D01*
X137259300Y-107966830D02*
X136259300Y-107966830D01*
X136402158Y-108062068D01*
X136497396Y-108157306D01*
X136545015Y-108252544D01*
X136687872Y-107109687D02*
X136640253Y-107204925D01*
X136592634Y-107252544D01*
X136497396Y-107300163D01*
X136449777Y-107300163D01*
X136354539Y-107252544D01*
X136306920Y-107204925D01*
X136259300Y-107109687D01*
X136259300Y-106919211D01*
X136306920Y-106823973D01*
X136354539Y-106776354D01*
X136449777Y-106728735D01*
X136497396Y-106728735D01*
X136592634Y-106776354D01*
X136640253Y-106823973D01*
X136687872Y-106919211D01*
X136687872Y-107109687D01*
X136735491Y-107204925D01*
X136783110Y-107252544D01*
X136878348Y-107300163D01*
X137068824Y-107300163D01*
X137164062Y-107252544D01*
X137211681Y-107204925D01*
X137259300Y-107109687D01*
X137259300Y-106919211D01*
X137211681Y-106823973D01*
X137164062Y-106776354D01*
X137068824Y-106728735D01*
X136878348Y-106728735D01*
X136783110Y-106776354D01*
X136735491Y-106823973D01*
X136687872Y-106919211D01*
%TO.C,C17*%
X129467142Y-105207142D02*
X129419523Y-105254761D01*
X129276666Y-105302380D01*
X129181428Y-105302380D01*
X129038571Y-105254761D01*
X128943333Y-105159523D01*
X128895714Y-105064285D01*
X128848095Y-104873809D01*
X128848095Y-104730952D01*
X128895714Y-104540476D01*
X128943333Y-104445238D01*
X129038571Y-104350000D01*
X129181428Y-104302380D01*
X129276666Y-104302380D01*
X129419523Y-104350000D01*
X129467142Y-104397619D01*
X130419523Y-105302380D02*
X129848095Y-105302380D01*
X130133809Y-105302380D02*
X130133809Y-104302380D01*
X130038571Y-104445238D01*
X129943333Y-104540476D01*
X129848095Y-104588095D01*
X130752857Y-104302380D02*
X131419523Y-104302380D01*
X130990952Y-105302380D01*
%TO.C,C16*%
X115507142Y-103427142D02*
X115459523Y-103474761D01*
X115316666Y-103522380D01*
X115221428Y-103522380D01*
X115078571Y-103474761D01*
X114983333Y-103379523D01*
X114935714Y-103284285D01*
X114888095Y-103093809D01*
X114888095Y-102950952D01*
X114935714Y-102760476D01*
X114983333Y-102665238D01*
X115078571Y-102570000D01*
X115221428Y-102522380D01*
X115316666Y-102522380D01*
X115459523Y-102570000D01*
X115507142Y-102617619D01*
X116459523Y-103522380D02*
X115888095Y-103522380D01*
X116173809Y-103522380D02*
X116173809Y-102522380D01*
X116078571Y-102665238D01*
X115983333Y-102760476D01*
X115888095Y-102808095D01*
X117316666Y-102522380D02*
X117126190Y-102522380D01*
X117030952Y-102570000D01*
X116983333Y-102617619D01*
X116888095Y-102760476D01*
X116840476Y-102950952D01*
X116840476Y-103331904D01*
X116888095Y-103427142D01*
X116935714Y-103474761D01*
X117030952Y-103522380D01*
X117221428Y-103522380D01*
X117316666Y-103474761D01*
X117364285Y-103427142D01*
X117411904Y-103331904D01*
X117411904Y-103093809D01*
X117364285Y-102998571D01*
X117316666Y-102950952D01*
X117221428Y-102903333D01*
X117030952Y-102903333D01*
X116935714Y-102950952D01*
X116888095Y-102998571D01*
X116840476Y-103093809D01*
%TO.C,C15*%
X103407142Y-118397142D02*
X103359523Y-118444761D01*
X103216666Y-118492380D01*
X103121428Y-118492380D01*
X102978571Y-118444761D01*
X102883333Y-118349523D01*
X102835714Y-118254285D01*
X102788095Y-118063809D01*
X102788095Y-117920952D01*
X102835714Y-117730476D01*
X102883333Y-117635238D01*
X102978571Y-117540000D01*
X103121428Y-117492380D01*
X103216666Y-117492380D01*
X103359523Y-117540000D01*
X103407142Y-117587619D01*
X104359523Y-118492380D02*
X103788095Y-118492380D01*
X104073809Y-118492380D02*
X104073809Y-117492380D01*
X103978571Y-117635238D01*
X103883333Y-117730476D01*
X103788095Y-117778095D01*
X105264285Y-117492380D02*
X104788095Y-117492380D01*
X104740476Y-117968571D01*
X104788095Y-117920952D01*
X104883333Y-117873333D01*
X105121428Y-117873333D01*
X105216666Y-117920952D01*
X105264285Y-117968571D01*
X105311904Y-118063809D01*
X105311904Y-118301904D01*
X105264285Y-118397142D01*
X105216666Y-118444761D01*
X105121428Y-118492380D01*
X104883333Y-118492380D01*
X104788095Y-118444761D01*
X104740476Y-118397142D01*
%TO.C,C14*%
X110360222Y-106310702D02*
X110312603Y-106358321D01*
X110169746Y-106405940D01*
X110074508Y-106405940D01*
X109931651Y-106358321D01*
X109836413Y-106263083D01*
X109788794Y-106167845D01*
X109741175Y-105977369D01*
X109741175Y-105834512D01*
X109788794Y-105644036D01*
X109836413Y-105548798D01*
X109931651Y-105453560D01*
X110074508Y-105405940D01*
X110169746Y-105405940D01*
X110312603Y-105453560D01*
X110360222Y-105501179D01*
X111312603Y-106405940D02*
X110741175Y-106405940D01*
X111026889Y-106405940D02*
X111026889Y-105405940D01*
X110931651Y-105548798D01*
X110836413Y-105644036D01*
X110741175Y-105691655D01*
X112169746Y-105739274D02*
X112169746Y-106405940D01*
X111931651Y-105358321D02*
X111693556Y-106072607D01*
X112312603Y-106072607D01*
%TO.C,C13*%
X129797142Y-103367142D02*
X129749523Y-103414761D01*
X129606666Y-103462380D01*
X129511428Y-103462380D01*
X129368571Y-103414761D01*
X129273333Y-103319523D01*
X129225714Y-103224285D01*
X129178095Y-103033809D01*
X129178095Y-102890952D01*
X129225714Y-102700476D01*
X129273333Y-102605238D01*
X129368571Y-102510000D01*
X129511428Y-102462380D01*
X129606666Y-102462380D01*
X129749523Y-102510000D01*
X129797142Y-102557619D01*
X130749523Y-103462380D02*
X130178095Y-103462380D01*
X130463809Y-103462380D02*
X130463809Y-102462380D01*
X130368571Y-102605238D01*
X130273333Y-102700476D01*
X130178095Y-102748095D01*
X131082857Y-102462380D02*
X131701904Y-102462380D01*
X131368571Y-102843333D01*
X131511428Y-102843333D01*
X131606666Y-102890952D01*
X131654285Y-102938571D01*
X131701904Y-103033809D01*
X131701904Y-103271904D01*
X131654285Y-103367142D01*
X131606666Y-103414761D01*
X131511428Y-103462380D01*
X131225714Y-103462380D01*
X131130476Y-103414761D01*
X131082857Y-103367142D01*
%TO.C,C12*%
X114517142Y-100117142D02*
X114469523Y-100164761D01*
X114326666Y-100212380D01*
X114231428Y-100212380D01*
X114088571Y-100164761D01*
X113993333Y-100069523D01*
X113945714Y-99974285D01*
X113898095Y-99783809D01*
X113898095Y-99640952D01*
X113945714Y-99450476D01*
X113993333Y-99355238D01*
X114088571Y-99260000D01*
X114231428Y-99212380D01*
X114326666Y-99212380D01*
X114469523Y-99260000D01*
X114517142Y-99307619D01*
X115469523Y-100212380D02*
X114898095Y-100212380D01*
X115183809Y-100212380D02*
X115183809Y-99212380D01*
X115088571Y-99355238D01*
X114993333Y-99450476D01*
X114898095Y-99498095D01*
X115850476Y-99307619D02*
X115898095Y-99260000D01*
X115993333Y-99212380D01*
X116231428Y-99212380D01*
X116326666Y-99260000D01*
X116374285Y-99307619D01*
X116421904Y-99402857D01*
X116421904Y-99498095D01*
X116374285Y-99640952D01*
X115802857Y-100212380D01*
X116421904Y-100212380D01*
%TO.C,C11*%
X103252142Y-116837142D02*
X103204523Y-116884761D01*
X103061666Y-116932380D01*
X102966428Y-116932380D01*
X102823571Y-116884761D01*
X102728333Y-116789523D01*
X102680714Y-116694285D01*
X102633095Y-116503809D01*
X102633095Y-116360952D01*
X102680714Y-116170476D01*
X102728333Y-116075238D01*
X102823571Y-115980000D01*
X102966428Y-115932380D01*
X103061666Y-115932380D01*
X103204523Y-115980000D01*
X103252142Y-116027619D01*
X104204523Y-116932380D02*
X103633095Y-116932380D01*
X103918809Y-116932380D02*
X103918809Y-115932380D01*
X103823571Y-116075238D01*
X103728333Y-116170476D01*
X103633095Y-116218095D01*
X105156904Y-116932380D02*
X104585476Y-116932380D01*
X104871190Y-116932380D02*
X104871190Y-115932380D01*
X104775952Y-116075238D01*
X104680714Y-116170476D01*
X104585476Y-116218095D01*
%TO.C,C10*%
X106497142Y-103307142D02*
X106449523Y-103354761D01*
X106306666Y-103402380D01*
X106211428Y-103402380D01*
X106068571Y-103354761D01*
X105973333Y-103259523D01*
X105925714Y-103164285D01*
X105878095Y-102973809D01*
X105878095Y-102830952D01*
X105925714Y-102640476D01*
X105973333Y-102545238D01*
X106068571Y-102450000D01*
X106211428Y-102402380D01*
X106306666Y-102402380D01*
X106449523Y-102450000D01*
X106497142Y-102497619D01*
X107449523Y-103402380D02*
X106878095Y-103402380D01*
X107163809Y-103402380D02*
X107163809Y-102402380D01*
X107068571Y-102545238D01*
X106973333Y-102640476D01*
X106878095Y-102688095D01*
X108068571Y-102402380D02*
X108163809Y-102402380D01*
X108259047Y-102450000D01*
X108306666Y-102497619D01*
X108354285Y-102592857D01*
X108401904Y-102783333D01*
X108401904Y-103021428D01*
X108354285Y-103211904D01*
X108306666Y-103307142D01*
X108259047Y-103354761D01*
X108163809Y-103402380D01*
X108068571Y-103402380D01*
X107973333Y-103354761D01*
X107925714Y-103307142D01*
X107878095Y-103211904D01*
X107830476Y-103021428D01*
X107830476Y-102783333D01*
X107878095Y-102592857D01*
X107925714Y-102497619D01*
X107973333Y-102450000D01*
X108068571Y-102402380D01*
%TO.C,C9*%
X94347142Y-117696666D02*
X94394761Y-117744285D01*
X94442380Y-117887142D01*
X94442380Y-117982380D01*
X94394761Y-118125238D01*
X94299523Y-118220476D01*
X94204285Y-118268095D01*
X94013809Y-118315714D01*
X93870952Y-118315714D01*
X93680476Y-118268095D01*
X93585238Y-118220476D01*
X93490000Y-118125238D01*
X93442380Y-117982380D01*
X93442380Y-117887142D01*
X93490000Y-117744285D01*
X93537619Y-117696666D01*
X94442380Y-117220476D02*
X94442380Y-117030000D01*
X94394761Y-116934761D01*
X94347142Y-116887142D01*
X94204285Y-116791904D01*
X94013809Y-116744285D01*
X93632857Y-116744285D01*
X93537619Y-116791904D01*
X93490000Y-116839523D01*
X93442380Y-116934761D01*
X93442380Y-117125238D01*
X93490000Y-117220476D01*
X93537619Y-117268095D01*
X93632857Y-117315714D01*
X93870952Y-117315714D01*
X93966190Y-117268095D01*
X94013809Y-117220476D01*
X94061428Y-117125238D01*
X94061428Y-116934761D01*
X94013809Y-116839523D01*
X93966190Y-116791904D01*
X93870952Y-116744285D01*
%TO.C,C8*%
X96547142Y-104186666D02*
X96594761Y-104234285D01*
X96642380Y-104377142D01*
X96642380Y-104472380D01*
X96594761Y-104615238D01*
X96499523Y-104710476D01*
X96404285Y-104758095D01*
X96213809Y-104805714D01*
X96070952Y-104805714D01*
X95880476Y-104758095D01*
X95785238Y-104710476D01*
X95690000Y-104615238D01*
X95642380Y-104472380D01*
X95642380Y-104377142D01*
X95690000Y-104234285D01*
X95737619Y-104186666D01*
X96070952Y-103615238D02*
X96023333Y-103710476D01*
X95975714Y-103758095D01*
X95880476Y-103805714D01*
X95832857Y-103805714D01*
X95737619Y-103758095D01*
X95690000Y-103710476D01*
X95642380Y-103615238D01*
X95642380Y-103424761D01*
X95690000Y-103329523D01*
X95737619Y-103281904D01*
X95832857Y-103234285D01*
X95880476Y-103234285D01*
X95975714Y-103281904D01*
X96023333Y-103329523D01*
X96070952Y-103424761D01*
X96070952Y-103615238D01*
X96118571Y-103710476D01*
X96166190Y-103758095D01*
X96261428Y-103805714D01*
X96451904Y-103805714D01*
X96547142Y-103758095D01*
X96594761Y-103710476D01*
X96642380Y-103615238D01*
X96642380Y-103424761D01*
X96594761Y-103329523D01*
X96547142Y-103281904D01*
X96451904Y-103234285D01*
X96261428Y-103234285D01*
X96166190Y-103281904D01*
X96118571Y-103329523D01*
X96070952Y-103424761D01*
%TO.C,C7*%
X91369853Y-112734362D02*
X91322234Y-112781981D01*
X91179377Y-112829600D01*
X91084139Y-112829600D01*
X90941281Y-112781981D01*
X90846043Y-112686743D01*
X90798424Y-112591505D01*
X90750805Y-112401029D01*
X90750805Y-112258172D01*
X90798424Y-112067696D01*
X90846043Y-111972458D01*
X90941281Y-111877220D01*
X91084139Y-111829600D01*
X91179377Y-111829600D01*
X91322234Y-111877220D01*
X91369853Y-111924839D01*
X91703186Y-111829600D02*
X92369853Y-111829600D01*
X91941281Y-112829600D01*
%TO.C,C6*%
X94587142Y-111746666D02*
X94634761Y-111794285D01*
X94682380Y-111937142D01*
X94682380Y-112032380D01*
X94634761Y-112175238D01*
X94539523Y-112270476D01*
X94444285Y-112318095D01*
X94253809Y-112365714D01*
X94110952Y-112365714D01*
X93920476Y-112318095D01*
X93825238Y-112270476D01*
X93730000Y-112175238D01*
X93682380Y-112032380D01*
X93682380Y-111937142D01*
X93730000Y-111794285D01*
X93777619Y-111746666D01*
X93682380Y-110889523D02*
X93682380Y-111080000D01*
X93730000Y-111175238D01*
X93777619Y-111222857D01*
X93920476Y-111318095D01*
X94110952Y-111365714D01*
X94491904Y-111365714D01*
X94587142Y-111318095D01*
X94634761Y-111270476D01*
X94682380Y-111175238D01*
X94682380Y-110984761D01*
X94634761Y-110889523D01*
X94587142Y-110841904D01*
X94491904Y-110794285D01*
X94253809Y-110794285D01*
X94158571Y-110841904D01*
X94110952Y-110889523D01*
X94063333Y-110984761D01*
X94063333Y-111175238D01*
X94110952Y-111270476D01*
X94158571Y-111318095D01*
X94253809Y-111365714D01*
%TO.C,C5*%
X80643333Y-112897142D02*
X80595714Y-112944761D01*
X80452857Y-112992380D01*
X80357619Y-112992380D01*
X80214761Y-112944761D01*
X80119523Y-112849523D01*
X80071904Y-112754285D01*
X80024285Y-112563809D01*
X80024285Y-112420952D01*
X80071904Y-112230476D01*
X80119523Y-112135238D01*
X80214761Y-112040000D01*
X80357619Y-111992380D01*
X80452857Y-111992380D01*
X80595714Y-112040000D01*
X80643333Y-112087619D01*
X81548095Y-111992380D02*
X81071904Y-111992380D01*
X81024285Y-112468571D01*
X81071904Y-112420952D01*
X81167142Y-112373333D01*
X81405238Y-112373333D01*
X81500476Y-112420952D01*
X81548095Y-112468571D01*
X81595714Y-112563809D01*
X81595714Y-112801904D01*
X81548095Y-112897142D01*
X81500476Y-112944761D01*
X81405238Y-112992380D01*
X81167142Y-112992380D01*
X81071904Y-112944761D01*
X81024285Y-112897142D01*
%TO.C,C4*%
X83257142Y-117606666D02*
X83304761Y-117654285D01*
X83352380Y-117797142D01*
X83352380Y-117892380D01*
X83304761Y-118035238D01*
X83209523Y-118130476D01*
X83114285Y-118178095D01*
X82923809Y-118225714D01*
X82780952Y-118225714D01*
X82590476Y-118178095D01*
X82495238Y-118130476D01*
X82400000Y-118035238D01*
X82352380Y-117892380D01*
X82352380Y-117797142D01*
X82400000Y-117654285D01*
X82447619Y-117606666D01*
X82685714Y-116749523D02*
X83352380Y-116749523D01*
X82304761Y-116987619D02*
X83019047Y-117225714D01*
X83019047Y-116606666D01*
%TO.C,C3*%
X111816853Y-115934762D02*
X111769234Y-115982381D01*
X111626377Y-116030000D01*
X111531139Y-116030000D01*
X111388281Y-115982381D01*
X111293043Y-115887143D01*
X111245424Y-115791905D01*
X111197805Y-115601429D01*
X111197805Y-115458572D01*
X111245424Y-115268096D01*
X111293043Y-115172858D01*
X111388281Y-115077620D01*
X111531139Y-115030000D01*
X111626377Y-115030000D01*
X111769234Y-115077620D01*
X111816853Y-115125239D01*
X112150186Y-115030000D02*
X112769234Y-115030000D01*
X112435900Y-115410953D01*
X112578758Y-115410953D01*
X112673996Y-115458572D01*
X112721615Y-115506191D01*
X112769234Y-115601429D01*
X112769234Y-115839524D01*
X112721615Y-115934762D01*
X112673996Y-115982381D01*
X112578758Y-116030000D01*
X112293043Y-116030000D01*
X112197805Y-115982381D01*
X112150186Y-115934762D01*
%TO.C,C2*%
X100277142Y-117876666D02*
X100324761Y-117924285D01*
X100372380Y-118067142D01*
X100372380Y-118162380D01*
X100324761Y-118305238D01*
X100229523Y-118400476D01*
X100134285Y-118448095D01*
X99943809Y-118495714D01*
X99800952Y-118495714D01*
X99610476Y-118448095D01*
X99515238Y-118400476D01*
X99420000Y-118305238D01*
X99372380Y-118162380D01*
X99372380Y-118067142D01*
X99420000Y-117924285D01*
X99467619Y-117876666D01*
X99467619Y-117495714D02*
X99420000Y-117448095D01*
X99372380Y-117352857D01*
X99372380Y-117114761D01*
X99420000Y-117019523D01*
X99467619Y-116971904D01*
X99562857Y-116924285D01*
X99658095Y-116924285D01*
X99800952Y-116971904D01*
X100372380Y-117543333D01*
X100372380Y-116924285D01*
%TO.C,C1*%
X98177142Y-117906666D02*
X98224761Y-117954285D01*
X98272380Y-118097142D01*
X98272380Y-118192380D01*
X98224761Y-118335238D01*
X98129523Y-118430476D01*
X98034285Y-118478095D01*
X97843809Y-118525714D01*
X97700952Y-118525714D01*
X97510476Y-118478095D01*
X97415238Y-118430476D01*
X97320000Y-118335238D01*
X97272380Y-118192380D01*
X97272380Y-118097142D01*
X97320000Y-117954285D01*
X97367619Y-117906666D01*
X98272380Y-116954285D02*
X98272380Y-117525714D01*
X98272380Y-117240000D02*
X97272380Y-117240000D01*
X97415238Y-117335238D01*
X97510476Y-117430476D01*
X97558095Y-117525714D01*
%TO.C,8.2nH1*%
X118016352Y-110105224D02*
X117968733Y-110200462D01*
X117921114Y-110248081D01*
X117825876Y-110295700D01*
X117778257Y-110295700D01*
X117683019Y-110248081D01*
X117635400Y-110200462D01*
X117587780Y-110105224D01*
X117587780Y-109914748D01*
X117635400Y-109819510D01*
X117683019Y-109771891D01*
X117778257Y-109724272D01*
X117825876Y-109724272D01*
X117921114Y-109771891D01*
X117968733Y-109819510D01*
X118016352Y-109914748D01*
X118016352Y-110105224D01*
X118063971Y-110200462D01*
X118111590Y-110248081D01*
X118206828Y-110295700D01*
X118397304Y-110295700D01*
X118492542Y-110248081D01*
X118540161Y-110200462D01*
X118587780Y-110105224D01*
X118587780Y-109914748D01*
X118540161Y-109819510D01*
X118492542Y-109771891D01*
X118397304Y-109724272D01*
X118206828Y-109724272D01*
X118111590Y-109771891D01*
X118063971Y-109819510D01*
X118016352Y-109914748D01*
X118492542Y-109295700D02*
X118540161Y-109248081D01*
X118587780Y-109295700D01*
X118540161Y-109343320D01*
X118492542Y-109295700D01*
X118587780Y-109295700D01*
X117683019Y-108867129D02*
X117635400Y-108819510D01*
X117587780Y-108724272D01*
X117587780Y-108486177D01*
X117635400Y-108390939D01*
X117683019Y-108343320D01*
X117778257Y-108295700D01*
X117873495Y-108295700D01*
X118016352Y-108343320D01*
X118587780Y-108914748D01*
X118587780Y-108295700D01*
X117921114Y-107867129D02*
X118587780Y-107867129D01*
X118016352Y-107867129D02*
X117968733Y-107819510D01*
X117921114Y-107724272D01*
X117921114Y-107581415D01*
X117968733Y-107486177D01*
X118063971Y-107438558D01*
X118587780Y-107438558D01*
X118587780Y-106962367D02*
X117587780Y-106962367D01*
X118063971Y-106962367D02*
X118063971Y-106390939D01*
X118587780Y-106390939D02*
X117587780Y-106390939D01*
X118587780Y-105390939D02*
X118587780Y-105962367D01*
X118587780Y-105676653D02*
X117587780Y-105676653D01*
X117730638Y-105771891D01*
X117825876Y-105867129D01*
X117873495Y-105962367D01*
%TO.C,3.9nH1*%
X118558940Y-105436420D02*
X119177987Y-105436420D01*
X118844654Y-105817373D01*
X118987511Y-105817373D01*
X119082749Y-105864992D01*
X119130368Y-105912611D01*
X119177987Y-106007849D01*
X119177987Y-106245944D01*
X119130368Y-106341182D01*
X119082749Y-106388801D01*
X118987511Y-106436420D01*
X118701797Y-106436420D01*
X118606559Y-106388801D01*
X118558940Y-106341182D01*
X119606559Y-106341182D02*
X119654178Y-106388801D01*
X119606559Y-106436420D01*
X119558940Y-106388801D01*
X119606559Y-106341182D01*
X119606559Y-106436420D01*
X120130368Y-106436420D02*
X120320844Y-106436420D01*
X120416082Y-106388801D01*
X120463701Y-106341182D01*
X120558940Y-106198325D01*
X120606559Y-106007849D01*
X120606559Y-105626897D01*
X120558940Y-105531659D01*
X120511320Y-105484040D01*
X120416082Y-105436420D01*
X120225606Y-105436420D01*
X120130368Y-105484040D01*
X120082749Y-105531659D01*
X120035130Y-105626897D01*
X120035130Y-105864992D01*
X120082749Y-105960230D01*
X120130368Y-106007849D01*
X120225606Y-106055468D01*
X120416082Y-106055468D01*
X120511320Y-106007849D01*
X120558940Y-105960230D01*
X120606559Y-105864992D01*
X121035130Y-105769754D02*
X121035130Y-106436420D01*
X121035130Y-105864992D02*
X121082749Y-105817373D01*
X121177987Y-105769754D01*
X121320844Y-105769754D01*
X121416082Y-105817373D01*
X121463701Y-105912611D01*
X121463701Y-106436420D01*
X121939892Y-106436420D02*
X121939892Y-105436420D01*
X121939892Y-105912611D02*
X122511320Y-105912611D01*
X122511320Y-106436420D02*
X122511320Y-105436420D01*
X123511320Y-106436420D02*
X122939892Y-106436420D01*
X123225606Y-106436420D02*
X123225606Y-105436420D01*
X123130368Y-105579278D01*
X123035130Y-105674516D01*
X122939892Y-105722135D01*
%TO.C,2.7nH1*%
X121077619Y-112922380D02*
X121030000Y-112874761D01*
X120982380Y-112779523D01*
X120982380Y-112541428D01*
X121030000Y-112446190D01*
X121077619Y-112398571D01*
X121172857Y-112350952D01*
X121268095Y-112350952D01*
X121410952Y-112398571D01*
X121982380Y-112970000D01*
X121982380Y-112350952D01*
X121887142Y-111922380D02*
X121934761Y-111874761D01*
X121982380Y-111922380D01*
X121934761Y-111970000D01*
X121887142Y-111922380D01*
X121982380Y-111922380D01*
X120982380Y-111541428D02*
X120982380Y-110874761D01*
X121982380Y-111303333D01*
X121315714Y-110493809D02*
X121982380Y-110493809D01*
X121410952Y-110493809D02*
X121363333Y-110446190D01*
X121315714Y-110350952D01*
X121315714Y-110208095D01*
X121363333Y-110112857D01*
X121458571Y-110065238D01*
X121982380Y-110065238D01*
X121982380Y-109589047D02*
X120982380Y-109589047D01*
X121458571Y-109589047D02*
X121458571Y-109017619D01*
X121982380Y-109017619D02*
X120982380Y-109017619D01*
X121982380Y-108017619D02*
X121982380Y-108589047D01*
X121982380Y-108303333D02*
X120982380Y-108303333D01*
X121125238Y-108398571D01*
X121220476Y-108493809D01*
X121268095Y-108589047D01*
%TO.C,1pF3*%
X124333451Y-114564420D02*
X123762022Y-114564420D01*
X124047737Y-114564420D02*
X124047737Y-113564420D01*
X123952499Y-113707278D01*
X123857260Y-113802516D01*
X123762022Y-113850135D01*
X124762022Y-113897754D02*
X124762022Y-114897754D01*
X124762022Y-113945373D02*
X124857260Y-113897754D01*
X125047737Y-113897754D01*
X125142975Y-113945373D01*
X125190594Y-113992992D01*
X125238213Y-114088230D01*
X125238213Y-114373944D01*
X125190594Y-114469182D01*
X125142975Y-114516801D01*
X125047737Y-114564420D01*
X124857260Y-114564420D01*
X124762022Y-114516801D01*
X126000118Y-114040611D02*
X125666784Y-114040611D01*
X125666784Y-114564420D02*
X125666784Y-113564420D01*
X126142975Y-113564420D01*
X126428689Y-113564420D02*
X127047737Y-113564420D01*
X126714403Y-113945373D01*
X126857260Y-113945373D01*
X126952499Y-113992992D01*
X127000118Y-114040611D01*
X127047737Y-114135849D01*
X127047737Y-114373944D01*
X127000118Y-114469182D01*
X126952499Y-114516801D01*
X126857260Y-114564420D01*
X126571546Y-114564420D01*
X126476308Y-114516801D01*
X126428689Y-114469182D01*
%TO.C,1pF2*%
X125357071Y-104843840D02*
X124785642Y-104843840D01*
X125071357Y-104843840D02*
X125071357Y-103843840D01*
X124976119Y-103986698D01*
X124880880Y-104081936D01*
X124785642Y-104129555D01*
X125785642Y-104177174D02*
X125785642Y-105177174D01*
X125785642Y-104224793D02*
X125880880Y-104177174D01*
X126071357Y-104177174D01*
X126166595Y-104224793D01*
X126214214Y-104272412D01*
X126261833Y-104367650D01*
X126261833Y-104653364D01*
X126214214Y-104748602D01*
X126166595Y-104796221D01*
X126071357Y-104843840D01*
X125880880Y-104843840D01*
X125785642Y-104796221D01*
X127023738Y-104320031D02*
X126690404Y-104320031D01*
X126690404Y-104843840D02*
X126690404Y-103843840D01*
X127166595Y-103843840D01*
X127499928Y-103939079D02*
X127547547Y-103891460D01*
X127642785Y-103843840D01*
X127880880Y-103843840D01*
X127976119Y-103891460D01*
X128023738Y-103939079D01*
X128071357Y-104034317D01*
X128071357Y-104129555D01*
X128023738Y-104272412D01*
X127452309Y-104843840D01*
X128071357Y-104843840D01*
%TO.C,1pF1*%
X121432771Y-114409480D02*
X120861342Y-114409480D01*
X121147057Y-114409480D02*
X121147057Y-113409480D01*
X121051819Y-113552338D01*
X120956580Y-113647576D01*
X120861342Y-113695195D01*
X121861342Y-113742814D02*
X121861342Y-114742814D01*
X121861342Y-113790433D02*
X121956580Y-113742814D01*
X122147057Y-113742814D01*
X122242295Y-113790433D01*
X122289914Y-113838052D01*
X122337533Y-113933290D01*
X122337533Y-114219004D01*
X122289914Y-114314242D01*
X122242295Y-114361861D01*
X122147057Y-114409480D01*
X121956580Y-114409480D01*
X121861342Y-114361861D01*
X123099438Y-113885671D02*
X122766104Y-113885671D01*
X122766104Y-114409480D02*
X122766104Y-113409480D01*
X123242295Y-113409480D01*
X124147057Y-114409480D02*
X123575628Y-114409480D01*
X123861342Y-114409480D02*
X123861342Y-113409480D01*
X123766104Y-113552338D01*
X123670866Y-113647576D01*
X123575628Y-113695195D01*
%TO.C,1.5pF1*%
X123329605Y-109349800D02*
X122758177Y-109349800D01*
X123043891Y-109349800D02*
X123043891Y-108349800D01*
X122948653Y-108492658D01*
X122853415Y-108587896D01*
X122758177Y-108635515D01*
X123758177Y-109254562D02*
X123805796Y-109302181D01*
X123758177Y-109349800D01*
X123710558Y-109302181D01*
X123758177Y-109254562D01*
X123758177Y-109349800D01*
X124710558Y-108349800D02*
X124234367Y-108349800D01*
X124186748Y-108825991D01*
X124234367Y-108778372D01*
X124329605Y-108730753D01*
X124567700Y-108730753D01*
X124662939Y-108778372D01*
X124710558Y-108825991D01*
X124758177Y-108921229D01*
X124758177Y-109159324D01*
X124710558Y-109254562D01*
X124662939Y-109302181D01*
X124567700Y-109349800D01*
X124329605Y-109349800D01*
X124234367Y-109302181D01*
X124186748Y-109254562D01*
X125186748Y-108683134D02*
X125186748Y-109683134D01*
X125186748Y-108730753D02*
X125281986Y-108683134D01*
X125472462Y-108683134D01*
X125567700Y-108730753D01*
X125615320Y-108778372D01*
X125662939Y-108873610D01*
X125662939Y-109159324D01*
X125615320Y-109254562D01*
X125567700Y-109302181D01*
X125472462Y-109349800D01*
X125281986Y-109349800D01*
X125186748Y-109302181D01*
X126424843Y-108825991D02*
X126091510Y-108825991D01*
X126091510Y-109349800D02*
X126091510Y-108349800D01*
X126567700Y-108349800D01*
X127472462Y-109349800D02*
X126901034Y-109349800D01*
X127186748Y-109349800D02*
X127186748Y-108349800D01*
X127091510Y-108492658D01*
X126996272Y-108587896D01*
X126901034Y-108635515D01*
%TD*%
M02*
