%TF.GenerationSoftware,KiCad,Pcbnew,(5.1.6)-1*%
%TF.CreationDate,2020-07-31T11:50:05+07:00*%
%TF.ProjectId,stm32_nrf24,73746d33-325f-46e7-9266-32342e6b6963,rev?*%
%TF.SameCoordinates,Original*%
%TF.FileFunction,Soldermask,Top*%
%TF.FilePolarity,Negative*%
%FSLAX46Y46*%
G04 Gerber Fmt 4.6, Leading zero omitted, Abs format (unit mm)*
G04 Created by KiCad (PCBNEW (5.1.6)-1) date 2020-07-31 11:50:05*
%MOMM*%
%LPD*%
G01*
G04 APERTURE LIST*
%ADD10O,1.800000X1.800000*%
%ADD11R,1.800000X1.800000*%
%ADD12R,1.250000X1.100000*%
%ADD13R,0.370000X0.910000*%
%ADD14R,0.910000X0.370000*%
%ADD15R,2.100000X1.600000*%
%ADD16R,2.100000X3.900000*%
%ADD17R,1.160000X0.750000*%
%ADD18C,2.100000*%
%ADD19R,5.180000X1.600000*%
%ADD20R,1.550000X1.250000*%
%ADD21O,2.000000X1.150000*%
%ADD22R,2.000000X1.850000*%
%ADD23R,1.500000X0.500000*%
G04 APERTURE END LIST*
%TO.C,C22*%
G36*
G01*
X113752050Y-113939600D02*
X114314550Y-113939600D01*
G75*
G02*
X114558300Y-114183350I0J-243750D01*
G01*
X114558300Y-114670850D01*
G75*
G02*
X114314550Y-114914600I-243750J0D01*
G01*
X113752050Y-114914600D01*
G75*
G02*
X113508300Y-114670850I0J243750D01*
G01*
X113508300Y-114183350D01*
G75*
G02*
X113752050Y-113939600I243750J0D01*
G01*
G37*
G36*
G01*
X113752050Y-112364600D02*
X114314550Y-112364600D01*
G75*
G02*
X114558300Y-112608350I0J-243750D01*
G01*
X114558300Y-113095850D01*
G75*
G02*
X114314550Y-113339600I-243750J0D01*
G01*
X113752050Y-113339600D01*
G75*
G02*
X113508300Y-113095850I0J243750D01*
G01*
X113508300Y-112608350D01*
G75*
G02*
X113752050Y-112364600I243750J0D01*
G01*
G37*
%TD*%
%TO.C,C20*%
G36*
G01*
X119305650Y-113352300D02*
X118743150Y-113352300D01*
G75*
G02*
X118499400Y-113108550I0J243750D01*
G01*
X118499400Y-112621050D01*
G75*
G02*
X118743150Y-112377300I243750J0D01*
G01*
X119305650Y-112377300D01*
G75*
G02*
X119549400Y-112621050I0J-243750D01*
G01*
X119549400Y-113108550D01*
G75*
G02*
X119305650Y-113352300I-243750J0D01*
G01*
G37*
G36*
G01*
X119305650Y-114927300D02*
X118743150Y-114927300D01*
G75*
G02*
X118499400Y-114683550I0J243750D01*
G01*
X118499400Y-114196050D01*
G75*
G02*
X118743150Y-113952300I243750J0D01*
G01*
X119305650Y-113952300D01*
G75*
G02*
X119549400Y-114196050I0J-243750D01*
G01*
X119549400Y-114683550D01*
G75*
G02*
X119305650Y-114927300I-243750J0D01*
G01*
G37*
%TD*%
%TO.C,C24*%
G36*
G01*
X133598040Y-108280480D02*
X134123040Y-108280480D01*
G75*
G02*
X134385540Y-108542980I0J-262500D01*
G01*
X134385540Y-109167980D01*
G75*
G02*
X134123040Y-109430480I-262500J0D01*
G01*
X133598040Y-109430480D01*
G75*
G02*
X133335540Y-109167980I0J262500D01*
G01*
X133335540Y-108542980D01*
G75*
G02*
X133598040Y-108280480I262500J0D01*
G01*
G37*
G36*
G01*
X133598040Y-106530480D02*
X134123040Y-106530480D01*
G75*
G02*
X134385540Y-106792980I0J-262500D01*
G01*
X134385540Y-107417980D01*
G75*
G02*
X134123040Y-107680480I-262500J0D01*
G01*
X133598040Y-107680480D01*
G75*
G02*
X133335540Y-107417980I0J262500D01*
G01*
X133335540Y-106792980D01*
G75*
G02*
X133598040Y-106530480I262500J0D01*
G01*
G37*
%TD*%
D10*
%TO.C,J5*%
X89610000Y-98180000D03*
X87070000Y-98180000D03*
X84530000Y-98180000D03*
D11*
X81990000Y-98180000D03*
%TD*%
D10*
%TO.C,J4*%
X116070000Y-98190000D03*
X113530000Y-98190000D03*
X110990000Y-98190000D03*
X108450000Y-98190000D03*
X105910000Y-98190000D03*
X103370000Y-98190000D03*
X100830000Y-98190000D03*
X98290000Y-98190000D03*
X95750000Y-98190000D03*
D11*
X93210000Y-98190000D03*
%TD*%
%TO.C,U5*%
G36*
G01*
X113915000Y-106457500D02*
X113915000Y-105707500D01*
G75*
G02*
X114002500Y-105620000I87500J0D01*
G01*
X114177500Y-105620000D01*
G75*
G02*
X114265000Y-105707500I0J-87500D01*
G01*
X114265000Y-106457500D01*
G75*
G02*
X114177500Y-106545000I-87500J0D01*
G01*
X114002500Y-106545000D01*
G75*
G02*
X113915000Y-106457500I0J87500D01*
G01*
G37*
G36*
G01*
X114415000Y-106457500D02*
X114415000Y-105707500D01*
G75*
G02*
X114502500Y-105620000I87500J0D01*
G01*
X114677500Y-105620000D01*
G75*
G02*
X114765000Y-105707500I0J-87500D01*
G01*
X114765000Y-106457500D01*
G75*
G02*
X114677500Y-106545000I-87500J0D01*
G01*
X114502500Y-106545000D01*
G75*
G02*
X114415000Y-106457500I0J87500D01*
G01*
G37*
G36*
G01*
X114915000Y-106457500D02*
X114915000Y-105707500D01*
G75*
G02*
X115002500Y-105620000I87500J0D01*
G01*
X115177500Y-105620000D01*
G75*
G02*
X115265000Y-105707500I0J-87500D01*
G01*
X115265000Y-106457500D01*
G75*
G02*
X115177500Y-106545000I-87500J0D01*
G01*
X115002500Y-106545000D01*
G75*
G02*
X114915000Y-106457500I0J87500D01*
G01*
G37*
G36*
G01*
X115415000Y-106457500D02*
X115415000Y-105707500D01*
G75*
G02*
X115502500Y-105620000I87500J0D01*
G01*
X115677500Y-105620000D01*
G75*
G02*
X115765000Y-105707500I0J-87500D01*
G01*
X115765000Y-106457500D01*
G75*
G02*
X115677500Y-106545000I-87500J0D01*
G01*
X115502500Y-106545000D01*
G75*
G02*
X115415000Y-106457500I0J87500D01*
G01*
G37*
G36*
G01*
X115915000Y-106457500D02*
X115915000Y-105707500D01*
G75*
G02*
X116002500Y-105620000I87500J0D01*
G01*
X116177500Y-105620000D01*
G75*
G02*
X116265000Y-105707500I0J-87500D01*
G01*
X116265000Y-106457500D01*
G75*
G02*
X116177500Y-106545000I-87500J0D01*
G01*
X116002500Y-106545000D01*
G75*
G02*
X115915000Y-106457500I0J87500D01*
G01*
G37*
G36*
G01*
X116565000Y-107107500D02*
X116565000Y-106932500D01*
G75*
G02*
X116652500Y-106845000I87500J0D01*
G01*
X117402500Y-106845000D01*
G75*
G02*
X117490000Y-106932500I0J-87500D01*
G01*
X117490000Y-107107500D01*
G75*
G02*
X117402500Y-107195000I-87500J0D01*
G01*
X116652500Y-107195000D01*
G75*
G02*
X116565000Y-107107500I0J87500D01*
G01*
G37*
G36*
G01*
X116565000Y-107607500D02*
X116565000Y-107432500D01*
G75*
G02*
X116652500Y-107345000I87500J0D01*
G01*
X117402500Y-107345000D01*
G75*
G02*
X117490000Y-107432500I0J-87500D01*
G01*
X117490000Y-107607500D01*
G75*
G02*
X117402500Y-107695000I-87500J0D01*
G01*
X116652500Y-107695000D01*
G75*
G02*
X116565000Y-107607500I0J87500D01*
G01*
G37*
G36*
G01*
X116565000Y-108107500D02*
X116565000Y-107932500D01*
G75*
G02*
X116652500Y-107845000I87500J0D01*
G01*
X117402500Y-107845000D01*
G75*
G02*
X117490000Y-107932500I0J-87500D01*
G01*
X117490000Y-108107500D01*
G75*
G02*
X117402500Y-108195000I-87500J0D01*
G01*
X116652500Y-108195000D01*
G75*
G02*
X116565000Y-108107500I0J87500D01*
G01*
G37*
G36*
G01*
X116565000Y-108607500D02*
X116565000Y-108432500D01*
G75*
G02*
X116652500Y-108345000I87500J0D01*
G01*
X117402500Y-108345000D01*
G75*
G02*
X117490000Y-108432500I0J-87500D01*
G01*
X117490000Y-108607500D01*
G75*
G02*
X117402500Y-108695000I-87500J0D01*
G01*
X116652500Y-108695000D01*
G75*
G02*
X116565000Y-108607500I0J87500D01*
G01*
G37*
G36*
G01*
X116565000Y-109107500D02*
X116565000Y-108932500D01*
G75*
G02*
X116652500Y-108845000I87500J0D01*
G01*
X117402500Y-108845000D01*
G75*
G02*
X117490000Y-108932500I0J-87500D01*
G01*
X117490000Y-109107500D01*
G75*
G02*
X117402500Y-109195000I-87500J0D01*
G01*
X116652500Y-109195000D01*
G75*
G02*
X116565000Y-109107500I0J87500D01*
G01*
G37*
G36*
G01*
X115915000Y-110332500D02*
X115915000Y-109582500D01*
G75*
G02*
X116002500Y-109495000I87500J0D01*
G01*
X116177500Y-109495000D01*
G75*
G02*
X116265000Y-109582500I0J-87500D01*
G01*
X116265000Y-110332500D01*
G75*
G02*
X116177500Y-110420000I-87500J0D01*
G01*
X116002500Y-110420000D01*
G75*
G02*
X115915000Y-110332500I0J87500D01*
G01*
G37*
G36*
G01*
X115415000Y-110332500D02*
X115415000Y-109582500D01*
G75*
G02*
X115502500Y-109495000I87500J0D01*
G01*
X115677500Y-109495000D01*
G75*
G02*
X115765000Y-109582500I0J-87500D01*
G01*
X115765000Y-110332500D01*
G75*
G02*
X115677500Y-110420000I-87500J0D01*
G01*
X115502500Y-110420000D01*
G75*
G02*
X115415000Y-110332500I0J87500D01*
G01*
G37*
G36*
G01*
X114915000Y-110332500D02*
X114915000Y-109582500D01*
G75*
G02*
X115002500Y-109495000I87500J0D01*
G01*
X115177500Y-109495000D01*
G75*
G02*
X115265000Y-109582500I0J-87500D01*
G01*
X115265000Y-110332500D01*
G75*
G02*
X115177500Y-110420000I-87500J0D01*
G01*
X115002500Y-110420000D01*
G75*
G02*
X114915000Y-110332500I0J87500D01*
G01*
G37*
G36*
G01*
X114415000Y-110332500D02*
X114415000Y-109582500D01*
G75*
G02*
X114502500Y-109495000I87500J0D01*
G01*
X114677500Y-109495000D01*
G75*
G02*
X114765000Y-109582500I0J-87500D01*
G01*
X114765000Y-110332500D01*
G75*
G02*
X114677500Y-110420000I-87500J0D01*
G01*
X114502500Y-110420000D01*
G75*
G02*
X114415000Y-110332500I0J87500D01*
G01*
G37*
G36*
G01*
X113915000Y-110332500D02*
X113915000Y-109582500D01*
G75*
G02*
X114002500Y-109495000I87500J0D01*
G01*
X114177500Y-109495000D01*
G75*
G02*
X114265000Y-109582500I0J-87500D01*
G01*
X114265000Y-110332500D01*
G75*
G02*
X114177500Y-110420000I-87500J0D01*
G01*
X114002500Y-110420000D01*
G75*
G02*
X113915000Y-110332500I0J87500D01*
G01*
G37*
G36*
G01*
X112690000Y-109107500D02*
X112690000Y-108932500D01*
G75*
G02*
X112777500Y-108845000I87500J0D01*
G01*
X113527500Y-108845000D01*
G75*
G02*
X113615000Y-108932500I0J-87500D01*
G01*
X113615000Y-109107500D01*
G75*
G02*
X113527500Y-109195000I-87500J0D01*
G01*
X112777500Y-109195000D01*
G75*
G02*
X112690000Y-109107500I0J87500D01*
G01*
G37*
G36*
G01*
X112690000Y-108607500D02*
X112690000Y-108432500D01*
G75*
G02*
X112777500Y-108345000I87500J0D01*
G01*
X113527500Y-108345000D01*
G75*
G02*
X113615000Y-108432500I0J-87500D01*
G01*
X113615000Y-108607500D01*
G75*
G02*
X113527500Y-108695000I-87500J0D01*
G01*
X112777500Y-108695000D01*
G75*
G02*
X112690000Y-108607500I0J87500D01*
G01*
G37*
G36*
G01*
X112690000Y-108107500D02*
X112690000Y-107932500D01*
G75*
G02*
X112777500Y-107845000I87500J0D01*
G01*
X113527500Y-107845000D01*
G75*
G02*
X113615000Y-107932500I0J-87500D01*
G01*
X113615000Y-108107500D01*
G75*
G02*
X113527500Y-108195000I-87500J0D01*
G01*
X112777500Y-108195000D01*
G75*
G02*
X112690000Y-108107500I0J87500D01*
G01*
G37*
G36*
G01*
X112690000Y-107607500D02*
X112690000Y-107432500D01*
G75*
G02*
X112777500Y-107345000I87500J0D01*
G01*
X113527500Y-107345000D01*
G75*
G02*
X113615000Y-107432500I0J-87500D01*
G01*
X113615000Y-107607500D01*
G75*
G02*
X113527500Y-107695000I-87500J0D01*
G01*
X112777500Y-107695000D01*
G75*
G02*
X112690000Y-107607500I0J87500D01*
G01*
G37*
G36*
G01*
X112690000Y-107107500D02*
X112690000Y-106932500D01*
G75*
G02*
X112777500Y-106845000I87500J0D01*
G01*
X113527500Y-106845000D01*
G75*
G02*
X113615000Y-106932500I0J-87500D01*
G01*
X113615000Y-107107500D01*
G75*
G02*
X113527500Y-107195000I-87500J0D01*
G01*
X112777500Y-107195000D01*
G75*
G02*
X112690000Y-107107500I0J87500D01*
G01*
G37*
%TD*%
D12*
%TO.C,Y2*%
X117389100Y-114323100D03*
X115639100Y-114323100D03*
X115639100Y-112923100D03*
X117389100Y-112923100D03*
%TD*%
%TO.C,Y1*%
X98045000Y-116990000D03*
X99795000Y-116990000D03*
X99795000Y-118390000D03*
X98045000Y-118390000D03*
%TD*%
D13*
%TO.C,U4*%
X129580000Y-108375000D03*
X130080000Y-108375000D03*
X130580000Y-108375000D03*
X131080000Y-108375000D03*
X131080000Y-105485000D03*
X130580000Y-105485000D03*
X130080000Y-105485000D03*
X129580000Y-105485000D03*
D14*
X128885000Y-106180000D03*
X128885000Y-106680000D03*
X128885000Y-107180000D03*
X128885000Y-107680000D03*
X131775000Y-107680000D03*
X131775000Y-107180000D03*
X131775000Y-106680000D03*
X131775000Y-106180000D03*
D11*
X130330000Y-106930000D03*
%TD*%
%TO.C,U3*%
G36*
G01*
X98565000Y-112050000D02*
X97190000Y-112050000D01*
G75*
G02*
X97090000Y-111950000I0J100000D01*
G01*
X97090000Y-111750000D01*
G75*
G02*
X97190000Y-111650000I100000J0D01*
G01*
X98565000Y-111650000D01*
G75*
G02*
X98665000Y-111750000I0J-100000D01*
G01*
X98665000Y-111950000D01*
G75*
G02*
X98565000Y-112050000I-100000J0D01*
G01*
G37*
G36*
G01*
X98565000Y-111550000D02*
X97190000Y-111550000D01*
G75*
G02*
X97090000Y-111450000I0J100000D01*
G01*
X97090000Y-111250000D01*
G75*
G02*
X97190000Y-111150000I100000J0D01*
G01*
X98565000Y-111150000D01*
G75*
G02*
X98665000Y-111250000I0J-100000D01*
G01*
X98665000Y-111450000D01*
G75*
G02*
X98565000Y-111550000I-100000J0D01*
G01*
G37*
G36*
G01*
X98565000Y-111050000D02*
X97190000Y-111050000D01*
G75*
G02*
X97090000Y-110950000I0J100000D01*
G01*
X97090000Y-110750000D01*
G75*
G02*
X97190000Y-110650000I100000J0D01*
G01*
X98565000Y-110650000D01*
G75*
G02*
X98665000Y-110750000I0J-100000D01*
G01*
X98665000Y-110950000D01*
G75*
G02*
X98565000Y-111050000I-100000J0D01*
G01*
G37*
G36*
G01*
X98565000Y-110550000D02*
X97190000Y-110550000D01*
G75*
G02*
X97090000Y-110450000I0J100000D01*
G01*
X97090000Y-110250000D01*
G75*
G02*
X97190000Y-110150000I100000J0D01*
G01*
X98565000Y-110150000D01*
G75*
G02*
X98665000Y-110250000I0J-100000D01*
G01*
X98665000Y-110450000D01*
G75*
G02*
X98565000Y-110550000I-100000J0D01*
G01*
G37*
G36*
G01*
X98565000Y-110050000D02*
X97190000Y-110050000D01*
G75*
G02*
X97090000Y-109950000I0J100000D01*
G01*
X97090000Y-109750000D01*
G75*
G02*
X97190000Y-109650000I100000J0D01*
G01*
X98565000Y-109650000D01*
G75*
G02*
X98665000Y-109750000I0J-100000D01*
G01*
X98665000Y-109950000D01*
G75*
G02*
X98565000Y-110050000I-100000J0D01*
G01*
G37*
G36*
G01*
X98565000Y-109550000D02*
X97190000Y-109550000D01*
G75*
G02*
X97090000Y-109450000I0J100000D01*
G01*
X97090000Y-109250000D01*
G75*
G02*
X97190000Y-109150000I100000J0D01*
G01*
X98565000Y-109150000D01*
G75*
G02*
X98665000Y-109250000I0J-100000D01*
G01*
X98665000Y-109450000D01*
G75*
G02*
X98565000Y-109550000I-100000J0D01*
G01*
G37*
G36*
G01*
X98565000Y-109050000D02*
X97190000Y-109050000D01*
G75*
G02*
X97090000Y-108950000I0J100000D01*
G01*
X97090000Y-108750000D01*
G75*
G02*
X97190000Y-108650000I100000J0D01*
G01*
X98565000Y-108650000D01*
G75*
G02*
X98665000Y-108750000I0J-100000D01*
G01*
X98665000Y-108950000D01*
G75*
G02*
X98565000Y-109050000I-100000J0D01*
G01*
G37*
G36*
G01*
X98565000Y-108550000D02*
X97190000Y-108550000D01*
G75*
G02*
X97090000Y-108450000I0J100000D01*
G01*
X97090000Y-108250000D01*
G75*
G02*
X97190000Y-108150000I100000J0D01*
G01*
X98565000Y-108150000D01*
G75*
G02*
X98665000Y-108250000I0J-100000D01*
G01*
X98665000Y-108450000D01*
G75*
G02*
X98565000Y-108550000I-100000J0D01*
G01*
G37*
G36*
G01*
X98565000Y-108050000D02*
X97190000Y-108050000D01*
G75*
G02*
X97090000Y-107950000I0J100000D01*
G01*
X97090000Y-107750000D01*
G75*
G02*
X97190000Y-107650000I100000J0D01*
G01*
X98565000Y-107650000D01*
G75*
G02*
X98665000Y-107750000I0J-100000D01*
G01*
X98665000Y-107950000D01*
G75*
G02*
X98565000Y-108050000I-100000J0D01*
G01*
G37*
G36*
G01*
X98565000Y-107550000D02*
X97190000Y-107550000D01*
G75*
G02*
X97090000Y-107450000I0J100000D01*
G01*
X97090000Y-107250000D01*
G75*
G02*
X97190000Y-107150000I100000J0D01*
G01*
X98565000Y-107150000D01*
G75*
G02*
X98665000Y-107250000I0J-100000D01*
G01*
X98665000Y-107450000D01*
G75*
G02*
X98565000Y-107550000I-100000J0D01*
G01*
G37*
G36*
G01*
X98565000Y-107050000D02*
X97190000Y-107050000D01*
G75*
G02*
X97090000Y-106950000I0J100000D01*
G01*
X97090000Y-106750000D01*
G75*
G02*
X97190000Y-106650000I100000J0D01*
G01*
X98565000Y-106650000D01*
G75*
G02*
X98665000Y-106750000I0J-100000D01*
G01*
X98665000Y-106950000D01*
G75*
G02*
X98565000Y-107050000I-100000J0D01*
G01*
G37*
G36*
G01*
X98565000Y-106550000D02*
X97190000Y-106550000D01*
G75*
G02*
X97090000Y-106450000I0J100000D01*
G01*
X97090000Y-106250000D01*
G75*
G02*
X97190000Y-106150000I100000J0D01*
G01*
X98565000Y-106150000D01*
G75*
G02*
X98665000Y-106250000I0J-100000D01*
G01*
X98665000Y-106450000D01*
G75*
G02*
X98565000Y-106550000I-100000J0D01*
G01*
G37*
G36*
G01*
X99390000Y-105725000D02*
X99190000Y-105725000D01*
G75*
G02*
X99090000Y-105625000I0J100000D01*
G01*
X99090000Y-104250000D01*
G75*
G02*
X99190000Y-104150000I100000J0D01*
G01*
X99390000Y-104150000D01*
G75*
G02*
X99490000Y-104250000I0J-100000D01*
G01*
X99490000Y-105625000D01*
G75*
G02*
X99390000Y-105725000I-100000J0D01*
G01*
G37*
G36*
G01*
X99890000Y-105725000D02*
X99690000Y-105725000D01*
G75*
G02*
X99590000Y-105625000I0J100000D01*
G01*
X99590000Y-104250000D01*
G75*
G02*
X99690000Y-104150000I100000J0D01*
G01*
X99890000Y-104150000D01*
G75*
G02*
X99990000Y-104250000I0J-100000D01*
G01*
X99990000Y-105625000D01*
G75*
G02*
X99890000Y-105725000I-100000J0D01*
G01*
G37*
G36*
G01*
X100390000Y-105725000D02*
X100190000Y-105725000D01*
G75*
G02*
X100090000Y-105625000I0J100000D01*
G01*
X100090000Y-104250000D01*
G75*
G02*
X100190000Y-104150000I100000J0D01*
G01*
X100390000Y-104150000D01*
G75*
G02*
X100490000Y-104250000I0J-100000D01*
G01*
X100490000Y-105625000D01*
G75*
G02*
X100390000Y-105725000I-100000J0D01*
G01*
G37*
G36*
G01*
X100890000Y-105725000D02*
X100690000Y-105725000D01*
G75*
G02*
X100590000Y-105625000I0J100000D01*
G01*
X100590000Y-104250000D01*
G75*
G02*
X100690000Y-104150000I100000J0D01*
G01*
X100890000Y-104150000D01*
G75*
G02*
X100990000Y-104250000I0J-100000D01*
G01*
X100990000Y-105625000D01*
G75*
G02*
X100890000Y-105725000I-100000J0D01*
G01*
G37*
G36*
G01*
X101390000Y-105725000D02*
X101190000Y-105725000D01*
G75*
G02*
X101090000Y-105625000I0J100000D01*
G01*
X101090000Y-104250000D01*
G75*
G02*
X101190000Y-104150000I100000J0D01*
G01*
X101390000Y-104150000D01*
G75*
G02*
X101490000Y-104250000I0J-100000D01*
G01*
X101490000Y-105625000D01*
G75*
G02*
X101390000Y-105725000I-100000J0D01*
G01*
G37*
G36*
G01*
X101890000Y-105725000D02*
X101690000Y-105725000D01*
G75*
G02*
X101590000Y-105625000I0J100000D01*
G01*
X101590000Y-104250000D01*
G75*
G02*
X101690000Y-104150000I100000J0D01*
G01*
X101890000Y-104150000D01*
G75*
G02*
X101990000Y-104250000I0J-100000D01*
G01*
X101990000Y-105625000D01*
G75*
G02*
X101890000Y-105725000I-100000J0D01*
G01*
G37*
G36*
G01*
X102390000Y-105725000D02*
X102190000Y-105725000D01*
G75*
G02*
X102090000Y-105625000I0J100000D01*
G01*
X102090000Y-104250000D01*
G75*
G02*
X102190000Y-104150000I100000J0D01*
G01*
X102390000Y-104150000D01*
G75*
G02*
X102490000Y-104250000I0J-100000D01*
G01*
X102490000Y-105625000D01*
G75*
G02*
X102390000Y-105725000I-100000J0D01*
G01*
G37*
G36*
G01*
X102890000Y-105725000D02*
X102690000Y-105725000D01*
G75*
G02*
X102590000Y-105625000I0J100000D01*
G01*
X102590000Y-104250000D01*
G75*
G02*
X102690000Y-104150000I100000J0D01*
G01*
X102890000Y-104150000D01*
G75*
G02*
X102990000Y-104250000I0J-100000D01*
G01*
X102990000Y-105625000D01*
G75*
G02*
X102890000Y-105725000I-100000J0D01*
G01*
G37*
G36*
G01*
X103390000Y-105725000D02*
X103190000Y-105725000D01*
G75*
G02*
X103090000Y-105625000I0J100000D01*
G01*
X103090000Y-104250000D01*
G75*
G02*
X103190000Y-104150000I100000J0D01*
G01*
X103390000Y-104150000D01*
G75*
G02*
X103490000Y-104250000I0J-100000D01*
G01*
X103490000Y-105625000D01*
G75*
G02*
X103390000Y-105725000I-100000J0D01*
G01*
G37*
G36*
G01*
X103890000Y-105725000D02*
X103690000Y-105725000D01*
G75*
G02*
X103590000Y-105625000I0J100000D01*
G01*
X103590000Y-104250000D01*
G75*
G02*
X103690000Y-104150000I100000J0D01*
G01*
X103890000Y-104150000D01*
G75*
G02*
X103990000Y-104250000I0J-100000D01*
G01*
X103990000Y-105625000D01*
G75*
G02*
X103890000Y-105725000I-100000J0D01*
G01*
G37*
G36*
G01*
X104390000Y-105725000D02*
X104190000Y-105725000D01*
G75*
G02*
X104090000Y-105625000I0J100000D01*
G01*
X104090000Y-104250000D01*
G75*
G02*
X104190000Y-104150000I100000J0D01*
G01*
X104390000Y-104150000D01*
G75*
G02*
X104490000Y-104250000I0J-100000D01*
G01*
X104490000Y-105625000D01*
G75*
G02*
X104390000Y-105725000I-100000J0D01*
G01*
G37*
G36*
G01*
X104890000Y-105725000D02*
X104690000Y-105725000D01*
G75*
G02*
X104590000Y-105625000I0J100000D01*
G01*
X104590000Y-104250000D01*
G75*
G02*
X104690000Y-104150000I100000J0D01*
G01*
X104890000Y-104150000D01*
G75*
G02*
X104990000Y-104250000I0J-100000D01*
G01*
X104990000Y-105625000D01*
G75*
G02*
X104890000Y-105725000I-100000J0D01*
G01*
G37*
G36*
G01*
X106890000Y-106550000D02*
X105515000Y-106550000D01*
G75*
G02*
X105415000Y-106450000I0J100000D01*
G01*
X105415000Y-106250000D01*
G75*
G02*
X105515000Y-106150000I100000J0D01*
G01*
X106890000Y-106150000D01*
G75*
G02*
X106990000Y-106250000I0J-100000D01*
G01*
X106990000Y-106450000D01*
G75*
G02*
X106890000Y-106550000I-100000J0D01*
G01*
G37*
G36*
G01*
X106890000Y-107050000D02*
X105515000Y-107050000D01*
G75*
G02*
X105415000Y-106950000I0J100000D01*
G01*
X105415000Y-106750000D01*
G75*
G02*
X105515000Y-106650000I100000J0D01*
G01*
X106890000Y-106650000D01*
G75*
G02*
X106990000Y-106750000I0J-100000D01*
G01*
X106990000Y-106950000D01*
G75*
G02*
X106890000Y-107050000I-100000J0D01*
G01*
G37*
G36*
G01*
X106890000Y-107550000D02*
X105515000Y-107550000D01*
G75*
G02*
X105415000Y-107450000I0J100000D01*
G01*
X105415000Y-107250000D01*
G75*
G02*
X105515000Y-107150000I100000J0D01*
G01*
X106890000Y-107150000D01*
G75*
G02*
X106990000Y-107250000I0J-100000D01*
G01*
X106990000Y-107450000D01*
G75*
G02*
X106890000Y-107550000I-100000J0D01*
G01*
G37*
G36*
G01*
X106890000Y-108050000D02*
X105515000Y-108050000D01*
G75*
G02*
X105415000Y-107950000I0J100000D01*
G01*
X105415000Y-107750000D01*
G75*
G02*
X105515000Y-107650000I100000J0D01*
G01*
X106890000Y-107650000D01*
G75*
G02*
X106990000Y-107750000I0J-100000D01*
G01*
X106990000Y-107950000D01*
G75*
G02*
X106890000Y-108050000I-100000J0D01*
G01*
G37*
G36*
G01*
X106890000Y-108550000D02*
X105515000Y-108550000D01*
G75*
G02*
X105415000Y-108450000I0J100000D01*
G01*
X105415000Y-108250000D01*
G75*
G02*
X105515000Y-108150000I100000J0D01*
G01*
X106890000Y-108150000D01*
G75*
G02*
X106990000Y-108250000I0J-100000D01*
G01*
X106990000Y-108450000D01*
G75*
G02*
X106890000Y-108550000I-100000J0D01*
G01*
G37*
G36*
G01*
X106890000Y-109050000D02*
X105515000Y-109050000D01*
G75*
G02*
X105415000Y-108950000I0J100000D01*
G01*
X105415000Y-108750000D01*
G75*
G02*
X105515000Y-108650000I100000J0D01*
G01*
X106890000Y-108650000D01*
G75*
G02*
X106990000Y-108750000I0J-100000D01*
G01*
X106990000Y-108950000D01*
G75*
G02*
X106890000Y-109050000I-100000J0D01*
G01*
G37*
G36*
G01*
X106890000Y-109550000D02*
X105515000Y-109550000D01*
G75*
G02*
X105415000Y-109450000I0J100000D01*
G01*
X105415000Y-109250000D01*
G75*
G02*
X105515000Y-109150000I100000J0D01*
G01*
X106890000Y-109150000D01*
G75*
G02*
X106990000Y-109250000I0J-100000D01*
G01*
X106990000Y-109450000D01*
G75*
G02*
X106890000Y-109550000I-100000J0D01*
G01*
G37*
G36*
G01*
X106890000Y-110050000D02*
X105515000Y-110050000D01*
G75*
G02*
X105415000Y-109950000I0J100000D01*
G01*
X105415000Y-109750000D01*
G75*
G02*
X105515000Y-109650000I100000J0D01*
G01*
X106890000Y-109650000D01*
G75*
G02*
X106990000Y-109750000I0J-100000D01*
G01*
X106990000Y-109950000D01*
G75*
G02*
X106890000Y-110050000I-100000J0D01*
G01*
G37*
G36*
G01*
X106890000Y-110550000D02*
X105515000Y-110550000D01*
G75*
G02*
X105415000Y-110450000I0J100000D01*
G01*
X105415000Y-110250000D01*
G75*
G02*
X105515000Y-110150000I100000J0D01*
G01*
X106890000Y-110150000D01*
G75*
G02*
X106990000Y-110250000I0J-100000D01*
G01*
X106990000Y-110450000D01*
G75*
G02*
X106890000Y-110550000I-100000J0D01*
G01*
G37*
G36*
G01*
X106890000Y-111050000D02*
X105515000Y-111050000D01*
G75*
G02*
X105415000Y-110950000I0J100000D01*
G01*
X105415000Y-110750000D01*
G75*
G02*
X105515000Y-110650000I100000J0D01*
G01*
X106890000Y-110650000D01*
G75*
G02*
X106990000Y-110750000I0J-100000D01*
G01*
X106990000Y-110950000D01*
G75*
G02*
X106890000Y-111050000I-100000J0D01*
G01*
G37*
G36*
G01*
X106890000Y-111550000D02*
X105515000Y-111550000D01*
G75*
G02*
X105415000Y-111450000I0J100000D01*
G01*
X105415000Y-111250000D01*
G75*
G02*
X105515000Y-111150000I100000J0D01*
G01*
X106890000Y-111150000D01*
G75*
G02*
X106990000Y-111250000I0J-100000D01*
G01*
X106990000Y-111450000D01*
G75*
G02*
X106890000Y-111550000I-100000J0D01*
G01*
G37*
G36*
G01*
X106890000Y-112050000D02*
X105515000Y-112050000D01*
G75*
G02*
X105415000Y-111950000I0J100000D01*
G01*
X105415000Y-111750000D01*
G75*
G02*
X105515000Y-111650000I100000J0D01*
G01*
X106890000Y-111650000D01*
G75*
G02*
X106990000Y-111750000I0J-100000D01*
G01*
X106990000Y-111950000D01*
G75*
G02*
X106890000Y-112050000I-100000J0D01*
G01*
G37*
G36*
G01*
X104890000Y-114050000D02*
X104690000Y-114050000D01*
G75*
G02*
X104590000Y-113950000I0J100000D01*
G01*
X104590000Y-112575000D01*
G75*
G02*
X104690000Y-112475000I100000J0D01*
G01*
X104890000Y-112475000D01*
G75*
G02*
X104990000Y-112575000I0J-100000D01*
G01*
X104990000Y-113950000D01*
G75*
G02*
X104890000Y-114050000I-100000J0D01*
G01*
G37*
G36*
G01*
X104390000Y-114050000D02*
X104190000Y-114050000D01*
G75*
G02*
X104090000Y-113950000I0J100000D01*
G01*
X104090000Y-112575000D01*
G75*
G02*
X104190000Y-112475000I100000J0D01*
G01*
X104390000Y-112475000D01*
G75*
G02*
X104490000Y-112575000I0J-100000D01*
G01*
X104490000Y-113950000D01*
G75*
G02*
X104390000Y-114050000I-100000J0D01*
G01*
G37*
G36*
G01*
X103890000Y-114050000D02*
X103690000Y-114050000D01*
G75*
G02*
X103590000Y-113950000I0J100000D01*
G01*
X103590000Y-112575000D01*
G75*
G02*
X103690000Y-112475000I100000J0D01*
G01*
X103890000Y-112475000D01*
G75*
G02*
X103990000Y-112575000I0J-100000D01*
G01*
X103990000Y-113950000D01*
G75*
G02*
X103890000Y-114050000I-100000J0D01*
G01*
G37*
G36*
G01*
X103390000Y-114050000D02*
X103190000Y-114050000D01*
G75*
G02*
X103090000Y-113950000I0J100000D01*
G01*
X103090000Y-112575000D01*
G75*
G02*
X103190000Y-112475000I100000J0D01*
G01*
X103390000Y-112475000D01*
G75*
G02*
X103490000Y-112575000I0J-100000D01*
G01*
X103490000Y-113950000D01*
G75*
G02*
X103390000Y-114050000I-100000J0D01*
G01*
G37*
G36*
G01*
X102890000Y-114050000D02*
X102690000Y-114050000D01*
G75*
G02*
X102590000Y-113950000I0J100000D01*
G01*
X102590000Y-112575000D01*
G75*
G02*
X102690000Y-112475000I100000J0D01*
G01*
X102890000Y-112475000D01*
G75*
G02*
X102990000Y-112575000I0J-100000D01*
G01*
X102990000Y-113950000D01*
G75*
G02*
X102890000Y-114050000I-100000J0D01*
G01*
G37*
G36*
G01*
X102390000Y-114050000D02*
X102190000Y-114050000D01*
G75*
G02*
X102090000Y-113950000I0J100000D01*
G01*
X102090000Y-112575000D01*
G75*
G02*
X102190000Y-112475000I100000J0D01*
G01*
X102390000Y-112475000D01*
G75*
G02*
X102490000Y-112575000I0J-100000D01*
G01*
X102490000Y-113950000D01*
G75*
G02*
X102390000Y-114050000I-100000J0D01*
G01*
G37*
G36*
G01*
X101890000Y-114050000D02*
X101690000Y-114050000D01*
G75*
G02*
X101590000Y-113950000I0J100000D01*
G01*
X101590000Y-112575000D01*
G75*
G02*
X101690000Y-112475000I100000J0D01*
G01*
X101890000Y-112475000D01*
G75*
G02*
X101990000Y-112575000I0J-100000D01*
G01*
X101990000Y-113950000D01*
G75*
G02*
X101890000Y-114050000I-100000J0D01*
G01*
G37*
G36*
G01*
X101390000Y-114050000D02*
X101190000Y-114050000D01*
G75*
G02*
X101090000Y-113950000I0J100000D01*
G01*
X101090000Y-112575000D01*
G75*
G02*
X101190000Y-112475000I100000J0D01*
G01*
X101390000Y-112475000D01*
G75*
G02*
X101490000Y-112575000I0J-100000D01*
G01*
X101490000Y-113950000D01*
G75*
G02*
X101390000Y-114050000I-100000J0D01*
G01*
G37*
G36*
G01*
X100890000Y-114050000D02*
X100690000Y-114050000D01*
G75*
G02*
X100590000Y-113950000I0J100000D01*
G01*
X100590000Y-112575000D01*
G75*
G02*
X100690000Y-112475000I100000J0D01*
G01*
X100890000Y-112475000D01*
G75*
G02*
X100990000Y-112575000I0J-100000D01*
G01*
X100990000Y-113950000D01*
G75*
G02*
X100890000Y-114050000I-100000J0D01*
G01*
G37*
G36*
G01*
X100390000Y-114050000D02*
X100190000Y-114050000D01*
G75*
G02*
X100090000Y-113950000I0J100000D01*
G01*
X100090000Y-112575000D01*
G75*
G02*
X100190000Y-112475000I100000J0D01*
G01*
X100390000Y-112475000D01*
G75*
G02*
X100490000Y-112575000I0J-100000D01*
G01*
X100490000Y-113950000D01*
G75*
G02*
X100390000Y-114050000I-100000J0D01*
G01*
G37*
G36*
G01*
X99890000Y-114050000D02*
X99690000Y-114050000D01*
G75*
G02*
X99590000Y-113950000I0J100000D01*
G01*
X99590000Y-112575000D01*
G75*
G02*
X99690000Y-112475000I100000J0D01*
G01*
X99890000Y-112475000D01*
G75*
G02*
X99990000Y-112575000I0J-100000D01*
G01*
X99990000Y-113950000D01*
G75*
G02*
X99890000Y-114050000I-100000J0D01*
G01*
G37*
G36*
G01*
X99390000Y-114050000D02*
X99190000Y-114050000D01*
G75*
G02*
X99090000Y-113950000I0J100000D01*
G01*
X99090000Y-112575000D01*
G75*
G02*
X99190000Y-112475000I100000J0D01*
G01*
X99390000Y-112475000D01*
G75*
G02*
X99490000Y-112575000I0J-100000D01*
G01*
X99490000Y-113950000D01*
G75*
G02*
X99390000Y-114050000I-100000J0D01*
G01*
G37*
%TD*%
D15*
%TO.C,U2*%
X83630000Y-114220000D03*
X83630000Y-118820000D03*
X83630000Y-116520000D03*
D16*
X89930000Y-116520000D03*
%TD*%
D17*
%TO.C,U1*%
X89440000Y-107120000D03*
X89440000Y-108070000D03*
X89440000Y-106170000D03*
X91640000Y-106170000D03*
X91640000Y-107120000D03*
X91640000Y-108070000D03*
%TD*%
D18*
%TO.C,SW1*%
X106520000Y-124040000D03*
X106520000Y-119540000D03*
X113020000Y-124040000D03*
X113020000Y-119540000D03*
%TD*%
%TO.C,R7*%
G36*
G01*
X116224100Y-111110600D02*
X116224100Y-111635600D01*
G75*
G02*
X115961600Y-111898100I-262500J0D01*
G01*
X115336600Y-111898100D01*
G75*
G02*
X115074100Y-111635600I0J262500D01*
G01*
X115074100Y-111110600D01*
G75*
G02*
X115336600Y-110848100I262500J0D01*
G01*
X115961600Y-110848100D01*
G75*
G02*
X116224100Y-111110600I0J-262500D01*
G01*
G37*
G36*
G01*
X117974100Y-111110600D02*
X117974100Y-111635600D01*
G75*
G02*
X117711600Y-111898100I-262500J0D01*
G01*
X117086600Y-111898100D01*
G75*
G02*
X116824100Y-111635600I0J262500D01*
G01*
X116824100Y-111110600D01*
G75*
G02*
X117086600Y-110848100I262500J0D01*
G01*
X117711600Y-110848100D01*
G75*
G02*
X117974100Y-111110600I0J-262500D01*
G01*
G37*
%TD*%
%TO.C,R6*%
G36*
G01*
X118792500Y-103690000D02*
X118267500Y-103690000D01*
G75*
G02*
X118005000Y-103427500I0J262500D01*
G01*
X118005000Y-102802500D01*
G75*
G02*
X118267500Y-102540000I262500J0D01*
G01*
X118792500Y-102540000D01*
G75*
G02*
X119055000Y-102802500I0J-262500D01*
G01*
X119055000Y-103427500D01*
G75*
G02*
X118792500Y-103690000I-262500J0D01*
G01*
G37*
G36*
G01*
X118792500Y-105440000D02*
X118267500Y-105440000D01*
G75*
G02*
X118005000Y-105177500I0J262500D01*
G01*
X118005000Y-104552500D01*
G75*
G02*
X118267500Y-104290000I262500J0D01*
G01*
X118792500Y-104290000D01*
G75*
G02*
X119055000Y-104552500I0J-262500D01*
G01*
X119055000Y-105177500D01*
G75*
G02*
X118792500Y-105440000I-262500J0D01*
G01*
G37*
%TD*%
%TO.C,R5*%
G36*
G01*
X126650000Y-110787500D02*
X126650000Y-111312500D01*
G75*
G02*
X126387500Y-111575000I-262500J0D01*
G01*
X125762500Y-111575000D01*
G75*
G02*
X125500000Y-111312500I0J262500D01*
G01*
X125500000Y-110787500D01*
G75*
G02*
X125762500Y-110525000I262500J0D01*
G01*
X126387500Y-110525000D01*
G75*
G02*
X126650000Y-110787500I0J-262500D01*
G01*
G37*
G36*
G01*
X128400000Y-110787500D02*
X128400000Y-111312500D01*
G75*
G02*
X128137500Y-111575000I-262500J0D01*
G01*
X127512500Y-111575000D01*
G75*
G02*
X127250000Y-111312500I0J262500D01*
G01*
X127250000Y-110787500D01*
G75*
G02*
X127512500Y-110525000I262500J0D01*
G01*
X128137500Y-110525000D01*
G75*
G02*
X128400000Y-110787500I0J-262500D01*
G01*
G37*
%TD*%
%TO.C,R4*%
G36*
G01*
X126670000Y-112367500D02*
X126670000Y-112892500D01*
G75*
G02*
X126407500Y-113155000I-262500J0D01*
G01*
X125782500Y-113155000D01*
G75*
G02*
X125520000Y-112892500I0J262500D01*
G01*
X125520000Y-112367500D01*
G75*
G02*
X125782500Y-112105000I262500J0D01*
G01*
X126407500Y-112105000D01*
G75*
G02*
X126670000Y-112367500I0J-262500D01*
G01*
G37*
G36*
G01*
X128420000Y-112367500D02*
X128420000Y-112892500D01*
G75*
G02*
X128157500Y-113155000I-262500J0D01*
G01*
X127532500Y-113155000D01*
G75*
G02*
X127270000Y-112892500I0J262500D01*
G01*
X127270000Y-112367500D01*
G75*
G02*
X127532500Y-112105000I262500J0D01*
G01*
X128157500Y-112105000D01*
G75*
G02*
X128420000Y-112367500I0J-262500D01*
G01*
G37*
%TD*%
%TO.C,R3*%
G36*
G01*
X89810000Y-121462500D02*
X89810000Y-120937500D01*
G75*
G02*
X90072500Y-120675000I262500J0D01*
G01*
X90697500Y-120675000D01*
G75*
G02*
X90960000Y-120937500I0J-262500D01*
G01*
X90960000Y-121462500D01*
G75*
G02*
X90697500Y-121725000I-262500J0D01*
G01*
X90072500Y-121725000D01*
G75*
G02*
X89810000Y-121462500I0J262500D01*
G01*
G37*
G36*
G01*
X88060000Y-121462500D02*
X88060000Y-120937500D01*
G75*
G02*
X88322500Y-120675000I262500J0D01*
G01*
X88947500Y-120675000D01*
G75*
G02*
X89210000Y-120937500I0J-262500D01*
G01*
X89210000Y-121462500D01*
G75*
G02*
X88947500Y-121725000I-262500J0D01*
G01*
X88322500Y-121725000D01*
G75*
G02*
X88060000Y-121462500I0J262500D01*
G01*
G37*
%TD*%
%TO.C,R2*%
G36*
G01*
X108600000Y-117382500D02*
X108600000Y-116857500D01*
G75*
G02*
X108862500Y-116595000I262500J0D01*
G01*
X109487500Y-116595000D01*
G75*
G02*
X109750000Y-116857500I0J-262500D01*
G01*
X109750000Y-117382500D01*
G75*
G02*
X109487500Y-117645000I-262500J0D01*
G01*
X108862500Y-117645000D01*
G75*
G02*
X108600000Y-117382500I0J262500D01*
G01*
G37*
G36*
G01*
X106850000Y-117382500D02*
X106850000Y-116857500D01*
G75*
G02*
X107112500Y-116595000I262500J0D01*
G01*
X107737500Y-116595000D01*
G75*
G02*
X108000000Y-116857500I0J-262500D01*
G01*
X108000000Y-117382500D01*
G75*
G02*
X107737500Y-117645000I-262500J0D01*
G01*
X107112500Y-117645000D01*
G75*
G02*
X106850000Y-117382500I0J262500D01*
G01*
G37*
%TD*%
%TO.C,R1*%
G36*
G01*
X98650000Y-115197500D02*
X98650000Y-115722500D01*
G75*
G02*
X98387500Y-115985000I-262500J0D01*
G01*
X97762500Y-115985000D01*
G75*
G02*
X97500000Y-115722500I0J262500D01*
G01*
X97500000Y-115197500D01*
G75*
G02*
X97762500Y-114935000I262500J0D01*
G01*
X98387500Y-114935000D01*
G75*
G02*
X98650000Y-115197500I0J-262500D01*
G01*
G37*
G36*
G01*
X100400000Y-115197500D02*
X100400000Y-115722500D01*
G75*
G02*
X100137500Y-115985000I-262500J0D01*
G01*
X99512500Y-115985000D01*
G75*
G02*
X99250000Y-115722500I0J262500D01*
G01*
X99250000Y-115197500D01*
G75*
G02*
X99512500Y-114935000I262500J0D01*
G01*
X100137500Y-114935000D01*
G75*
G02*
X100400000Y-115197500I0J-262500D01*
G01*
G37*
%TD*%
%TO.C,L2*%
G36*
G01*
X144478020Y-107407320D02*
X144478020Y-106882320D01*
G75*
G02*
X144740520Y-106619820I262500J0D01*
G01*
X145365520Y-106619820D01*
G75*
G02*
X145628020Y-106882320I0J-262500D01*
G01*
X145628020Y-107407320D01*
G75*
G02*
X145365520Y-107669820I-262500J0D01*
G01*
X144740520Y-107669820D01*
G75*
G02*
X144478020Y-107407320I0J262500D01*
G01*
G37*
G36*
G01*
X142728020Y-107407320D02*
X142728020Y-106882320D01*
G75*
G02*
X142990520Y-106619820I262500J0D01*
G01*
X143615520Y-106619820D01*
G75*
G02*
X143878020Y-106882320I0J-262500D01*
G01*
X143878020Y-107407320D01*
G75*
G02*
X143615520Y-107669820I-262500J0D01*
G01*
X142990520Y-107669820D01*
G75*
G02*
X142728020Y-107407320I0J262500D01*
G01*
G37*
%TD*%
%TO.C,L1*%
G36*
G01*
X138095000Y-107402240D02*
X138095000Y-106877240D01*
G75*
G02*
X138357500Y-106614740I262500J0D01*
G01*
X138982500Y-106614740D01*
G75*
G02*
X139245000Y-106877240I0J-262500D01*
G01*
X139245000Y-107402240D01*
G75*
G02*
X138982500Y-107664740I-262500J0D01*
G01*
X138357500Y-107664740D01*
G75*
G02*
X138095000Y-107402240I0J262500D01*
G01*
G37*
G36*
G01*
X136345000Y-107402240D02*
X136345000Y-106877240D01*
G75*
G02*
X136607500Y-106614740I262500J0D01*
G01*
X137232500Y-106614740D01*
G75*
G02*
X137495000Y-106877240I0J-262500D01*
G01*
X137495000Y-107402240D01*
G75*
G02*
X137232500Y-107664740I-262500J0D01*
G01*
X136607500Y-107664740D01*
G75*
G02*
X136345000Y-107402240I0J262500D01*
G01*
G37*
%TD*%
D19*
%TO.C,J3*%
X150357840Y-107210860D03*
X150357840Y-102960860D03*
X150357840Y-111460860D03*
%TD*%
D10*
%TO.C,J2*%
X100830000Y-123000000D03*
X98290000Y-123000000D03*
D11*
X95750000Y-123000000D03*
%TD*%
D20*
%TO.C,J1*%
X84210000Y-105175000D03*
X84210000Y-109815000D03*
D21*
X81980000Y-111070000D03*
X81980000Y-103920000D03*
D22*
X81980000Y-106370000D03*
D23*
X84630000Y-107495000D03*
X84630000Y-108145000D03*
X84630000Y-108795000D03*
X84630000Y-106195000D03*
X84630000Y-106845000D03*
D22*
X81980000Y-108620000D03*
%TD*%
%TO.C,D1*%
G36*
G01*
X89207500Y-122528750D02*
X89207500Y-123091250D01*
G75*
G02*
X88963750Y-123335000I-243750J0D01*
G01*
X88476250Y-123335000D01*
G75*
G02*
X88232500Y-123091250I0J243750D01*
G01*
X88232500Y-122528750D01*
G75*
G02*
X88476250Y-122285000I243750J0D01*
G01*
X88963750Y-122285000D01*
G75*
G02*
X89207500Y-122528750I0J-243750D01*
G01*
G37*
G36*
G01*
X90782500Y-122528750D02*
X90782500Y-123091250D01*
G75*
G02*
X90538750Y-123335000I-243750J0D01*
G01*
X90051250Y-123335000D01*
G75*
G02*
X89807500Y-123091250I0J243750D01*
G01*
X89807500Y-122528750D01*
G75*
G02*
X90051250Y-122285000I243750J0D01*
G01*
X90538750Y-122285000D01*
G75*
G02*
X90782500Y-122528750I0J-243750D01*
G01*
G37*
%TD*%
%TO.C,C23*%
G36*
G01*
X146308200Y-108355440D02*
X146833200Y-108355440D01*
G75*
G02*
X147095700Y-108617940I0J-262500D01*
G01*
X147095700Y-109242940D01*
G75*
G02*
X146833200Y-109505440I-262500J0D01*
G01*
X146308200Y-109505440D01*
G75*
G02*
X146045700Y-109242940I0J262500D01*
G01*
X146045700Y-108617940D01*
G75*
G02*
X146308200Y-108355440I262500J0D01*
G01*
G37*
G36*
G01*
X146308200Y-106605440D02*
X146833200Y-106605440D01*
G75*
G02*
X147095700Y-106867940I0J-262500D01*
G01*
X147095700Y-107492940D01*
G75*
G02*
X146833200Y-107755440I-262500J0D01*
G01*
X146308200Y-107755440D01*
G75*
G02*
X146045700Y-107492940I0J262500D01*
G01*
X146045700Y-106867940D01*
G75*
G02*
X146308200Y-106605440I262500J0D01*
G01*
G37*
%TD*%
%TO.C,C21*%
G36*
G01*
X141489820Y-108321120D02*
X142014820Y-108321120D01*
G75*
G02*
X142277320Y-108583620I0J-262500D01*
G01*
X142277320Y-109208620D01*
G75*
G02*
X142014820Y-109471120I-262500J0D01*
G01*
X141489820Y-109471120D01*
G75*
G02*
X141227320Y-109208620I0J262500D01*
G01*
X141227320Y-108583620D01*
G75*
G02*
X141489820Y-108321120I262500J0D01*
G01*
G37*
G36*
G01*
X141489820Y-106571120D02*
X142014820Y-106571120D01*
G75*
G02*
X142277320Y-106833620I0J-262500D01*
G01*
X142277320Y-107458620D01*
G75*
G02*
X142014820Y-107721120I-262500J0D01*
G01*
X141489820Y-107721120D01*
G75*
G02*
X141227320Y-107458620I0J262500D01*
G01*
X141227320Y-106833620D01*
G75*
G02*
X141489820Y-106571120I262500J0D01*
G01*
G37*
%TD*%
%TO.C,C19*%
G36*
G01*
X139975980Y-108321120D02*
X140500980Y-108321120D01*
G75*
G02*
X140763480Y-108583620I0J-262500D01*
G01*
X140763480Y-109208620D01*
G75*
G02*
X140500980Y-109471120I-262500J0D01*
G01*
X139975980Y-109471120D01*
G75*
G02*
X139713480Y-109208620I0J262500D01*
G01*
X139713480Y-108583620D01*
G75*
G02*
X139975980Y-108321120I262500J0D01*
G01*
G37*
G36*
G01*
X139975980Y-106571120D02*
X140500980Y-106571120D01*
G75*
G02*
X140763480Y-106833620I0J-262500D01*
G01*
X140763480Y-107458620D01*
G75*
G02*
X140500980Y-107721120I-262500J0D01*
G01*
X139975980Y-107721120D01*
G75*
G02*
X139713480Y-107458620I0J262500D01*
G01*
X139713480Y-106833620D01*
G75*
G02*
X139975980Y-106571120I262500J0D01*
G01*
G37*
%TD*%
%TO.C,C18*%
G36*
G01*
X135114420Y-108290640D02*
X135639420Y-108290640D01*
G75*
G02*
X135901920Y-108553140I0J-262500D01*
G01*
X135901920Y-109178140D01*
G75*
G02*
X135639420Y-109440640I-262500J0D01*
G01*
X135114420Y-109440640D01*
G75*
G02*
X134851920Y-109178140I0J262500D01*
G01*
X134851920Y-108553140D01*
G75*
G02*
X135114420Y-108290640I262500J0D01*
G01*
G37*
G36*
G01*
X135114420Y-106540640D02*
X135639420Y-106540640D01*
G75*
G02*
X135901920Y-106803140I0J-262500D01*
G01*
X135901920Y-107428140D01*
G75*
G02*
X135639420Y-107690640I-262500J0D01*
G01*
X135114420Y-107690640D01*
G75*
G02*
X134851920Y-107428140I0J262500D01*
G01*
X134851920Y-106803140D01*
G75*
G02*
X135114420Y-106540640I262500J0D01*
G01*
G37*
%TD*%
%TO.C,C17*%
G36*
G01*
X129810000Y-103157500D02*
X129810000Y-103682500D01*
G75*
G02*
X129547500Y-103945000I-262500J0D01*
G01*
X128922500Y-103945000D01*
G75*
G02*
X128660000Y-103682500I0J262500D01*
G01*
X128660000Y-103157500D01*
G75*
G02*
X128922500Y-102895000I262500J0D01*
G01*
X129547500Y-102895000D01*
G75*
G02*
X129810000Y-103157500I0J-262500D01*
G01*
G37*
G36*
G01*
X131560000Y-103157500D02*
X131560000Y-103682500D01*
G75*
G02*
X131297500Y-103945000I-262500J0D01*
G01*
X130672500Y-103945000D01*
G75*
G02*
X130410000Y-103682500I0J262500D01*
G01*
X130410000Y-103157500D01*
G75*
G02*
X130672500Y-102895000I262500J0D01*
G01*
X131297500Y-102895000D01*
G75*
G02*
X131560000Y-103157500I0J-262500D01*
G01*
G37*
%TD*%
%TO.C,C16*%
G36*
G01*
X116450000Y-104762500D02*
X116450000Y-104237500D01*
G75*
G02*
X116712500Y-103975000I262500J0D01*
G01*
X117337500Y-103975000D01*
G75*
G02*
X117600000Y-104237500I0J-262500D01*
G01*
X117600000Y-104762500D01*
G75*
G02*
X117337500Y-105025000I-262500J0D01*
G01*
X116712500Y-105025000D01*
G75*
G02*
X116450000Y-104762500I0J262500D01*
G01*
G37*
G36*
G01*
X114700000Y-104762500D02*
X114700000Y-104237500D01*
G75*
G02*
X114962500Y-103975000I262500J0D01*
G01*
X115587500Y-103975000D01*
G75*
G02*
X115850000Y-104237500I0J-262500D01*
G01*
X115850000Y-104762500D01*
G75*
G02*
X115587500Y-105025000I-262500J0D01*
G01*
X114962500Y-105025000D01*
G75*
G02*
X114700000Y-104762500I0J262500D01*
G01*
G37*
%TD*%
%TO.C,C15*%
G36*
G01*
X103750000Y-116347500D02*
X103750000Y-116872500D01*
G75*
G02*
X103487500Y-117135000I-262500J0D01*
G01*
X102862500Y-117135000D01*
G75*
G02*
X102600000Y-116872500I0J262500D01*
G01*
X102600000Y-116347500D01*
G75*
G02*
X102862500Y-116085000I262500J0D01*
G01*
X103487500Y-116085000D01*
G75*
G02*
X103750000Y-116347500I0J-262500D01*
G01*
G37*
G36*
G01*
X105500000Y-116347500D02*
X105500000Y-116872500D01*
G75*
G02*
X105237500Y-117135000I-262500J0D01*
G01*
X104612500Y-117135000D01*
G75*
G02*
X104350000Y-116872500I0J262500D01*
G01*
X104350000Y-116347500D01*
G75*
G02*
X104612500Y-116085000I262500J0D01*
G01*
X105237500Y-116085000D01*
G75*
G02*
X105500000Y-116347500I0J-262500D01*
G01*
G37*
%TD*%
%TO.C,C14*%
G36*
G01*
X112480000Y-104217500D02*
X112480000Y-104742500D01*
G75*
G02*
X112217500Y-105005000I-262500J0D01*
G01*
X111592500Y-105005000D01*
G75*
G02*
X111330000Y-104742500I0J262500D01*
G01*
X111330000Y-104217500D01*
G75*
G02*
X111592500Y-103955000I262500J0D01*
G01*
X112217500Y-103955000D01*
G75*
G02*
X112480000Y-104217500I0J-262500D01*
G01*
G37*
G36*
G01*
X114230000Y-104217500D02*
X114230000Y-104742500D01*
G75*
G02*
X113967500Y-105005000I-262500J0D01*
G01*
X113342500Y-105005000D01*
G75*
G02*
X113080000Y-104742500I0J262500D01*
G01*
X113080000Y-104217500D01*
G75*
G02*
X113342500Y-103955000I262500J0D01*
G01*
X113967500Y-103955000D01*
G75*
G02*
X114230000Y-104217500I0J-262500D01*
G01*
G37*
%TD*%
%TO.C,C13*%
G36*
G01*
X129615000Y-99701667D02*
X129615000Y-101618333D01*
G75*
G02*
X129348333Y-101885000I-266667J0D01*
G01*
X128281667Y-101885000D01*
G75*
G02*
X128015000Y-101618333I0J266667D01*
G01*
X128015000Y-99701667D01*
G75*
G02*
X128281667Y-99435000I266667J0D01*
G01*
X129348333Y-99435000D01*
G75*
G02*
X129615000Y-99701667I0J-266667D01*
G01*
G37*
G36*
G01*
X132865000Y-99701667D02*
X132865000Y-101618333D01*
G75*
G02*
X132598333Y-101885000I-266667J0D01*
G01*
X131531667Y-101885000D01*
G75*
G02*
X131265000Y-101618333I0J266667D01*
G01*
X131265000Y-99701667D01*
G75*
G02*
X131531667Y-99435000I266667J0D01*
G01*
X132598333Y-99435000D01*
G75*
G02*
X132865000Y-99701667I0J-266667D01*
G01*
G37*
%TD*%
%TO.C,C12*%
G36*
G01*
X115985000Y-103068333D02*
X115985000Y-101151667D01*
G75*
G02*
X116251667Y-100885000I266667J0D01*
G01*
X117318333Y-100885000D01*
G75*
G02*
X117585000Y-101151667I0J-266667D01*
G01*
X117585000Y-103068333D01*
G75*
G02*
X117318333Y-103335000I-266667J0D01*
G01*
X116251667Y-103335000D01*
G75*
G02*
X115985000Y-103068333I0J266667D01*
G01*
G37*
G36*
G01*
X112735000Y-103068333D02*
X112735000Y-101151667D01*
G75*
G02*
X113001667Y-100885000I266667J0D01*
G01*
X114068333Y-100885000D01*
G75*
G02*
X114335000Y-101151667I0J-266667D01*
G01*
X114335000Y-103068333D01*
G75*
G02*
X114068333Y-103335000I-266667J0D01*
G01*
X113001667Y-103335000D01*
G75*
G02*
X112735000Y-103068333I0J266667D01*
G01*
G37*
%TD*%
%TO.C,C11*%
G36*
G01*
X103750000Y-114877500D02*
X103750000Y-115402500D01*
G75*
G02*
X103487500Y-115665000I-262500J0D01*
G01*
X102862500Y-115665000D01*
G75*
G02*
X102600000Y-115402500I0J262500D01*
G01*
X102600000Y-114877500D01*
G75*
G02*
X102862500Y-114615000I262500J0D01*
G01*
X103487500Y-114615000D01*
G75*
G02*
X103750000Y-114877500I0J-262500D01*
G01*
G37*
G36*
G01*
X105500000Y-114877500D02*
X105500000Y-115402500D01*
G75*
G02*
X105237500Y-115665000I-262500J0D01*
G01*
X104612500Y-115665000D01*
G75*
G02*
X104350000Y-115402500I0J262500D01*
G01*
X104350000Y-114877500D01*
G75*
G02*
X104612500Y-114615000I262500J0D01*
G01*
X105237500Y-114615000D01*
G75*
G02*
X105500000Y-114877500I0J-262500D01*
G01*
G37*
%TD*%
%TO.C,C10*%
G36*
G01*
X107500000Y-104582500D02*
X107500000Y-104057500D01*
G75*
G02*
X107762500Y-103795000I262500J0D01*
G01*
X108387500Y-103795000D01*
G75*
G02*
X108650000Y-104057500I0J-262500D01*
G01*
X108650000Y-104582500D01*
G75*
G02*
X108387500Y-104845000I-262500J0D01*
G01*
X107762500Y-104845000D01*
G75*
G02*
X107500000Y-104582500I0J262500D01*
G01*
G37*
G36*
G01*
X105750000Y-104582500D02*
X105750000Y-104057500D01*
G75*
G02*
X106012500Y-103795000I262500J0D01*
G01*
X106637500Y-103795000D01*
G75*
G02*
X106900000Y-104057500I0J-262500D01*
G01*
X106900000Y-104582500D01*
G75*
G02*
X106637500Y-104845000I-262500J0D01*
G01*
X106012500Y-104845000D01*
G75*
G02*
X105750000Y-104582500I0J262500D01*
G01*
G37*
%TD*%
%TO.C,C9*%
G36*
G01*
X92011667Y-118180000D02*
X93928333Y-118180000D01*
G75*
G02*
X94195000Y-118446667I0J-266667D01*
G01*
X94195000Y-119513333D01*
G75*
G02*
X93928333Y-119780000I-266667J0D01*
G01*
X92011667Y-119780000D01*
G75*
G02*
X91745000Y-119513333I0J266667D01*
G01*
X91745000Y-118446667D01*
G75*
G02*
X92011667Y-118180000I266667J0D01*
G01*
G37*
G36*
G01*
X92011667Y-114930000D02*
X93928333Y-114930000D01*
G75*
G02*
X94195000Y-115196667I0J-266667D01*
G01*
X94195000Y-116263333D01*
G75*
G02*
X93928333Y-116530000I-266667J0D01*
G01*
X92011667Y-116530000D01*
G75*
G02*
X91745000Y-116263333I0J266667D01*
G01*
X91745000Y-115196667D01*
G75*
G02*
X92011667Y-114930000I266667J0D01*
G01*
G37*
%TD*%
%TO.C,C8*%
G36*
G01*
X97882500Y-103720000D02*
X97357500Y-103720000D01*
G75*
G02*
X97095000Y-103457500I0J262500D01*
G01*
X97095000Y-102832500D01*
G75*
G02*
X97357500Y-102570000I262500J0D01*
G01*
X97882500Y-102570000D01*
G75*
G02*
X98145000Y-102832500I0J-262500D01*
G01*
X98145000Y-103457500D01*
G75*
G02*
X97882500Y-103720000I-262500J0D01*
G01*
G37*
G36*
G01*
X97882500Y-105470000D02*
X97357500Y-105470000D01*
G75*
G02*
X97095000Y-105207500I0J262500D01*
G01*
X97095000Y-104582500D01*
G75*
G02*
X97357500Y-104320000I262500J0D01*
G01*
X97882500Y-104320000D01*
G75*
G02*
X98145000Y-104582500I0J-262500D01*
G01*
X98145000Y-105207500D01*
G75*
G02*
X97882500Y-105470000I-262500J0D01*
G01*
G37*
%TD*%
%TO.C,C7*%
G36*
G01*
X93290000Y-114132500D02*
X93290000Y-113607500D01*
G75*
G02*
X93552500Y-113345000I262500J0D01*
G01*
X94177500Y-113345000D01*
G75*
G02*
X94440000Y-113607500I0J-262500D01*
G01*
X94440000Y-114132500D01*
G75*
G02*
X94177500Y-114395000I-262500J0D01*
G01*
X93552500Y-114395000D01*
G75*
G02*
X93290000Y-114132500I0J262500D01*
G01*
G37*
G36*
G01*
X91540000Y-114132500D02*
X91540000Y-113607500D01*
G75*
G02*
X91802500Y-113345000I262500J0D01*
G01*
X92427500Y-113345000D01*
G75*
G02*
X92690000Y-113607500I0J-262500D01*
G01*
X92690000Y-114132500D01*
G75*
G02*
X92427500Y-114395000I-262500J0D01*
G01*
X91802500Y-114395000D01*
G75*
G02*
X91540000Y-114132500I0J262500D01*
G01*
G37*
%TD*%
%TO.C,C6*%
G36*
G01*
X95922500Y-111280000D02*
X95397500Y-111280000D01*
G75*
G02*
X95135000Y-111017500I0J262500D01*
G01*
X95135000Y-110392500D01*
G75*
G02*
X95397500Y-110130000I262500J0D01*
G01*
X95922500Y-110130000D01*
G75*
G02*
X96185000Y-110392500I0J-262500D01*
G01*
X96185000Y-111017500D01*
G75*
G02*
X95922500Y-111280000I-262500J0D01*
G01*
G37*
G36*
G01*
X95922500Y-113030000D02*
X95397500Y-113030000D01*
G75*
G02*
X95135000Y-112767500I0J262500D01*
G01*
X95135000Y-112142500D01*
G75*
G02*
X95397500Y-111880000I262500J0D01*
G01*
X95922500Y-111880000D01*
G75*
G02*
X96185000Y-112142500I0J-262500D01*
G01*
X96185000Y-112767500D01*
G75*
G02*
X95922500Y-113030000I-262500J0D01*
G01*
G37*
%TD*%
%TO.C,C5*%
G36*
G01*
X81110000Y-114232500D02*
X81110000Y-113707500D01*
G75*
G02*
X81372500Y-113445000I262500J0D01*
G01*
X81997500Y-113445000D01*
G75*
G02*
X82260000Y-113707500I0J-262500D01*
G01*
X82260000Y-114232500D01*
G75*
G02*
X81997500Y-114495000I-262500J0D01*
G01*
X81372500Y-114495000D01*
G75*
G02*
X81110000Y-114232500I0J262500D01*
G01*
G37*
G36*
G01*
X79360000Y-114232500D02*
X79360000Y-113707500D01*
G75*
G02*
X79622500Y-113445000I262500J0D01*
G01*
X80247500Y-113445000D01*
G75*
G02*
X80510000Y-113707500I0J-262500D01*
G01*
X80510000Y-114232500D01*
G75*
G02*
X80247500Y-114495000I-262500J0D01*
G01*
X79622500Y-114495000D01*
G75*
G02*
X79360000Y-114232500I0J262500D01*
G01*
G37*
%TD*%
%TO.C,C4*%
G36*
G01*
X79591667Y-118265000D02*
X81508333Y-118265000D01*
G75*
G02*
X81775000Y-118531667I0J-266667D01*
G01*
X81775000Y-119598333D01*
G75*
G02*
X81508333Y-119865000I-266667J0D01*
G01*
X79591667Y-119865000D01*
G75*
G02*
X79325000Y-119598333I0J266667D01*
G01*
X79325000Y-118531667D01*
G75*
G02*
X79591667Y-118265000I266667J0D01*
G01*
G37*
G36*
G01*
X79591667Y-115015000D02*
X81508333Y-115015000D01*
G75*
G02*
X81775000Y-115281667I0J-266667D01*
G01*
X81775000Y-116348333D01*
G75*
G02*
X81508333Y-116615000I-266667J0D01*
G01*
X79591667Y-116615000D01*
G75*
G02*
X79325000Y-116348333I0J266667D01*
G01*
X79325000Y-115281667D01*
G75*
G02*
X79591667Y-115015000I266667J0D01*
G01*
G37*
%TD*%
%TO.C,C3*%
G36*
G01*
X112150000Y-117312500D02*
X112150000Y-116787500D01*
G75*
G02*
X112412500Y-116525000I262500J0D01*
G01*
X113037500Y-116525000D01*
G75*
G02*
X113300000Y-116787500I0J-262500D01*
G01*
X113300000Y-117312500D01*
G75*
G02*
X113037500Y-117575000I-262500J0D01*
G01*
X112412500Y-117575000D01*
G75*
G02*
X112150000Y-117312500I0J262500D01*
G01*
G37*
G36*
G01*
X110400000Y-117312500D02*
X110400000Y-116787500D01*
G75*
G02*
X110662500Y-116525000I262500J0D01*
G01*
X111287500Y-116525000D01*
G75*
G02*
X111550000Y-116787500I0J-262500D01*
G01*
X111550000Y-117312500D01*
G75*
G02*
X111287500Y-117575000I-262500J0D01*
G01*
X110662500Y-117575000D01*
G75*
G02*
X110400000Y-117312500I0J262500D01*
G01*
G37*
%TD*%
%TO.C,C2*%
G36*
G01*
X101612500Y-117410000D02*
X101087500Y-117410000D01*
G75*
G02*
X100825000Y-117147500I0J262500D01*
G01*
X100825000Y-116522500D01*
G75*
G02*
X101087500Y-116260000I262500J0D01*
G01*
X101612500Y-116260000D01*
G75*
G02*
X101875000Y-116522500I0J-262500D01*
G01*
X101875000Y-117147500D01*
G75*
G02*
X101612500Y-117410000I-262500J0D01*
G01*
G37*
G36*
G01*
X101612500Y-119160000D02*
X101087500Y-119160000D01*
G75*
G02*
X100825000Y-118897500I0J262500D01*
G01*
X100825000Y-118272500D01*
G75*
G02*
X101087500Y-118010000I262500J0D01*
G01*
X101612500Y-118010000D01*
G75*
G02*
X101875000Y-118272500I0J-262500D01*
G01*
X101875000Y-118897500D01*
G75*
G02*
X101612500Y-119160000I-262500J0D01*
G01*
G37*
%TD*%
%TO.C,C1*%
G36*
G01*
X96127500Y-118040000D02*
X96652500Y-118040000D01*
G75*
G02*
X96915000Y-118302500I0J-262500D01*
G01*
X96915000Y-118927500D01*
G75*
G02*
X96652500Y-119190000I-262500J0D01*
G01*
X96127500Y-119190000D01*
G75*
G02*
X95865000Y-118927500I0J262500D01*
G01*
X95865000Y-118302500D01*
G75*
G02*
X96127500Y-118040000I262500J0D01*
G01*
G37*
G36*
G01*
X96127500Y-116290000D02*
X96652500Y-116290000D01*
G75*
G02*
X96915000Y-116552500I0J-262500D01*
G01*
X96915000Y-117177500D01*
G75*
G02*
X96652500Y-117440000I-262500J0D01*
G01*
X96127500Y-117440000D01*
G75*
G02*
X95865000Y-117177500I0J262500D01*
G01*
X95865000Y-116552500D01*
G75*
G02*
X96127500Y-116290000I262500J0D01*
G01*
G37*
%TD*%
%TO.C,8.2nH1*%
G36*
G01*
X118487500Y-108670000D02*
X119012500Y-108670000D01*
G75*
G02*
X119275000Y-108932500I0J-262500D01*
G01*
X119275000Y-109557500D01*
G75*
G02*
X119012500Y-109820000I-262500J0D01*
G01*
X118487500Y-109820000D01*
G75*
G02*
X118225000Y-109557500I0J262500D01*
G01*
X118225000Y-108932500D01*
G75*
G02*
X118487500Y-108670000I262500J0D01*
G01*
G37*
G36*
G01*
X118487500Y-106920000D02*
X119012500Y-106920000D01*
G75*
G02*
X119275000Y-107182500I0J-262500D01*
G01*
X119275000Y-107807500D01*
G75*
G02*
X119012500Y-108070000I-262500J0D01*
G01*
X118487500Y-108070000D01*
G75*
G02*
X118225000Y-107807500I0J262500D01*
G01*
X118225000Y-107182500D01*
G75*
G02*
X118487500Y-106920000I262500J0D01*
G01*
G37*
%TD*%
%TO.C,3.9nH1*%
G36*
G01*
X121560000Y-107712500D02*
X121560000Y-107187500D01*
G75*
G02*
X121822500Y-106925000I262500J0D01*
G01*
X122447500Y-106925000D01*
G75*
G02*
X122710000Y-107187500I0J-262500D01*
G01*
X122710000Y-107712500D01*
G75*
G02*
X122447500Y-107975000I-262500J0D01*
G01*
X121822500Y-107975000D01*
G75*
G02*
X121560000Y-107712500I0J262500D01*
G01*
G37*
G36*
G01*
X119810000Y-107712500D02*
X119810000Y-107187500D01*
G75*
G02*
X120072500Y-106925000I262500J0D01*
G01*
X120697500Y-106925000D01*
G75*
G02*
X120960000Y-107187500I0J-262500D01*
G01*
X120960000Y-107712500D01*
G75*
G02*
X120697500Y-107975000I-262500J0D01*
G01*
X120072500Y-107975000D01*
G75*
G02*
X119810000Y-107712500I0J262500D01*
G01*
G37*
%TD*%
%TO.C,2.7nH1*%
G36*
G01*
X120097500Y-110460000D02*
X120622500Y-110460000D01*
G75*
G02*
X120885000Y-110722500I0J-262500D01*
G01*
X120885000Y-111347500D01*
G75*
G02*
X120622500Y-111610000I-262500J0D01*
G01*
X120097500Y-111610000D01*
G75*
G02*
X119835000Y-111347500I0J262500D01*
G01*
X119835000Y-110722500D01*
G75*
G02*
X120097500Y-110460000I262500J0D01*
G01*
G37*
G36*
G01*
X120097500Y-108710000D02*
X120622500Y-108710000D01*
G75*
G02*
X120885000Y-108972500I0J-262500D01*
G01*
X120885000Y-109597500D01*
G75*
G02*
X120622500Y-109860000I-262500J0D01*
G01*
X120097500Y-109860000D01*
G75*
G02*
X119835000Y-109597500I0J262500D01*
G01*
X119835000Y-108972500D01*
G75*
G02*
X120097500Y-108710000I262500J0D01*
G01*
G37*
%TD*%
%TO.C,1pF3*%
G36*
G01*
X123927290Y-112120960D02*
X124489790Y-112120960D01*
G75*
G02*
X124733540Y-112364710I0J-243750D01*
G01*
X124733540Y-112852210D01*
G75*
G02*
X124489790Y-113095960I-243750J0D01*
G01*
X123927290Y-113095960D01*
G75*
G02*
X123683540Y-112852210I0J243750D01*
G01*
X123683540Y-112364710D01*
G75*
G02*
X123927290Y-112120960I243750J0D01*
G01*
G37*
G36*
G01*
X123927290Y-110545960D02*
X124489790Y-110545960D01*
G75*
G02*
X124733540Y-110789710I0J-243750D01*
G01*
X124733540Y-111277210D01*
G75*
G02*
X124489790Y-111520960I-243750J0D01*
G01*
X123927290Y-111520960D01*
G75*
G02*
X123683540Y-111277210I0J243750D01*
G01*
X123683540Y-110789710D01*
G75*
G02*
X123927290Y-110545960I243750J0D01*
G01*
G37*
%TD*%
%TO.C,1pF2*%
G36*
G01*
X126981250Y-106392500D02*
X126418750Y-106392500D01*
G75*
G02*
X126175000Y-106148750I0J243750D01*
G01*
X126175000Y-105661250D01*
G75*
G02*
X126418750Y-105417500I243750J0D01*
G01*
X126981250Y-105417500D01*
G75*
G02*
X127225000Y-105661250I0J-243750D01*
G01*
X127225000Y-106148750D01*
G75*
G02*
X126981250Y-106392500I-243750J0D01*
G01*
G37*
G36*
G01*
X126981250Y-107967500D02*
X126418750Y-107967500D01*
G75*
G02*
X126175000Y-107723750I0J243750D01*
G01*
X126175000Y-107236250D01*
G75*
G02*
X126418750Y-106992500I243750J0D01*
G01*
X126981250Y-106992500D01*
G75*
G02*
X127225000Y-107236250I0J-243750D01*
G01*
X127225000Y-107723750D01*
G75*
G02*
X126981250Y-107967500I-243750J0D01*
G01*
G37*
%TD*%
%TO.C,1pF1*%
G36*
G01*
X122408750Y-112120000D02*
X122971250Y-112120000D01*
G75*
G02*
X123215000Y-112363750I0J-243750D01*
G01*
X123215000Y-112851250D01*
G75*
G02*
X122971250Y-113095000I-243750J0D01*
G01*
X122408750Y-113095000D01*
G75*
G02*
X122165000Y-112851250I0J243750D01*
G01*
X122165000Y-112363750D01*
G75*
G02*
X122408750Y-112120000I243750J0D01*
G01*
G37*
G36*
G01*
X122408750Y-110545000D02*
X122971250Y-110545000D01*
G75*
G02*
X123215000Y-110788750I0J-243750D01*
G01*
X123215000Y-111276250D01*
G75*
G02*
X122971250Y-111520000I-243750J0D01*
G01*
X122408750Y-111520000D01*
G75*
G02*
X122165000Y-111276250I0J243750D01*
G01*
X122165000Y-110788750D01*
G75*
G02*
X122408750Y-110545000I243750J0D01*
G01*
G37*
%TD*%
%TO.C,1.5pF1*%
G36*
G01*
X124780000Y-107731250D02*
X124780000Y-107168750D01*
G75*
G02*
X125023750Y-106925000I243750J0D01*
G01*
X125511250Y-106925000D01*
G75*
G02*
X125755000Y-107168750I0J-243750D01*
G01*
X125755000Y-107731250D01*
G75*
G02*
X125511250Y-107975000I-243750J0D01*
G01*
X125023750Y-107975000D01*
G75*
G02*
X124780000Y-107731250I0J243750D01*
G01*
G37*
G36*
G01*
X123205000Y-107731250D02*
X123205000Y-107168750D01*
G75*
G02*
X123448750Y-106925000I243750J0D01*
G01*
X123936250Y-106925000D01*
G75*
G02*
X124180000Y-107168750I0J-243750D01*
G01*
X124180000Y-107731250D01*
G75*
G02*
X123936250Y-107975000I-243750J0D01*
G01*
X123448750Y-107975000D01*
G75*
G02*
X123205000Y-107731250I0J243750D01*
G01*
G37*
%TD*%
M02*
